<?xml version="1.0" encoding="UTF-8"?>
<svg version="1.1" xmlns="http://www.w3.org/2000/svg" width="512" height="512">
<path d="M0 0 C5.76104988 2.58023856 9.92048604 7.10589457 12.69921875 12.71875 C13.6241837 15.66460994 13.49046461 17.83658989 13.3359375 20.90625 C13.64460458 26.33476447 15.32018118 28.70364375 19.14135742 32.27319336 C20.90901828 33.79893633 22.70636195 35.27881366 24.51953125 36.75 C27.10129347 38.97924592 28.40500772 40.20325843 29.5234375 43.34375 C35.84947201 41.34605489 41.98117085 39.01128901 48.11743164 36.50146484 C51.87958122 34.9696724 55.65585773 33.58541539 59.5234375 32.34375 C59.36488281 31.81265625 59.20632812 31.2815625 59.04296875 30.734375 C57.48394176 23.56050645 57.35489247 15.48704538 61.1875 9.05859375 C64.80361427 4.41685642 68.89241551 1.14209662 74.5234375 -0.65625 C81.91560947 -1.49526593 88.80963234 -1.8024407 94.9140625 2.8671875 C100.21390973 7.72966869 102.89816078 12.40659327 104.5234375 19.34375 C104.5234375 20.33375 104.5234375 21.32375 104.5234375 22.34375 C106.19212891 22.09818359 106.19212891 22.09818359 107.89453125 21.84765625 C115.75648052 20.97410633 123.68767511 21.23919153 131.5859375 21.28125 C133.23111843 21.2862742 134.87630085 21.29083548 136.52148438 21.29492188 C140.52217248 21.30585658 144.52278838 21.3230707 148.5234375 21.34375 C148.73383667 19.44447754 148.73383667 19.44447754 148.94848633 17.50683594 C149.60833781 11.55035929 152.64383661 6.86340078 157.1484375 2.921875 C163.75152043 -1.63425222 170.79130366 -1.248389 178.5234375 -0.65625 C184.50644749 0.81836942 187.94554273 4.33186208 191.3359375 9.34375 C193.99062517 13.81480291 194.60416396 17.41439582 194.5625 22.5390625 C194.55686035 23.43898926 194.5512207 24.33891602 194.54541016 25.26611328 C194.53815918 25.9517334 194.5309082 26.63735352 194.5234375 27.34375 C195.20108154 27.5389624 195.87872559 27.7341748 196.5769043 27.93530273 C224.05939161 35.92679576 251.21374022 46.34903047 274.5234375 63.34375 C275.12430176 63.77768066 275.72516602 64.21161133 276.34423828 64.65869141 C295.02882773 78.19723932 312.31583375 93.06585977 326.5234375 111.34375 C327.31105469 112.32601562 328.09867187 113.30828125 328.91015625 114.3203125 C346.26241965 136.12556877 359.68418432 160.92335034 368.5234375 187.34375 C368.80268066 188.17712891 369.08192383 189.01050781 369.36962891 189.86914062 C372.3648198 198.97282856 374.85097873 208.14141209 376.7734375 217.53125 C376.92458008 218.26545166 377.07572266 218.99965332 377.23144531 219.75610352 C380.1579406 235.01450644 380.93159495 250.15413908 380.8984375 265.65625 C380.89762177 267.09899796 380.89762177 267.09899796 380.89678955 268.57089233 C380.83370679 292.94127776 377.60767602 315.97788749 370.5234375 339.34375 C370.27787109 340.16681641 370.03230469 340.98988281 369.77929688 341.83789062 C356.77523631 384.48709189 329.30628074 426.29750601 294.2578125 454.16796875 C292.45513605 455.60238415 290.67300097 457.06305634 288.9140625 458.55078125 C276.83964816 468.74973182 263.4974207 477.01475947 249.5234375 484.34375 C248.75854004 484.7459375 247.99364258 485.148125 247.20556641 485.5625 C225.88671411 496.60809034 203.08050946 503.87733989 179.5234375 508.34375 C178.7401709 508.50601074 177.9569043 508.66827148 177.14990234 508.83544922 C148.3617187 514.67260133 115.13442469 513.50179049 86.5234375 507.34375 C84.99565674 507.02229004 84.99565674 507.02229004 83.43701172 506.69433594 C29.65891096 495.07440978 -21.45695487 464.99722881 -55.4765625 421.34375 C-56.27707031 420.33699219 -57.07757813 419.33023437 -57.90234375 418.29296875 C-75.21506924 396.37276978 -88.65326122 371.88665988 -97.4765625 345.34375 C-97.75435547 344.51327148 -98.03214844 343.68279297 -98.31835938 342.82714844 C-102.35672275 330.5552748 -105.45164118 318.10712761 -107.4765625 305.34375 C-107.65533936 304.22363525 -107.83411621 303.10352051 -108.01831055 301.94946289 C-109.66950104 290.39260041 -109.83436333 278.94173126 -109.7890625 267.28125 C-109.78690735 266.28452271 -109.7847522 265.28779541 -109.78253174 264.26086426 C-109.73222827 249.77288258 -109.43424975 235.57678944 -106.4765625 221.34375 C-106.17854736 219.87131836 -106.17854736 219.87131836 -105.87451172 218.36914062 C-103.01971991 204.64047891 -99.01085078 191.52891568 -94.23046875 178.359375 C-92.79337482 174.35907824 -91.66068596 170.42610384 -90.7265625 166.28125 C-89.49180875 160.85462523 -87.13761957 157.31795718 -83.5703125 153.078125 C-81.35052135 150.17914402 -79.65849335 147.2375365 -77.9140625 144.03125 C-73.6625889 136.3833191 -68.73414154 129.27032025 -63.71142578 122.11474609 C-61.23732984 118.56648751 -58.85498822 114.95654856 -56.4765625 111.34375 C-58.63649046 108.77021881 -60.82197539 106.41307381 -63.4765625 104.34375 C-66.85092436 104.00994186 -66.85092436 104.00994186 -70.4765625 104.34375 C-77.66407576 102.98178491 -83.38222725 100.7713358 -87.69140625 94.60546875 C-91.42099572 88.40718305 -92.55660464 82.45661006 -91.05078125 75.328125 C-88.83230828 68.41411107 -84.40036304 63.17829151 -78.2890625 59.34375 C-69.90718022 57.1452235 -62.32320173 57.34670557 -54.67578125 61.64453125 C-50.1096479 65.17253837 -47.28374611 69.92219918 -45.4765625 75.34375 C-45.38258021 77.15429127 -45.34664263 78.96827781 -45.3515625 80.78125 C-45.34769531 82.20244141 -45.34769531 82.20244141 -45.34375 83.65234375 C-45.4765625 86.34375 -45.4765625 86.34375 -46.10546875 88.55078125 C-46.28916016 89.43830078 -46.28916016 89.43830078 -46.4765625 90.34375 C-44.62224163 92.61519074 -44.62224163 92.61519074 -42.4765625 94.34375 C-39.28210555 92.94661388 -37.28721438 91.31842102 -34.9140625 88.78125 C-30.10354681 83.86500869 -24.88077442 79.58573266 -19.4765625 75.34375 C-18.81881836 74.82554688 -18.16107422 74.30734375 -17.48339844 73.7734375 C-3.23493482 62.58797086 -3.23493482 62.58797086 3.5859375 58.90625 C7.0309516 56.98749318 7.0309516 56.98749318 8.5859375 53.34375 C7.31345401 49.75085543 6.09737892 47.8208753 3.11328125 45.453125 C-1.01769972 43.68359469 -5.15901254 44.12956578 -9.55615234 44.3034668 C-15.20898377 44.48583744 -19.0899184 43.99573768 -23.4765625 40.34375 C-29.13409185 34.85186904 -31.88186533 29.88834944 -32.49609375 21.99609375 C-32.44149266 14.58126562 -29.28367763 9.50285945 -24.48828125 4.0703125 C-17.57093983 -1.86651257 -8.60612219 -2.28048664 0 0 Z " fill="#ACE8F6" transform="translate(120.4765625,0.65625)"/>
<path d="M0 0 C5.19677976 3.14483239 8.34620242 8.03506882 10.875 13.4375 C12.56067185 21.69729207 11.49904425 26.70010439 7.16796875 34.03515625 C5.18457857 36.96611458 3.18591566 39.20907194 0.5 41.5 C1.21623535 41.6124707 1.9324707 41.72494141 2.67041016 41.84082031 C5.6933183 42.54503533 8.02450328 43.61312299 10.7734375 45.046875 C11.7634375 45.5625 12.7534375 46.078125 13.7734375 46.609375 C15.30871094 47.42148438 15.30871094 47.42148438 16.875 48.25 C17.89078125 48.7759375 18.9065625 49.301875 19.953125 49.84375 C24.35006136 52.15071401 28.53906376 54.41652597 32.4765625 57.453125 C35.1781396 59.78224666 35.1781396 59.78224666 37.50146484 59.19042969 C38.16098145 58.96258789 38.82049805 58.73474609 39.5 58.5 C45.78052722 56.40649093 51.71690404 56.78008684 57.75 59.5 C63.63459882 62.75688488 66.69805478 67.22373597 69.875 73 C71.02296378 77.5918551 70.89505891 81.93210995 69.75 86.4765625 C69.17943339 89.53163942 69.17943339 89.53163942 71.01953125 91.74609375 C71.77621094 92.46925781 72.53289062 93.19242187 73.3125 93.9375 C98.04606257 119.70322051 112.18571426 159.0096935 111.80078125 194.359375 C111.58997038 200.22748466 110.11770885 205.2247974 108.40625 210.8359375 C105.93947826 220.80935081 106.41096627 230.45238193 111.5 239.5 C113.30262368 242.1233304 115.2994952 244.52681076 117.375 246.9375 C118.53931006 248.33334428 119.70201295 249.73053037 120.86328125 251.12890625 C121.46221191 251.84578613 122.06114258 252.56266602 122.67822266 253.30126953 C150.16109813 286.47076518 150.16109813 286.47076518 152 296.125 C151.21053378 301.45389699 148.63985397 304.16060118 144.5 307.5 C139.40280796 310.61384883 133.94621996 313.06780457 128.5 315.5 C127.67081055 315.87060547 126.84162109 316.24121094 125.98730469 316.62304688 C123.82639179 317.58552002 121.66400292 318.54449886 119.5 319.5 C119.5220752 320.05872803 119.54415039 320.61745605 119.56689453 321.19311523 C120.01413217 337.24232078 120.01413217 337.24232078 116.3125 342.76171875 C113.80525497 344.9664909 111.36268391 346.78970642 108.5 348.5 C107.51 349.16 106.52 349.82 105.5 350.5 C105.64179688 351.26183594 105.78359375 352.02367187 105.9296875 352.80859375 C106.72768434 358.41557154 107.15696033 362.48922806 104 367.375 C101.40301521 370.73119613 98.48567438 373.33357222 95.17578125 375.9609375 C91.11374356 379.69157352 87.67878545 385.22781056 87.37402344 390.80566406 C87.36918945 391.69995117 87.36435547 392.59423828 87.359375 393.515625 C87.09329668 410.40136477 85.80193764 425.56510433 73.65625 438.45703125 C66.0629189 445.61344449 58.34825499 448.22967401 48 448.0625 C47.0394873 448.05299316 46.07897461 448.04348633 45.08935547 448.03369141 C34.31069102 447.72409337 25.10646662 444.65907417 15.140625 440.83203125 C14.42503418 440.5582666 13.70944336 440.28450195 12.97216797 440.00244141 C11.62122488 439.47747656 10.27584618 438.93783999 8.93798828 438.38037109 C5.74078451 437.09660064 3.56127579 436.49592432 0.09375 436.7265625 C-5.29670865 436.38672924 -8.25246897 433.48238401 -12.375 430.1875 C-14.07922309 428.88174338 -15.78630349 427.57970831 -17.49609375 426.28125 C-18.76815674 425.31058594 -18.76815674 425.31058594 -20.06591797 424.3203125 C-23.43593503 421.80006704 -26.89717651 419.46039298 -30.4375 417.1875 C-31.0960498 416.76460693 -31.75459961 416.34171387 -32.43310547 415.90600586 C-37.07221992 412.96512915 -41.76847554 410.12035363 -46.47265625 407.28515625 C-47.39847755 406.72637032 -47.39847755 406.72637032 -48.34300232 406.15629578 C-51.42882968 404.29491153 -54.51858921 402.44080335 -57.61694336 400.6003418 C-64.27203285 396.62313865 -70.48717137 392.39486965 -76.5 387.5 C-77.49 386.778125 -78.48 386.05625 -79.5 385.3125 C-91.24756132 375.33198133 -97.1218425 361.49517635 -98.5 346.5 C-98.5 345.18 -98.5 343.86 -98.5 342.5 C-97.84773437 342.22027344 -97.19546875 341.94054687 -96.5234375 341.65234375 C-89.5978127 338.47554535 -84.68964309 335.11335147 -81.3671875 328.11328125 C-79.43813618 322.30005904 -79.545687 315.80442171 -82.0625 310.1875 C-83.73095981 307.32146054 -85.40320787 305.73834011 -88.1003418 303.84423828 C-90.96349229 301.44224164 -91.99892193 299.94805187 -92.35473633 296.21044922 C-92.38180485 294.57540185 -92.37239614 292.93946066 -92.33203125 291.3046875 C-92.33957932 290.43482208 -92.34712738 289.56495667 -92.35490417 288.66873169 C-92.37335463 285.90308779 -92.34502647 283.14047248 -92.3125 280.375 C-92.30648573 277.60314274 -92.31028482 274.83167532 -92.32365417 272.05984497 C-92.32913446 270.33919429 -92.32192506 268.61844461 -92.30049133 266.8979187 C-92.28581237 262.68866498 -92.6112353 260.26643262 -94.5 256.5 C-94.75406496 253.58050515 -94.68811675 250.67764596 -94.625 247.75 C-94.61597656 246.95722656 -94.60695312 246.16445312 -94.59765625 245.34765625 C-94.57417012 243.39830719 -94.53830137 241.44911425 -94.5 239.5 C-93.21947754 239.49589111 -91.93895508 239.49178223 -90.61962891 239.48754883 C-85.82951627 239.46563529 -81.04021083 239.4112197 -76.25048828 239.34741211 C-74.18481228 239.32433824 -72.11902041 239.30986152 -70.05322266 239.30444336 C-67.06861031 239.29507591 -64.08579403 239.25391601 -61.1015625 239.20703125 C-59.73531235 239.21293022 -59.73531235 239.21293022 -58.34146118 239.21894836 C-51.5337005 239.06701481 -46.18406657 237.30425991 -40.5 233.5 C-38.43296824 231.31585861 -36.86219226 229.17897811 -35.5 226.5 C-35.15698349 225.83852463 -34.81396698 225.17704926 -34.46055603 224.49552917 C-33.09199278 220.22761453 -33.19682301 216.18444103 -33.19360352 211.7277832 C-33.18111824 210.2584861 -33.18111824 210.2584861 -33.16838074 208.75950623 C-33.14429904 205.52322401 -33.13550979 202.28714355 -33.12890625 199.05078125 C-33.11993696 196.79501791 -33.11081506 194.53925517 -33.10154724 192.28349304 C-33.08505854 187.55331986 -33.07735761 182.82321744 -33.07446289 178.09301758 C-33.06908619 172.04829144 -33.03143429 166.00423579 -32.98571873 159.95969868 C-32.95588998 155.29865629 -32.94873802 150.63777403 -32.94773674 145.97664452 C-32.9435443 143.74921798 -32.93114949 141.52179053 -32.91021919 139.29445839 C-32.8831915 136.16887637 -32.88816526 133.04483087 -32.90063477 129.91918945 C-32.88580048 129.00922211 -32.87096619 128.09925476 -32.85568237 127.16171265 C-32.93191143 120.4101145 -34.73249703 115.13116065 -38.5 109.5 C-43.41781972 104.84501244 -48.93351489 102.28262757 -55.74926758 102.18115234 C-57.28028862 102.15134781 -57.28028862 102.15134781 -58.84223938 102.12094116 C-59.9319957 102.10938995 -61.02175201 102.09783875 -62.14453125 102.0859375 C-63.2694548 102.06657135 -64.39437836 102.0472052 -65.5533905 102.0272522 C-69.13968366 101.9675629 -72.72600909 101.92111306 -76.3125 101.875 C-78.74675864 101.83681047 -81.18100392 101.79775817 -83.61523438 101.7578125 C-89.57671407 101.66186986 -95.53825703 101.57779899 -101.5 101.5 C-101.5 97.21 -101.5 92.92 -101.5 88.5 C-99.7421875 87.58854167 -97.984375 86.67708333 -96.2265625 85.765625 C-93.97173932 84.11276819 -93.46637604 83.1583202 -92.5 80.5 C-92.25093297 77.53308472 -92.31877471 74.58040784 -92.3671875 71.60546875 C-92.36638073 69.82747223 -92.36371818 68.04947577 -92.359375 66.27148438 C-92.36133751 63.47957099 -92.37496295 60.68975134 -92.42089844 57.89819336 C-92.64890415 42.18387276 -92.64890415 42.18387276 -89.76660156 37.95947266 C-87.6328125 36.23828125 -87.6328125 36.23828125 -85.44970703 34.88012695 C-82.10006063 32.50903365 -81.57756837 29.33883731 -80.5 25.5 C-69.48487941 25.1947636 -58.65749146 25.13486127 -47.75 26.875 C-46.94715576 27.00108643 -46.14431152 27.12717285 -45.31713867 27.25708008 C-39.7740414 28.2259586 -39.7740414 28.2259586 -37.5 30.5 C-38.21027344 31.12648437 -38.92054688 31.75296875 -39.65234375 32.3984375 C-40.57144531 33.21570312 -41.49054688 34.03296875 -42.4375 34.875 C-43.35402344 35.68710937 -44.27054687 36.49921875 -45.21484375 37.3359375 C-48.30551095 40.26282575 -48.47346182 40.88604317 -48.66113281 45.2277832 C-48.68133515 46.83538322 -48.69486384 48.44307553 -48.703125 50.05078125 C-48.71167511 51.32721748 -48.71167511 51.32721748 -48.72039795 52.62944031 C-48.72985298 54.43255366 -48.73638392 56.23568433 -48.74023438 58.03881836 C-48.74992487 60.79116198 -48.78093675 63.54275408 -48.8125 66.29492188 C-48.81903163 68.04687057 -48.82428147 69.7988246 -48.828125 71.55078125 C-48.8404718 72.37177811 -48.8528186 73.19277496 -48.86553955 74.03865051 C-48.84753929 78.68087484 -48.51932262 81.73044095 -45.5 85.5 C-42.34203893 87.07898053 -38.89329364 87.31928171 -35.5 86.5 C-32.15135943 83.82786198 -30.6451116 82.39819299 -29.95166016 78.10595703 C-29.98050293 76.83606934 -30.0093457 75.56618164 -30.0390625 74.2578125 C-30.04210301 72.84765712 -30.04469312 71.43750072 -30.046875 70.02734375 C-30.08021789 67.82622281 -30.12497566 65.62596181 -30.18066406 63.42529297 C-30.44226292 51.00491335 -30.44226292 51.00491335 -27.93652344 47.00292969 C-26.21000493 45.30108832 -24.4604997 43.9148243 -22.5 42.5 C-22.005 41.51 -22.005 41.51 -21.5 40.5 C-22.221875 40.29375 -22.94375 40.0875 -23.6875 39.875 C-28.47675326 37.53358729 -30.7270885 34.61658843 -32.515625 29.71875 C-34.45883858 22.72318109 -35.73615161 16.86339972 -32.296875 10.15234375 C-25.38425064 -1.03519304 -12.60413466 -5.55560887 0 0 Z " fill="#E7F7FB" transform="translate(303.5,1.5)"/>
<path d="M0 0 C51.67942565 14.06560797 99.71626997 41.1809311 133 84 C133.78761719 84.98226562 134.57523438 85.96453125 135.38671875 86.9765625 C152.73898215 108.78181877 166.16074682 133.57960034 175 160 C175.27924316 160.83337891 175.55848633 161.66675781 175.84619141 162.52539062 C178.8413823 171.62907856 181.32754123 180.79766209 183.25 190.1875 C183.40114258 190.92170166 183.55228516 191.65590332 183.70800781 192.41235352 C186.6345031 207.67075644 187.40815745 222.81038908 187.375 238.3125 C187.37445618 239.27433197 187.37391235 240.23616394 187.37335205 241.22714233 C187.31026929 265.59752776 184.08423852 288.63413749 177 312 C176.75443359 312.82306641 176.50886719 313.64613281 176.25585938 314.49414062 C163.25179881 357.14334189 135.78284324 398.95375601 100.734375 426.82421875 C98.93169855 428.25863415 97.14956347 429.71930634 95.390625 431.20703125 C83.31621066 441.40598182 69.9739832 449.67100947 56 457 C55.23510254 457.4021875 54.47020508 457.804375 53.68212891 458.21875 C28.48948245 471.27140633 -3.15741699 483.20161221 -32 483 C-32.20050864 477.31172412 -32.3441901 471.62558359 -32.43945312 465.93457031 C-32.47923421 464.00647073 -32.5334823 462.07860508 -32.60351562 460.15136719 C-33.09408061 446.28569226 -31.36307572 436.7832608 -24 425 C-23.23818682 423.70128519 -22.48098639 422.39985313 -21.72851562 421.09570312 C-15.78628164 410.85957449 -15.78628164 410.85957449 -12 409 C-7.27261288 409.44637039 -3.03355068 410.49881785 1.44921875 412.03125 C3.21555664 412.62873047 3.21555664 412.62873047 5.01757812 413.23828125 C6.22865234 413.65464844 7.43972656 414.07101562 8.6875 414.5 C11.10765223 415.32415305 13.52820811 416.14712201 15.94921875 416.96875 C17.01487061 417.33419922 18.08052246 417.69964844 19.1784668 418.07617188 C29.88863599 421.58290202 44.54068095 422.37101349 54.875 417.5625 C64.56828863 411.57916069 69.4208071 403.62659599 73 393 C73.36609375 391.97003906 73.7321875 390.94007813 74.109375 389.87890625 C75.54715443 383.61699847 75.35905968 377.2963931 75.390625 370.89257812 C75.59539283 361.84297747 77.72324792 355.96974827 83.9375 349.3125 C84.97583984 348.18714844 84.97583984 348.18714844 86.03515625 347.0390625 C87.62308853 345.39114868 89.23052145 343.77830121 90.875 342.1875 C93.82025592 339.15561891 94.91131605 337.35982053 95.1875 333.125 C95.12553609 329.99126234 95.12553609 329.99126234 94.08984375 327.09375 C94.06019531 326.0728125 94.03054688 325.051875 94 324 C96.10884943 322.21932887 98.0676111 320.84095473 100.375 319.375 C103.80793164 316.92239298 106.52803169 314.7830717 107.63769531 310.59082031 C108.01617865 306.96781197 108.04812405 303.45431563 107.86474609 299.81787109 C107.75922832 297.48525467 107.68107815 295.31371807 108 293 C110.01171875 291.11328125 110.01171875 291.11328125 113 290 C114.23725393 289.46587751 115.47282245 288.92784051 116.70703125 288.38671875 C117.37259033 288.11126221 118.03814941 287.83580566 118.72387695 287.55200195 C131.06198099 282.52393096 131.06198099 282.52393096 140 273 C140.92462176 267.37324196 138.66750133 264.01699645 135.6875 259.5 C135.24035645 258.80438965 134.79321289 258.1087793 134.33251953 257.39208984 C130.0192527 250.8001725 125.23080188 244.62362995 120.24902344 238.52832031 C117.84232941 235.58346015 115.48040428 232.60249049 113.109375 229.62890625 C111.48571056 227.60533927 109.84849541 225.59562336 108.203125 223.58984375 C99.27249536 212.62126304 94.69934396 204.58827972 95.74609375 190.04785156 C96.14413988 186.83745645 97.05789247 183.83876682 98 180.75 C102.17264789 166.67288184 100.55748913 152.05781996 97 138 C96.65487759 136.49510575 96.31119848 134.98987997 95.96875 133.484375 C93.25930424 122.00165427 89.20874514 111.56917755 84 101 C83.67628418 100.33484375 83.35256836 99.6696875 83.01904297 98.984375 C77.26819523 87.28971767 70.35238622 76.43429661 61.3125 67 C58 63.39541583 58 63.39541583 58 59.9375 C58.33 58.968125 58.66 57.99875 59 57 C59.70920242 49.90797577 58.05113277 44.8990179 54 39 C51.85007484 36.89904808 49.64452514 35.41164629 47 34 C46.236875 33.566875 45.47375 33.13375 44.6875 32.6875 C40.03975138 31.49854105 34.29807669 30.7964532 29.94140625 33.078125 C27.45027362 34.26103707 26.581802 33.84027231 24 33 C22.25512695 32.09545898 22.25512695 32.09545898 20.48828125 30.99609375 C19.48655884 30.38483643 19.48655884 30.38483643 18.46459961 29.76123047 C17.75440674 29.32439941 17.04421387 28.88756836 16.3125 28.4375 C7.81730792 23.31046622 -0.95241644 19.05386097 -10 15 C-9 12 -9 12 -6.6875 9.75 C-4.50688763 7.51867572 -3.28979429 5.97634272 -1.83203125 3.328125 C-1.22746094 2.22984375 -0.62289063 1.1315625 0 0 Z " fill="#1D2E79" transform="translate(314,28)"/>
<path d="M0 0 C1.48392746 -0.01248528 1.48392746 -0.01248528 2.99783325 -0.02522278 C6.26658067 -0.04930597 9.53512835 -0.0580939 12.80395508 -0.06469727 C15.08213866 -0.07366642 17.36032164 -0.08278832 19.63850403 -0.09205627 C24.41575551 -0.10854536 29.19293694 -0.11624598 33.97021484 -0.11914062 C40.07547229 -0.12451747 46.18006593 -0.16216986 52.28513622 -0.20788479 C56.99250152 -0.23771162 61.69970825 -0.24486545 66.40715981 -0.24586678 C68.65691473 -0.25005957 70.90667053 -0.26245579 73.15633202 -0.28338432 C76.31304233 -0.31040805 79.46823094 -0.30543936 82.625 -0.29296875 C83.54431808 -0.30780304 84.46363617 -0.32263733 85.41081238 -0.33792114 C92.18121563 -0.26221638 97.50560616 1.49165911 103.13598633 5.30639648 C109.81579121 12.31935137 111.4355463 18.61501115 111.44238281 28.07861328 C111.45070633 29.05814468 111.45902985 30.03767609 111.46760559 31.04689026 C111.49168728 34.28317247 111.50047654 37.51925293 111.50708008 40.75561523 C111.51604937 43.01137857 111.52517127 45.26714131 111.53443909 47.52290344 C111.55092778 52.25307662 111.55862872 56.98317904 111.56152344 61.71337891 C111.56690013 67.75810505 111.60455203 73.80216069 111.6502676 79.84669781 C111.68009635 84.50774019 111.68724831 89.16862246 111.68824959 93.82975197 C111.69244203 96.05717851 111.70483684 98.28460595 111.72576714 100.5119381 C111.75279483 103.63752011 111.74782107 106.76156561 111.73535156 109.88720703 C111.757603 111.25215805 111.757603 111.25215805 111.78030396 112.64468384 C111.70416484 119.38831657 109.93035872 124.69770583 106.13598633 130.30639648 C99.0922498 137.01675374 92.77487083 138.60599713 83.27197266 138.61279297 C81.7880452 138.62527824 81.7880452 138.62527824 80.2741394 138.63801575 C77.00539198 138.66209894 73.7368443 138.67088687 70.46801758 138.67749023 C68.189834 138.68645939 65.91165101 138.69558128 63.63346863 138.70484924 C58.85621714 138.72133833 54.07903572 138.72903895 49.30175781 138.73193359 C43.19650037 138.73731044 37.09190673 138.77496283 30.98683643 138.82067776 C26.27947114 138.85050459 21.57226441 138.85765842 16.86481285 138.85865974 C14.61505793 138.86285253 12.36530212 138.87524876 10.11564064 138.89617729 C6.95893033 138.92320102 3.80374172 138.91823233 0.64697266 138.90576172 C-0.73200447 138.92801315 -0.73200447 138.92801315 -2.13883972 138.95071411 C-8.90349143 138.87507366 -14.24578862 137.13383632 -19.86401367 133.30639648 C-24.24689187 128.64332249 -26.97487655 124.50479556 -27.01118469 117.97529602 C-27.01834 117.09083298 -27.0254953 116.20636993 -27.03286743 115.29510498 C-27.03555634 114.32728088 -27.03824524 113.35945679 -27.04101562 112.36230469 C-27.04758682 111.34083847 -27.05415802 110.31937225 -27.06092834 109.26695251 C-27.08066784 105.88036019 -27.09232606 102.49381225 -27.10229492 99.10717773 C-27.10637045 97.95046255 -27.11044598 96.79374737 -27.114645 95.60198021 C-27.13550952 89.47847039 -27.14980904 83.354983 -27.15917969 77.23144531 C-27.17023877 70.91082532 -27.20463224 64.59055789 -27.24435139 58.27006245 C-27.27051624 53.40666557 -27.27887149 48.54335266 -27.28246117 43.67989159 C-27.28732821 41.35033986 -27.29894548 39.0207919 -27.31749916 36.69130898 C-27.34188463 33.42641022 -27.34092611 30.16242316 -27.33398438 26.89746094 C-27.34679443 25.939758 -27.35960449 24.98205505 -27.37280273 23.99533081 C-27.31868207 16.99186543 -25.87538796 11.40757319 -20.89916992 6.28295898 C-20.24819336 5.83694336 -19.5972168 5.39092773 -18.92651367 4.93139648 C-18.27811523 4.46991211 -17.6297168 4.00842773 -16.96166992 3.53295898 C-11.2557944 0.1965625 -6.47833844 0.00463287 0 0 Z " fill="#AD7AFC" transform="translate(159.864013671875,102.693603515625)"/>
<path d="M0 0 C1.41278785 2.60822372 2.27549182 4.93361118 3.125 7.8125 C4.40935264 11.48926607 5.82380311 12.69020592 9.05859375 14.76953125 C12.00086501 17.26003906 12.90628028 18.56620175 13.73046875 22.38110352 C13.98039458 26.56501814 14.01112178 30.68716895 13.9375 34.875 C13.93475417 37.11208554 13.94284258 39.34897585 13.95111084 41.58604431 C13.95503757 43.04979475 13.95399086 44.51356751 13.94781494 45.97731018 C13.93888127 50.7464802 14.27521422 55.35740193 14.86865234 60.08276367 C15.2430655 63.15687395 15.4056661 65.92336406 15 69 C12.95193889 71.33683328 11.08833613 72.4284488 8.3046875 73.78125 C5.09691076 75.47756584 3.96112587 77.29949501 2.59375 80.59765625 C0.94616121 87.26388722 0.5731784 94.43086795 4.125 100.5 C7.82580482 105.45531493 12.05188178 109.05492192 18 111 C20.89651829 111.23971089 20.89651829 111.23971089 23.8125 111.125 C25.27623047 111.09792969 25.27623047 111.09792969 26.76953125 111.0703125 C27.50558594 111.04710937 28.24164063 111.02390625 29 111 C29.27561768 111.55236328 29.55123535 112.10472656 29.83520508 112.67382812 C40.23273562 133.37029378 52.14352526 151.54957471 68.83203125 167.70629883 C79.20535315 177.7560938 87.97341929 189.05341507 88.67138672 204.12109375 C88.77508269 218.62596042 85.06733282 232.339921 81.61767578 246.32510376 C79.76833898 253.85018509 78.15053347 261.41571964 76.5625 269 C76.0860249 271.27112529 75.60828981 273.54198684 75.12890625 275.8125 C74.93369385 276.74707031 74.73848145 277.68164062 74.53735352 278.64453125 C74 281 74 281 73 284 C67.51560706 282.49552645 64.09746727 278.65502675 60.125 274.8125 C59.44308594 274.16474609 58.76117188 273.51699219 58.05859375 272.84960938 C50.11749053 265.27909097 42.82046956 257.60944518 36 249 C35.19304687 247.98679687 34.38609375 246.97359375 33.5546875 245.9296875 C16.26120219 224.00213377 2.82206052 199.53917732 -6 173 C-6.27779297 172.16952148 -6.55558594 171.33904297 -6.84179688 170.48339844 C-10.88016025 158.2115248 -13.97507868 145.76337761 -16 133 C-16.17877686 131.87988525 -16.35755371 130.75977051 -16.54174805 129.60571289 C-18.19293854 118.04885041 -18.35780083 106.59798126 -18.3125 94.9375 C-18.31034485 93.94077271 -18.3081897 92.94404541 -18.30596924 91.91711426 C-18.25566577 77.42913258 -17.95768725 63.23303944 -15 49 C-14.80132324 48.01837891 -14.60264648 47.03675781 -14.39794922 46.02539062 C-6.09457965 6.09457965 -6.09457965 6.09457965 0 0 Z " fill="#1D2E79" transform="translate(29,173)"/>
<path d="M0 0 C1.02068069 0.00015106 2.04136139 0.00030212 3.0929718 0.00045776 C4.72760628 0.01594162 4.72760628 0.01594162 6.39526367 0.03173828 C7.52018723 0.03456818 8.64511078 0.03739807 9.80412292 0.04031372 C13.39060178 0.05149242 16.97682927 0.07659315 20.56323242 0.10205078 C22.9974736 0.11208355 25.4317187 0.12120888 27.8659668 0.12939453 C33.82764084 0.15142422 39.78916867 0.18487904 45.75073242 0.22705078 C44.96069824 1.01168701 44.17066406 1.79632324 43.35668945 2.60473633 C36.83776562 9.16457902 31.87888834 16.00737334 31.56323242 25.47705078 C31.29510742 26.71455078 31.02698242 27.95205078 30.75073242 29.22705078 C29.04415894 30.20980835 29.04415894 30.20980835 26.91821289 31.00195312 C23.09810021 32.76639693 21.53556386 34.46471352 19.96533203 38.50483704 C19.61547241 39.53135628 19.61547241 39.53135628 19.25854492 40.57861328 C18.98582764 41.30223557 18.71311035 42.02585785 18.43212891 42.77140808 C17.55287568 45.12259298 16.71416596 47.48603777 15.87573242 49.85205078 C15.27666731 51.48022928 14.67491971 53.10742319 14.07055664 54.73364258 C12.85800791 58.00399186 11.65931345 61.2789402 10.46948242 64.55761719 C8.92674871 68.78336134 7.29963492 72.96974879 5.62573242 77.14501953 C5.1576416 78.3204834 4.68955078 79.49594727 4.20727539 80.70703125 C3.34254435 82.8712371 2.47209812 85.03317133 1.5949707 87.19238281 C-0.46179847 92.43613898 -1.87589402 96.57986312 -1.24926758 102.22705078 C-0.33260091 104.31038411 -0.33260091 104.31038411 1.75073242 105.22705078 C5.25073242 105.81038411 5.25073242 105.81038411 8.75073242 105.22705078 C12.51827315 100.56473741 12.51827315 100.56473741 15.75073242 91.22705078 C24.66073242 91.22705078 33.57073242 91.22705078 42.75073242 91.22705078 C49.92075012 106.63496116 49.92075012 106.63496116 49.19213867 109.17236328 C48.75708008 110.25130859 48.75708008 110.25130859 48.31323242 111.35205078 C46.29425379 117.16483112 45.5069899 122.06241703 47.80541992 127.91064453 C49.57814873 131.52428403 51.51786049 134.87774289 53.75073242 138.22705078 C46.23099649 138.34350523 38.71135544 138.43204754 31.19091988 138.48611164 C27.69783534 138.51207575 24.20537302 138.54722604 20.71264648 138.60424805 C16.68622267 138.66956293 12.66044026 138.69333971 8.63354492 138.71533203 C7.3946048 138.74113846 6.15566467 138.76694489 4.87918091 138.79353333 C-2.83106752 138.79599998 -8.8918983 137.82092693 -15.24926758 133.22705078 C-19.6210192 128.54370936 -22.36005535 124.43895777 -22.3964386 117.89595032 C-22.4035939 117.01148727 -22.41074921 116.12702423 -22.41812134 115.21575928 C-22.42081024 114.24793518 -22.42349915 113.28011108 -22.42626953 112.28295898 C-22.43284073 111.26149277 -22.43941193 110.24002655 -22.44618225 109.18760681 C-22.46592174 105.80101449 -22.47757997 102.41446655 -22.48754883 99.02783203 C-22.49162436 97.87111685 -22.49569988 96.71440166 -22.49989891 95.52263451 C-22.52076342 89.39912469 -22.53506295 83.2756373 -22.54443359 77.15209961 C-22.55549267 70.83147962 -22.58988615 64.51121219 -22.62960529 58.19071674 C-22.65577015 53.32731986 -22.6641254 48.46400696 -22.66771507 43.60054588 C-22.67258212 41.27099415 -22.68419938 38.9414462 -22.70275307 36.61196327 C-22.72713853 33.34706452 -22.72618002 30.08307746 -22.71923828 26.81811523 C-22.73204834 25.86041229 -22.7448584 24.90270935 -22.75805664 23.91598511 C-22.70393597 16.91251973 -21.26064187 11.32822748 -16.28442383 6.20361328 C-15.63344727 5.75759766 -14.9824707 5.31158203 -14.31176758 4.85205078 C-13.66336914 4.39056641 -13.0149707 3.92908203 -12.34692383 3.45361328 C-8.2214093 1.04130125 -4.78499805 -0.02374689 0 0 Z " fill="#9B58FD" transform="translate(155.249267578125,102.77294921875)"/>
<path d="M0 0 C4.56613335 3.52800712 7.39203514 8.27766793 9.19921875 13.69921875 C9.29320104 15.50976002 9.32913862 17.32374656 9.32421875 19.13671875 C9.32808594 20.55791016 9.32808594 20.55791016 9.33203125 22.0078125 C9.19921875 24.69921875 9.19921875 24.69921875 8.5703125 26.90625 C8.38662109 27.79376953 8.38662109 27.79376953 8.19921875 28.69921875 C10.05353962 30.97065949 10.05353962 30.97065949 12.19921875 32.69921875 C12.81796875 32.38984375 13.43671875 32.08046875 14.07421875 31.76171875 C15.44921875 31.07421875 16.82421875 30.38671875 18.19921875 29.69921875 C17.88984375 30.29734375 17.58046875 30.89546875 17.26171875 31.51171875 C16.09712171 33.78878647 16.09712171 33.78878647 15.19921875 36.69921875 C16.56856567 36.72109253 16.56856567 36.72109253 17.96557617 36.7434082 C21.36720486 36.8046267 24.76804556 36.87880748 28.16918945 36.96166992 C29.63848297 36.99483134 31.10790119 37.02289053 32.57739258 37.0456543 C34.69536243 37.07936394 36.8121987 37.13168308 38.9296875 37.1875 C40.20223389 37.21368408 41.47478027 37.23986816 42.78588867 37.2668457 C46.4176385 37.7268864 48.30879566 38.49474693 51.19921875 40.69921875 C53.71172458 44.4679775 53.72937961 46.23072009 53.19921875 50.69921875 C51.41769808 53.67283503 49.3461465 56.12575487 46.19921875 57.69921875 C43.43699703 57.83486941 40.70125918 57.91194593 37.9375 57.9375 C36.70147285 57.94960762 36.70147285 57.94960762 35.44047546 57.96195984 C33.69284164 57.97580398 31.94518074 57.98652466 30.19750977 57.99438477 C27.53934485 58.01154045 24.88244245 58.05541503 22.22460938 58.09960938 C20.52474871 58.10974161 18.82487748 58.11825605 17.125 58.125 C16.33619949 58.14250809 15.54739899 58.16001617 14.73469543 58.17805481 C9.10556448 58.15620776 5.87703264 56.83678158 1.19921875 53.69921875 C0.77576172 54.78710693 0.77576172 54.78710693 0.34375 55.89697266 C-0.71949223 58.50019243 -1.87805754 61.00988823 -3.11328125 63.53515625 C-3.54898438 64.43492188 -3.9846875 65.3346875 -4.43359375 66.26171875 C-5.34198146 68.13040204 -6.25342146 69.99760478 -7.16796875 71.86328125 C-9.53209999 76.75941103 -11.51874545 81.41082109 -12.80078125 86.69921875 C-12.17171875 86.83457031 -11.54265625 86.96992188 -10.89453125 87.109375 C-4.07486491 88.82456217 0.42168728 91.52252016 5.19921875 96.69921875 C5.52921875 97.35921875 5.85921875 98.01921875 6.19921875 98.69921875 C7.41504639 98.70332764 8.63087402 98.70743652 9.88354492 98.71166992 C14.40334205 98.73347545 18.92227038 98.78777988 23.44165039 98.85180664 C25.39599264 98.87497426 27.35045952 98.88937946 29.30493164 98.89477539 C32.11813918 98.90407407 34.92938987 98.9450835 37.7421875 98.9921875 C38.61320602 98.98825485 39.48422455 98.9843222 40.38163757 98.98027039 C44.87387648 99.08781989 46.63535897 99.23717646 50.2277832 102.1809082 C51.2036438 103.42747192 51.2036438 103.42747192 52.19921875 104.69921875 C52.52921875 105.02921875 52.85921875 105.35921875 53.19921875 105.69921875 C53.58309221 110.68957379 53.28635118 113.69738042 50.19921875 117.69921875 C46.2157153 120.35488771 42.79757781 119.904755 38.18359375 119.83203125 C36.35676916 119.83283817 34.52994461 119.83550133 32.703125 119.83984375 C29.82782057 119.83788209 26.95454832 119.82430399 24.07958984 119.77832031 C13.31322807 119.16431093 13.31322807 119.16431093 3.45166016 122.46777344 C1.73609823 124.46753038 0.51216866 126.42834243 -0.80078125 128.69921875 C-6.91310805 132.6111079 -13.70389632 132.6290949 -20.80078125 131.69921875 C-26.42782161 129.59245484 -30.5134895 125.67711769 -33.80078125 120.69921875 C-36.55074802 114.4288665 -37.78508383 108.36166499 -35.80078125 101.69921875 C-33.94120744 97.86946452 -31.5709417 94.62557639 -28.85546875 91.359375 C-26.64012084 88.49121545 -24.96983414 85.56933539 -23.23828125 82.38671875 C-18.98680765 74.73878785 -14.05836029 67.625789 -9.03564453 60.47021484 C-6.56154859 56.92195626 -4.17920697 53.31201731 -1.80078125 49.69921875 C-3.96070921 47.12568756 -6.14619414 44.76854256 -8.80078125 42.69921875 C-12.17514311 42.36541061 -12.17514311 42.36541061 -15.80078125 42.69921875 C-22.98829451 41.33725366 -28.706446 39.12680455 -33.015625 32.9609375 C-36.74521447 26.7626518 -37.88082339 20.81207881 -36.375 13.68359375 C-34.15652703 6.76957982 -29.72458179 1.53376026 -23.61328125 -2.30078125 C-15.23139897 -4.49930775 -7.64742048 -4.29782568 0 0 Z " fill="#3FE9DC" transform="translate(65.80078125,62.30078125)"/>
<path d="M0 0 C6.84302776 4.06141533 10.66016202 9.54167073 13.00390625 17.0390625 C13.484375 19.08984375 13.484375 19.08984375 13.484375 22.08984375 C15.44105103 21.84536499 15.44105103 21.84536499 17.43725586 21.59594727 C22.05702556 21.08444396 26.59443484 20.95984192 31.23828125 20.9921875 C32.41776588 20.99430992 32.41776588 20.99430992 33.62107849 20.99647522 C36.09638515 21.00200703 38.57159637 21.014546 41.046875 21.02734375 C42.74023306 21.03236759 44.43359255 21.03692894 46.12695312 21.04101562 C50.2461297 21.05195397 54.36523625 21.06917013 58.484375 21.08984375 C58.77658936 22.33592407 58.77658936 22.33592407 59.07470703 23.60717773 C59.46698486 25.23635132 59.46698486 25.23635132 59.8671875 26.8984375 C60.12387207 27.97665771 60.38055664 29.05487793 60.64501953 30.16577148 C62.02012337 34.9562365 64.15036221 37.21060805 68.234375 39.90234375 C68.976875 40.29421875 69.719375 40.68609375 70.484375 41.08984375 C69.3274633 43.9295361 68.31149415 45.23834461 65.93774414 47.27734375 C62.80771585 50.86555411 62.882207 52.69716107 62.91796875 57.40234375 C62.91233414 58.09368408 62.90669952 58.78502441 62.90089417 59.49731445 C62.88450189 61.6955228 62.89993221 63.89170689 62.921875 66.08984375 C62.9385115 68.28779043 62.94751121 70.48440488 62.93214417 72.68237305 C62.9186529 74.67623372 62.93402022 76.67022787 62.95092773 78.6640625 C62.40726191 82.65606608 61.29746441 84.26660588 58.484375 87.08984375 C55.28019779 88.69193235 51.96098068 88.5826959 48.484375 88.08984375 C45.04124786 85.96536105 43.76819953 84.94131734 42.484375 81.08984375 C42.18305391 75.59064582 42.12829139 70.09208647 42.0793457 64.58544922 C42.05778098 62.76201419 42.02369581 60.93868226 41.97680664 59.11572266 C41.90959225 56.47642155 41.88231411 53.83925651 41.86328125 51.19921875 C41.83545059 50.39168152 41.80761993 49.58414429 41.77894592 48.75213623 C41.79869437 43.26715785 43.11402064 40.4940046 46.91294861 36.53887939 C49.01752712 34.59821626 51.17799872 32.78570867 53.484375 31.08984375 C40.09056644 26.32627196 25.54012082 26.55951415 11.484375 26.08984375 C11.34322266 27.44142578 11.34322266 27.44142578 11.19921875 28.8203125 C10.42209049 32.3747188 9.49577358 33.78034216 7.046875 36.40234375 C6.42941406 37.07910156 5.81195313 37.75585938 5.17578125 38.453125 C3.484375 40.08984375 3.484375 40.08984375 1.484375 41.08984375 C1.4750293 42.2701416 1.46568359 43.45043945 1.45605469 44.66650391 C1.41606852 49.06141373 1.35028585 53.45562988 1.27685547 57.85009766 C1.2486958 59.74909529 1.22745642 61.64820905 1.21337891 63.54736328 C1.19187982 66.28348013 1.14519492 69.01820827 1.09375 71.75390625 C1.09190704 73.01988144 1.09190704 73.01988144 1.09002686 74.31143188 C0.95433757 79.81904472 0.05844224 82.84428002 -3.515625 87.08984375 C-5.77546609 88.2197643 -7.31288987 88.38784331 -9.828125 88.52734375 C-10.58738281 88.58792969 -11.34664062 88.64851563 -12.12890625 88.7109375 C-15.13942125 87.92751379 -16.54165244 86.39139996 -18.45314026 83.99421692 C-20.47554802 80.36929985 -20.12464944 76.58633162 -20.00390625 72.53515625 C-19.99683151 71.63360809 -19.98975677 70.73205994 -19.98246765 69.80319214 C-19.95460392 66.93954515 -19.891882 64.07789405 -19.828125 61.21484375 C-19.80303169 59.26695543 -19.78022033 57.3190363 -19.75976562 55.37109375 C-19.70480368 50.60991465 -19.61858795 45.85021692 -19.515625 41.08984375 C-20.6917334 40.65176392 -20.6917334 40.65176392 -21.89160156 40.20483398 C-24.86480356 38.9414721 -26.19964509 37.60683759 -28.265625 35.15234375 C-28.85859375 34.46269531 -29.4515625 33.77304687 -30.0625 33.0625 C-33.84279822 27.93064354 -33.01836498 21.15145149 -32.515625 15.08984375 C-30.85718681 8.89567701 -26.81890056 4.55185732 -21.515625 1.08984375 C-15.12317611 -2.07376616 -6.70902384 -2.42733316 0 0 Z " fill="#3FE9DD" transform="translate(211.515625,0.91015625)"/>
<path d="M0 0 C0.82638977 -0.00807175 1.65277954 -0.01614349 2.50421143 -0.02445984 C4.25604148 -0.03830246 6.00789852 -0.04902382 7.75976562 -0.05688477 C10.42891196 -0.07406292 13.09680831 -0.11794164 15.765625 -0.16210938 C17.4687409 -0.17223957 19.17186733 -0.18075465 20.875 -0.1875 C21.66896179 -0.20500809 22.46292358 -0.22251617 23.28094482 -0.24055481 C29.57639834 -0.21612416 32.98338573 1.83012376 37.71484375 6.01953125 C38.54435547 6.8703125 38.54435547 6.8703125 39.390625 7.73828125 C39.95136719 8.30546875 40.51210938 8.87265625 41.08984375 9.45703125 C42.703125 11.23828125 42.703125 11.23828125 44.0546875 13.42578125 C45.60140923 15.49701236 45.60140923 15.49701236 48.33984375 15.70703125 C49.34660156 15.71734375 50.35335937 15.72765625 51.390625 15.73828125 C58.92111183 16.15613697 63.87008492 17.952333 69.015625 23.55078125 C73.13665323 28.83962129 75.38557861 34.0958723 75.109375 40.83984375 C73.99977124 47.39077364 70.9335246 52.66689065 65.703125 56.73828125 C59.40857284 60.88004977 54.24612739 62.13790539 46.703125 61.23828125 C40.13484985 59.37844707 35.40629683 54.86309901 31.703125 49.23828125 C29.17294496 43.40254342 29.78453485 38.2180665 30.21875 31.9921875 C29.64506619 27.81559549 28.96806646 25.60790853 26.06591797 22.57104492 C20.56947772 19.47070732 13.28718439 20.46357336 7.140625 20.61328125 C4.87798884 20.65765139 2.61734948 20.69135055 0.35426331 20.69473267 C-1.69577086 20.69900015 -3.74561801 20.74177431 -5.79516602 20.78662109 C-10.16720733 20.10199411 -11.56146074 18.62972293 -14.296875 15.23828125 C-15.74835403 12.3353232 -15.66926525 10.46566346 -15.296875 7.23828125 C-11.17984744 0.58651657 -7.36334495 0.06781615 0 0 Z " fill="#AE7AFC" transform="translate(299.296875,223.76171875)"/>
<path d="M0 0 C0.75023437 -0.03996094 1.50046875 -0.07992187 2.2734375 -0.12109375 C5.94727201 0.75159451 7.30213923 2.49527273 9.625 5.4375 C10.37477913 8.49546752 10.37364555 11.47534878 10.359375 14.61328125 C10.36890198 15.49727097 10.37842896 16.38126068 10.38824463 17.29203796 C10.40038513 19.1587639 10.3995938 21.02561297 10.38671875 22.89233398 C10.37507434 25.73187193 10.42720798 28.56541241 10.484375 31.40429688 C10.59683574 46.55157831 10.59683574 46.55157831 6.35546875 51.51953125 C4.43798828 53.17358398 4.43798828 53.17358398 2.625 54.4375 C1.42037109 55.40816406 1.42037109 55.40816406 0.19140625 56.3984375 C-0.46988281 56.86507812 -1.13117188 57.33171875 -1.8125 57.8125 C-4.71598746 60.23052417 -4.71598746 60.23052417 -5.703125 63.74609375 C-5.60812676 65.43759023 -5.49034073 67.12793783 -5.3515625 68.81640625 C-5.40154392 74.40599533 -8.41771035 79.23441119 -12.0546875 83.328125 C-17.68499676 88.48298592 -23.30491114 89.94595067 -30.85546875 89.7421875 C-38.06068379 88.87085917 -42.52952703 84.87735255 -46.96484375 79.37109375 C-50.86796763 74.01916488 -50.96784888 68.88967199 -50.375 62.4375 C-49.27191749 55.85497502 -45.66814803 52.36389229 -40.7265625 48.1015625 C-36.68553816 45.2419672 -33.30941476 44.16518975 -28.375 44.25 C-27.50230469 44.25902344 -26.62960938 44.26804687 -25.73046875 44.27734375 C-23.375 44.4375 -23.375 44.4375 -20.6875 45.3125 C-17.16510438 45.50289976 -15.48529194 44.07821943 -12.90112305 41.78222656 C-9.49317683 36.54627783 -10.5139113 29.44004152 -10.625 23.375 C-10.6438115 21.18394223 -10.65246677 18.99375513 -10.64471436 16.80262756 C-10.64082604 14.81748511 -10.66771975 12.83235278 -10.69628906 10.84741211 C-10.34839677 7.15515401 -9.62003369 5.35335396 -7.375 2.4375 C-4.35292605 0.42278403 -3.45773301 0.10030966 0 0 Z " fill="#AD7AFC" transform="translate(139.375,254.5625)"/>
<path d="M0 0 C5.93341876 3.26548689 7.31650771 8.91964425 9.50390625 14.94140625 C10.11165138 16.55848732 10.11165138 16.55848732 10.73167419 18.20823669 C12.02300076 21.65448673 13.29292451 25.10818564 14.5625 28.5625 C15.41983445 30.86054491 16.27854412 33.15807726 17.13867188 35.45507812 C19.08746706 40.67095522 21.02592647 45.89039275 22.94119263 51.11868286 C23.66821288 53.09711252 24.40273297 55.0727974 25.14352417 57.04611206 C25.68724167 58.50623215 25.68724167 58.50623215 26.24194336 59.99584961 C26.73095375 61.29805702 26.73095375 61.29805702 27.22984314 62.62657166 C28.30332928 65.934784 28.56037636 68.5676948 28 72 C26.375 74.4375 26.375 74.4375 24 76 C21 76.4375 21 76.4375 18 76 C14 73 14 73 10 62 C1.09 61.67 -7.82 61.34 -17 61 C-17.99 64.3 -18.98 67.6 -20 71 C-21.75 74.125 -21.75 74.125 -24 76 C-27.96569988 76.63734462 -30.03280512 76.61999672 -33.4375 74.4375 C-35.49694309 71.22476879 -35.49181121 68.67549666 -35 65 C-33.98622535 61.4289921 -32.64168046 58.01091183 -31.2734375 54.5625 C-30.88813873 53.56476563 -30.50283997 52.56703125 -30.10586548 51.5390625 C-28.87317818 48.35500073 -27.62431336 45.17756989 -26.375 42 C-25.5575362 39.89494162 -24.7411198 37.78947619 -23.92578125 35.68359375 C-22.35169882 31.62401328 -20.76511435 27.56970582 -19.16699219 23.51953125 C-17.82207037 20.11006864 -16.50152097 16.69393094 -15.21582031 13.26171875 C-14.94959869 12.56304687 -14.68337708 11.864375 -14.40908813 11.14453125 C-13.72313012 9.34265867 -13.0478254 7.53674001 -12.37353516 5.73046875 C-9.54197815 0.10157902 -6.09537344 -0.74855463 0 0 Z " fill="#30CEE2" transform="translate(188,133)"/>
<path d="M0 0 C3.44996778 0.79999253 5.06552996 2.75592995 7.15625 5.5 C8.81814892 8.82379783 8.22773866 12.54745175 8.19140625 16.19921875 C8.19512094 17.98372971 8.20105159 19.76823718 8.20898438 21.55273438 C8.2195218 24.36671764 8.21887748 27.17817296 8.18041992 29.99194336 C7.61344065 40.56113295 7.61344065 40.56113295 10.92919922 50.21630859 C12.92592902 51.92605079 14.90495266 53.16439694 17.15625 54.5 C20.67152457 60.21232117 20.9767591 65.96422059 20.15625 72.5 C18.31386736 79.13952988 13.73043799 83.65931181 8.15625 87.5 C2.37738877 90.29622318 -3.94519913 90.61482533 -10.125 88.84765625 C-16.58438271 85.95335592 -20.97995408 81.04644011 -23.71875 74.5625 C-25.77576706 68.10644044 -25.51902968 63.40988318 -22.71875 57.3125 C-20.3477257 52.92846931 -17.98176403 50.25867602 -13.84375 47.5 C-13.18375 47.5 -12.52375 47.5 -11.84375 47.5 C-11.86993408 46.25387939 -11.89611816 45.00775879 -11.9230957 43.72387695 C-12.0137156 39.09287529 -12.07104228 34.4619517 -12.1184082 29.83032227 C-12.1435255 27.82725844 -12.17762595 25.82428602 -12.22094727 23.8215332 C-12.28172188 20.93938634 -12.30998732 18.05845279 -12.33203125 15.17578125 C-12.35783768 14.28288895 -12.3836441 13.38999664 -12.41023254 12.470047 C-12.41226115 7.95526661 -12.31766168 6.10793066 -9.45581055 2.43676758 C-6.01949717 -0.11115971 -4.13998649 -0.22079928 0 0 Z " fill="#40E9DD" transform="translate(203.84375,254.5)"/>
<path d="M0 0 C5.2036647 3.09794445 9.07078303 7.79701397 12.0625 13 C13.75571629 20.52540575 12.49625599 26.86818264 8.625 33.5 C4.12386742 38.60253652 -0.54640846 41.98423119 -7.390625 42.90625 C-14.36339475 43.10835927 -18.82234896 42.49784252 -24.47265625 38.30078125 C-26.375 36.5 -26.375 36.5 -27.93579102 33.9206543 C-31.0168299 30.8630524 -32.58169757 30.92810544 -36.7729187 30.90930176 C-37.6084024 30.92891968 -38.44388611 30.9485376 -39.3046875 30.96875 C-40.60661545 30.96385559 -40.60661545 30.96385559 -41.93484497 30.9588623 C-45.64112956 30.94570986 -49.34620803 30.99039357 -53.05224609 31.02978516 C-55.76176779 31.05030822 -58.47013467 31.04141376 -61.1796875 31.03125 C-62.01112274 31.05086792 -62.84255798 31.07048584 -63.69918823 31.09069824 C-67.9006366 31.07199959 -70.55888317 30.78491235 -73.88720703 28.09179688 C-76.54451763 25.32339557 -77.24275883 24.46976856 -77.75 20.75 C-77.2278401 16.2246142 -75.53270622 14.7328897 -72.375 11.5 C-69.04336047 9.83418023 -65.30234388 10.40697234 -61.640625 10.4296875 C-59.85155278 10.42110071 -58.06248882 10.41062384 -56.2734375 10.3984375 C-53.45087016 10.38175914 -50.63014134 10.37495367 -47.80761719 10.40039062 C-45.08413968 10.42140659 -42.36394674 10.39807519 -39.640625 10.3671875 C-38.38406097 10.39327591 -38.38406097 10.39327591 -37.10211182 10.41989136 C-33.6126135 10.3484052 -31.2969426 10.28359809 -28.57434082 7.96954346 C-26.97860252 6.14073762 -26.97860252 6.14073762 -25.66082764 4.23880005 C-19.95988591 -3.4704741 -8.19750535 -3.57941754 0 0 Z " fill="#40E9DD" transform="translate(361.375,151.5)"/>
<path d="M0 0 C4.56613335 3.52800712 7.39203514 8.27766793 9.19921875 13.69921875 C10.10591711 21.60044732 9.08621237 27.35231312 4.19921875 33.69921875 C-0.19447172 38.68164193 -5.2412219 41.55267392 -11.80078125 42.69921875 C-18.00704132 42.95296703 -23.77596887 41.39113353 -28.80078125 37.69921875 C-33.89502608 32.40165595 -36.51941477 27.18816309 -37.11328125 19.82421875 C-36.855096 12.27947186 -33.80295519 6.82820843 -28.671875 1.3984375 C-20.725278 -5.81820069 -8.90348917 -5.00373224 0 0 Z " fill="#AD78FD" transform="translate(65.80078125,62.30078125)"/>
<path d="M0 0 C5.73249959 2.56745155 9.95401653 7.08086448 12.66015625 12.70703125 C14.48129418 18.26933035 14.54826546 24.41001501 12.61328125 29.94921875 C9.13739573 36.62157777 4.20443895 40.90202198 -2.4765625 44.34375 C-9.14430998 45.29140681 -15.86906801 45.18430169 -21.76171875 41.68359375 C-26.57090077 37.92607796 -30.60971644 33.11746329 -31.99609375 27.08203125 C-32.87378516 19.81474639 -32.16022921 14.21039322 -27.92578125 8.109375 C-20.56464335 -0.83497881 -11.25009561 -2.98109789 0 0 Z " fill="#FDF056" transform="translate(120.4765625,0.65625)"/>
<path d="M0 0 C5.19677976 3.14483239 8.34620242 8.03506882 10.875 13.4375 C12.54045054 21.59820765 11.58609904 26.78361247 7.28125 34.04296875 C4.70504447 37.5965505 2.3255343 39.34378976 -1.5 41.5 C-2.263125 41.933125 -3.02625 42.36625 -3.8125 42.8125 C-11.39762052 44.75287967 -17.5057761 43.81187669 -24.3046875 39.96484375 C-30.79897273 35.63146837 -32.4613373 30.908124 -34.05078125 23.45703125 C-35.15104123 16.21445034 -33.44147678 11.41540031 -29.1875 5.484375 C-22.29866809 -2.61638105 -9.60175888 -4.23223158 0 0 Z " fill="#AD79FC" transform="translate(303.5,1.5)"/>
<path d="M0 0 C5.88459882 3.25688488 8.94805478 7.72373597 12.125 13.5 C13.99081822 20.9632729 12.59188479 27.41849821 8.75 34 C4.42411947 38.90386874 -0.20188712 42.40926156 -6.79296875 43.37109375 C-13.91874158 43.55002748 -19.4987934 42.38378685 -25.25 38 C-30.94918932 31.28144349 -32.6708531 26.0678634 -32.59375 17.3359375 C-31.95431739 11.13053469 -28.85257258 7.24840925 -24.3125 3.1875 C-16.27488497 -2.55365359 -9.23923877 -4.1186968 0 0 Z " fill="#FBEF57" transform="translate(361.25,61)"/>
<path d="M0 0 C5.60729239 2.82374402 9.89837146 7.57609911 12.1875 13.4375 C13.03666871 20.45130697 13.47622149 27.47779347 9.5625 33.625 C5.08251687 39.20661832 0.1921264 41.98826695 -6.8125 43.4375 C-13.15439339 44.04148985 -17.5847905 43.19393796 -22.8125 39.4375 C-27.28893915 35.14574694 -31.4273644 30.82311066 -32.1484375 24.484375 C-32.22895567 17.68864105 -32.26847513 11.87131412 -27.8125 6.4375 C-19.58663668 -1.09725596 -10.86462776 -4.29060724 0 0 Z " fill="#FBEF57" transform="translate(61.8125,241.5625)"/>
<path d="M0 0 C4.50334071 3.23992499 7.52260466 7.39203273 9.26953125 12.6328125 C9.92759384 21.28886662 9.2693906 27.02588564 4.51953125 34.3203125 C-0.45177649 39.42971212 -6.30588121 41.69142587 -13.35546875 42.0703125 C-19.59216572 41.99661446 -23.95468461 39.50255249 -28.73046875 35.6328125 C-34.46780545 29.51386396 -35.10832176 23.76646459 -35 15.671875 C-34.51984588 10.25796332 -32.83214386 6.59847106 -28.859375 2.8828125 C-19.64293285 -4.36490004 -10.5089539 -5.79233679 0 0 Z " fill="#FDF058" transform="translate(304.73046875,302.3671875)"/>
<path d="M0 0 C2.66666667 1.33333333 5.33333333 2.66666667 8 4 C9.32 3.01 10.64 2.02 12 1 C11.690625 1.598125 11.38125 2.19625 11.0625 2.8125 C9.89790296 5.08956772 9.89790296 5.08956772 9 8 C10.36934692 8.02187378 10.36934692 8.02187378 11.76635742 8.04418945 C15.16798611 8.10540795 18.56882681 8.17958873 21.9699707 8.26245117 C23.43926422 8.29561259 24.90868244 8.32367178 26.37817383 8.34643555 C28.49614368 8.38014519 30.61297995 8.43246433 32.73046875 8.48828125 C34.00301514 8.51446533 35.27556152 8.54064941 36.58666992 8.56762695 C40.21841975 9.02766765 42.10957691 9.79552818 45 12 C47.51250583 15.76875875 47.53016086 17.53150134 47 22 C45.21847933 24.97361628 43.14692775 27.42653612 40 29 C37.23777828 29.13565066 34.50204043 29.21272718 31.73828125 29.23828125 C30.5022541 29.25038887 30.5022541 29.25038887 29.24125671 29.26274109 C27.49362289 29.27658523 25.74596199 29.28730591 23.99829102 29.29516602 C21.3401261 29.3123217 18.6832237 29.35619628 16.02539062 29.40039062 C14.32552996 29.41052286 12.62565873 29.4190373 10.92578125 29.42578125 C10.13698074 29.44328934 9.34818024 29.46079742 8.53547668 29.47883606 C2.90634573 29.45698901 -0.32218611 28.13756283 -5 25 C-5.28302979 25.72598389 -5.56605957 26.45196777 -5.85766602 27.19995117 C-6.91311168 29.7870224 -8.05818699 32.28754747 -9.27734375 34.80078125 C-9.70853516 35.69603516 -10.13972656 36.59128906 -10.58398438 37.51367188 C-11.48099497 39.36852927 -12.37941594 41.22270532 -13.27929688 43.07617188 C-15.26491143 47.2042379 -17.11977818 51.22460826 -18.54296875 55.58203125 C-20 59 -20 59 -22.0859375 60.1484375 C-22.84132813 60.22320312 -23.59671875 60.29796875 -24.375 60.375 C-27.89487824 60.79835305 -30.73595098 61.58134972 -34 63 C-26.95935382 48.12663494 -17.79169535 35.17559007 -8 22 C-8.42152344 21.52949219 -8.84304687 21.05898437 -9.27734375 20.57421875 C-9.82519531 19.95160156 -10.37304688 19.32898438 -10.9375 18.6875 C-11.48277344 18.07261719 -12.02804688 17.45773438 -12.58984375 16.82421875 C-14 15 -14 15 -15 12 C-14.40832031 11.78085938 -13.81664063 11.56171875 -13.20703125 11.3359375 C-6.9144633 8.81069816 -3.10997938 6.21995876 0 0 Z " fill="#1F8DF1" transform="translate(72,91)"/>
<path d="M0 0 C1.17948463 0.00212242 1.17948463 0.00212242 2.38279724 0.00428772 C4.8581039 0.00981953 7.33331512 0.0223585 9.80859375 0.03515625 C11.50195181 0.04018009 13.1953113 0.04474144 14.88867188 0.04882812 C19.00784845 0.05976647 23.126955 0.07698263 27.24609375 0.09765625 C27.44090332 0.92837646 27.63571289 1.75909668 27.83642578 2.61499023 C28.22870361 4.24416382 28.22870361 4.24416382 28.62890625 5.90625 C28.88559082 6.98447021 29.14227539 8.06269043 29.40673828 9.17358398 C30.78184212 13.964049 32.91208096 16.21842055 36.99609375 18.91015625 C37.73859375 19.30203125 38.48109375 19.69390625 39.24609375 20.09765625 C38.08918205 22.9373486 37.0732129 24.24615711 34.69946289 26.28515625 C31.5694346 29.87336661 31.64392575 31.70497357 31.6796875 36.41015625 C31.67123558 37.44716675 31.67123558 37.44716675 31.66261292 38.50512695 C31.64622064 40.7033353 31.66165096 42.89951939 31.68359375 45.09765625 C31.70023025 47.29560293 31.70922996 49.49221738 31.69386292 51.69018555 C31.68037165 53.68404622 31.69573897 55.67804037 31.71264648 57.671875 C31.16898066 61.66387858 30.05918316 63.27441838 27.24609375 66.09765625 C24.04191654 67.69974485 20.72269943 67.5905084 17.24609375 67.09765625 C13.80296661 64.97317355 12.52991828 63.94912984 11.24609375 60.09765625 C10.94477266 54.59845832 10.89001014 49.09989897 10.84106445 43.59326172 C10.81949973 41.76982669 10.78541456 39.94649476 10.73852539 38.12353516 C10.671311 35.48423405 10.64403286 32.84706901 10.625 30.20703125 C10.59716934 29.39949402 10.56933868 28.59195679 10.54066467 27.75994873 C10.56041312 22.27497035 11.87573939 19.5018171 15.67466736 15.54669189 C17.77924587 13.60602876 19.93971747 11.79352117 22.24609375 10.09765625 C9.1691902 5.43986199 -5.02458587 5.5811107 -18.75390625 5.09765625 C-18.42390625 3.77765625 -18.09390625 2.45765625 -17.75390625 1.09765625 C-11.79139853 0.35266501 -6.00462949 -0.04182378 0 0 Z " fill="#1F8DF1" transform="translate(242.75390625,21.90234375)"/>
<path d="M0 0 C3.57829108 1.55253 6.1689217 3.71569896 9.0625 6.3125 C10.34833984 7.45138672 10.34833984 7.45138672 11.66015625 8.61328125 C16.06691605 13.10832338 17.34806353 16.35424248 17.31567383 22.53686523 C17.29400146 23.37032471 17.2723291 24.20378418 17.25 25.0625 C17.23541748 25.93140869 17.22083496 26.80031738 17.20581055 27.69555664 C17.16977045 29.52800652 17.12556938 31.3603118 17.07373047 33.19238281 C17.00024887 35.99052298 16.96944464 38.78701791 16.94140625 41.5859375 C16.90103386 43.36985232 16.85814908 45.15371241 16.8125 46.9375 C16.80428223 48.18768921 16.80428223 48.18768921 16.79589844 49.46313477 C16.63388301 53.79615737 16.38175741 55.52048112 13.59179688 59.02490234 C10.17386733 61.62956041 8.31053966 61.72457968 4.15625 61.49609375 C0.67250002 60.69457881 -0.91918221 58.7960989 -3 56 C-4.14124826 52.57625521 -4.07815289 49.99845572 -4.03515625 46.390625 C-4.04407051 44.37402142 -4.0530212 42.35741774 -4.06323242 40.34082031 C-4.06274663 38.95404052 -4.04985269 37.5672061 -4.02416992 36.18066406 C-3.67692004 27.86513391 -3.67692004 27.86513391 -6.84326172 20.48632812 C-8.81823581 18.75730077 -10.7319998 17.31442753 -13 16 C-11.0953467 14.02752522 -9.2848741 12.46745943 -7.0625 10.8125 C-3.44618154 7.87255033 -1.78402706 4.22919355 0 0 Z " fill="#1F8EF1" transform="translate(133,28)"/>
<path d="M0 0 C0.82638977 -0.00807175 1.65277954 -0.01614349 2.50421143 -0.02445984 C4.25604148 -0.03830246 6.00789852 -0.04902382 7.75976562 -0.05688477 C10.42891196 -0.07406292 13.09680831 -0.11794164 15.765625 -0.16210938 C17.4687409 -0.17223957 19.17186733 -0.18075465 20.875 -0.1875 C21.66896179 -0.20500809 22.46292358 -0.22251617 23.28094482 -0.24055481 C29.55666759 -0.21620073 32.92216371 1.83104599 37.6796875 5.94921875 C41.1922811 9.49510708 44.10265129 12.97350436 46.703125 17.23828125 C46.03925781 17.51800781 45.37539063 17.79773438 44.69140625 18.0859375 C38.46147398 20.9144177 35.17963223 23.32821896 31.703125 29.23828125 C30.55386234 28.28406317 29.40881959 27.3247608 28.265625 26.36328125 C27.62753906 25.82960937 26.98945313 25.2959375 26.33203125 24.74609375 C24.703125 23.23828125 24.703125 23.23828125 23.703125 21.23828125 C22.72964111 21.23417236 21.75615723 21.23006348 20.75317383 21.22583008 C17.12780421 21.2039934 13.50351298 21.14965909 9.87866211 21.08569336 C8.31236131 21.06255243 6.74590578 21.04812677 5.17944336 21.04272461 C2.92203797 21.03340537 0.66705279 20.99235892 -1.58984375 20.9453125 C-2.63388618 20.95121147 -2.63388618 20.95121147 -3.69902039 20.95722961 C-7.58512488 20.84162413 -9.18327619 20.33242281 -12.21606445 17.8190918 C-14.43309372 15.0693304 -15.19972679 13.95070148 -15.671875 10.48828125 C-15.1497151 5.96289545 -13.45458122 4.47117095 -10.296875 1.23828125 C-7.07242946 -0.37394152 -3.54435605 0.03264339 0 0 Z " fill="#218EF2" transform="translate(299.296875,223.76171875)"/>
<path d="M0 0 C2.15347223 2.15347223 4.27122006 4.30054115 6.3125 6.5625 C9.45944096 9.41670226 12.04848058 10.52786531 16 12 C5.80169563 26.38222411 5.80169563 26.38222411 -1 29 C-3.86328964 29.22803836 -6.6273012 29.35168889 -9.4921875 29.37109375 C-10.72752731 29.38463646 -10.72752731 29.38463646 -11.98782349 29.39845276 C-13.72768529 29.41293874 -15.46760136 29.42183789 -17.20751953 29.42553711 C-19.85933919 29.43742977 -22.50882768 29.4866243 -25.16015625 29.53710938 C-26.85415536 29.5465749 -28.5481687 29.55380932 -30.2421875 29.55859375 C-31.02987518 29.57812607 -31.81756287 29.59765839 -32.62911987 29.61778259 C-36.72319865 29.58449134 -39.25057055 29.20816546 -42.49047852 26.59399414 C-45.50855619 23.47432537 -45.94893446 22.07550815 -46.17578125 17.9296875 C-45.90838929 14.99431804 -44.85267389 13.24967544 -43 11 C-39.39720941 8.5981396 -36.88094883 8.78512002 -32.734375 8.8671875 C-31.27213332 8.86638045 -29.80989171 8.86371677 -28.34765625 8.859375 C-26.05157758 8.86133453 -23.75804593 8.87483857 -21.46240234 8.92089844 C-12.475459 9.35058183 -12.475459 9.35058183 -4.39257812 6.16113281 C-2.66162635 4.18352477 -1.26114175 2.30076689 0 0 Z " fill="#218FF1" transform="translate(330,91)"/>
<path d="M0 0 C1.2317823 -0.01710022 1.2317823 -0.01710022 2.4884491 -0.0345459 C4.22409949 -0.05340931 5.95982091 -0.06649937 7.69555664 -0.07421875 C10.33673613 -0.09361245 12.97478653 -0.15566511 15.61523438 -0.21875 C17.3059712 -0.23181401 18.99673018 -0.24231341 20.6875 -0.25 C21.4700264 -0.2746936 22.2525528 -0.29938721 23.05879211 -0.3248291 C28.4610712 -0.28144169 31.27117872 1.1534358 35.26200867 4.7689209 C36.54296875 6.40625 36.54296875 6.40625 37.16796875 9.96875 C36.51744901 13.54660856 35.80680574 15.57645376 33.54296875 18.40625 C29.99030026 20.79280304 26.81542019 20.61892457 22.6171875 20.57421875 C21.249342 20.57989798 19.88150216 20.58710797 18.51367188 20.59570312 C16.37371299 20.5998679 14.23567425 20.59383038 12.09594727 20.56079102 C3.68831414 20.22084187 3.68831414 20.22084187 -3.99755859 23.01806641 C-5.71028548 24.72993111 -7.13659684 26.38101357 -8.45703125 28.40625 C-11.45703125 27.40625 -11.45703125 27.40625 -13.64453125 24.59375 C-16.57160116 20.86757205 -20.15972964 19.2190075 -24.45703125 17.40625 C-22.83829734 13.56857748 -20.36716725 10.84737895 -17.58203125 7.78125 C-16.71835938 6.81960937 -15.8546875 5.85796875 -14.96484375 4.8671875 C-10.30111301 0.29062929 -6.38197787 0.06878686 0 0 Z " fill="#1F8EF1" transform="translate(82.45703125,223.59375)"/>
<path d="M0 0 C2.9375 2.4375 2.9375 2.4375 5 5 C5.33 5.33 5.66 5.66 6 6 C6.07317402 8.28280195 6.08428237 10.5676308 6.0703125 12.8515625 C6.07890476 14.27475177 6.08938367 15.69793066 6.1015625 17.12109375 C6.11819157 19.36650749 6.12517507 21.60962383 6.09960938 23.85498047 C5.75233128 32.56456568 5.75233128 32.56456568 8.61621094 40.51464844 C10.48357904 42.41089829 10.48357904 42.41089829 12.49951172 43.84912109 C13.24225342 44.41880615 13.24225342 44.41880615 14 45 C14 45.66 14 46.32 14 47 C12.948125 47.680625 11.89625 48.36125 10.8125 49.0625 C6.29399231 52.11157429 4.28651495 56.16354672 2 61 C0.33705428 59.57461795 -1.32524157 58.1485723 -2.984375 56.71875 C-4.29556391 55.60068194 -5.61804354 54.49567647 -6.953125 53.40625 C-7.56671875 52.9009375 -8.1803125 52.395625 -8.8125 51.875 C-9.37582031 51.41867187 -9.93914062 50.96234375 -10.51953125 50.4921875 C-14.59368825 46.38578124 -14.32094746 41.75481074 -14.3359375 36.25390625 C-14.3425943 35.40577866 -14.3492511 34.55765106 -14.35610962 33.68382263 C-14.36622022 31.89267135 -14.37092713 30.10148252 -14.37060547 28.31030273 C-14.37497941 25.57537618 -14.41131624 22.84206313 -14.44921875 20.10742188 C-14.45508718 18.36458884 -14.4590564 16.62174815 -14.4609375 14.87890625 C-14.47530853 14.0641835 -14.48967957 13.24946075 -14.50448608 12.41004944 C-14.47242654 8.41113321 -14.29627693 6.46569202 -12.09619141 3.00756836 C-8.50541435 -0.43139737 -4.83129532 -0.86074802 0 0 Z " fill="#1F8EF1" transform="translate(268,255)"/>
<path d="M0 0 C0.75023437 -0.03996094 1.50046875 -0.07992187 2.2734375 -0.12109375 C5.94727201 0.75159451 7.30213923 2.49527273 9.625 5.4375 C10.37477913 8.49546752 10.37364555 11.47534878 10.359375 14.61328125 C10.36890198 15.49727097 10.37842896 16.38126068 10.38824463 17.29203796 C10.40038513 19.1587639 10.3995938 21.02561297 10.38671875 22.89233398 C10.37507434 25.73187193 10.42720798 28.56541241 10.484375 31.40429688 C10.59684847 46.55245469 10.59684847 46.55245469 6.35546875 51.48046875 C4.43798828 53.12963867 4.43798828 53.12963867 2.625 54.4375 C1.82191406 55.200625 1.01882812 55.96375 0.19140625 56.75 C-0.46988281 57.306875 -1.13117188 57.86375 -1.8125 58.4375 C-2.49183594 59.015 -3.17117187 59.5925 -3.87109375 60.1875 C-4.61552734 60.80625 -4.61552734 60.80625 -5.375 61.4375 C-7.12532768 59.14974776 -8.69413609 56.90927475 -10.1875 54.4375 C-12.68030661 51.0187938 -14.77563812 49.56439566 -18.375 47.4375 C-17.2452563 44.56178876 -16.45955286 43.49364952 -13.83056641 41.74780273 C-11.06820218 39.60539776 -11.06820218 39.60539776 -10.76318359 36.12524414 C-10.76656738 34.83739014 -10.76995117 33.54953613 -10.7734375 32.22265625 C-10.76543121 31.52990097 -10.75742493 30.83714569 -10.74917603 30.12339783 C-10.72614452 27.91500012 -10.73554839 25.70844645 -10.75 23.5 C-10.75385618 21.29546921 -10.75033343 19.0917539 -10.72940063 16.88731384 C-10.71181152 14.88466988 -10.71926497 12.88185242 -10.72802734 10.87915039 C-10.34915022 7.18549149 -9.62183965 5.3574699 -7.375 2.4375 C-4.35292605 0.42278403 -3.45773301 0.10030966 0 0 Z " fill="#1F8EF2" transform="translate(139.375,254.5625)"/>
<path d="M0 0 C3.5 0.5625 3.5 0.5625 5.68640137 2.68847656 C7.85567614 6.12614266 8.00636061 8.06879593 8.01757812 12.109375 C8.03018677 13.41422852 8.04279541 14.71908203 8.05578613 16.06347656 C8.0486261 17.47982322 8.04042206 18.89616494 8.03125 20.3125 C8.03394656 21.77311461 8.03783035 23.23372746 8.04284668 24.69433594 C8.04873413 27.75082544 8.04020381 30.80684636 8.02148438 33.86328125 C7.9986944 37.77420349 8.01182165 41.68402768 8.03577423 45.59490967 C8.05025311 48.60962138 8.04561684 51.62407428 8.03526306 54.63879395 C8.03260151 56.08044567 8.03584544 57.52212116 8.04518127 58.96374512 C8.05537923 60.98103362 8.03707028 62.9984049 8.01757812 65.015625 C8.01439575 66.16192383 8.01121338 67.30822266 8.00793457 68.48925781 C7.38685734 72.2470661 6.21281302 73.92466004 3.5 76.5625 C0 77.125 0 77.125 -3.5 76.5625 C-6.45432153 74.37269638 -7.39520585 73.18879678 -8.00793457 69.52685547 C-8.01111694 68.33979004 -8.01429932 67.15272461 -8.01757812 65.9296875 C-8.02809204 64.9435849 -8.02809204 64.9435849 -8.03881836 63.93756104 C-8.05638431 61.77044083 -8.04478235 59.60463284 -8.03125 57.4375 C-8.03394536 55.92822011 -8.03782815 54.41894192 -8.04284668 52.90966797 C-8.04873976 49.74885501 -8.0401855 46.58849466 -8.02148438 43.42773438 C-7.99869419 39.37881443 -8.0118184 35.33095502 -8.03577423 31.28207397 C-8.05023778 28.16617867 -8.04562383 25.05053426 -8.03526306 21.93463135 C-8.03259728 20.4419136 -8.03586038 18.94917296 -8.04518127 17.45648193 C-8.05535695 15.36881296 -8.03983569 13.28285426 -8.01757812 11.1953125 C-8.01439575 10.00824707 -8.01121338 8.82118164 -8.00793457 7.59814453 C-7.1609461 2.53616203 -4.96196421 0.79745853 0 0 Z " fill="#41E7DD" transform="translate(233.5,132.4375)"/>
<path d="M0 0 C5.74739758 -0.12377604 11.49401627 -0.21442248 17.24243164 -0.2746582 C19.19699623 -0.29977281 21.15146717 -0.33387131 23.10571289 -0.37719727 C25.91836668 -0.43798434 28.72977702 -0.46623983 31.54296875 -0.48828125 C32.41398727 -0.51408768 33.2850058 -0.5398941 34.18241882 -0.56648254 C38.69501199 -0.56855964 40.4088266 -0.48175509 44.02856445 2.46801758 C44.67913818 3.30357178 45.32971191 4.13912598 46 5 C46.495 5.495 46.495 5.495 47 6 C47.38387346 10.99035504 47.08713243 13.99816167 44 18 C40.93228809 20.04514127 40.34431952 20.24827274 36.89575195 20.22705078 C36.07512772 20.22689972 35.25450348 20.22674866 34.40901184 20.22659302 C33.0870002 20.21110916 33.0870002 20.21110916 31.73828125 20.1953125 C30.83248825 20.1924826 29.92669525 20.18965271 28.99345398 20.18673706 C26.09966842 20.17553964 23.20619206 20.15043589 20.3125 20.125 C18.35091593 20.11496963 16.389327 20.10584388 14.42773438 20.09765625 C9.6183704 20.07560173 4.80923763 20.04107489 0 20 C0.16226074 19.40453369 0.32452148 18.80906738 0.49169922 18.19555664 C1.17417651 15.2476612 1.13187765 12.46022778 1.125 9.4375 C1.12886719 7.73400391 1.12886719 7.73400391 1.1328125 5.99609375 C1.1347228 2.94766002 1.1347228 2.94766002 0 0 Z " fill="#1D8EF1" transform="translate(72,162)"/>
<path d="M0 0 C0.8850119 0.00141495 1.7700238 0.0028299 2.68185425 0.00428772 C5.51449941 0.00989485 8.34706614 0.02244854 11.1796875 0.03515625 C13.09765511 0.04017033 15.01562396 0.0447334 16.93359375 0.04882812 C21.64065532 0.05986659 26.3476581 0.077136 31.0546875 0.09765625 C30.89242676 0.69835937 30.73016602 1.2990625 30.56298828 1.91796875 C29.91766601 4.68522968 29.92258854 7.25807365 29.9296875 10.09765625 C29.92710937 11.12890625 29.92453125 12.16015625 29.921875 13.22265625 C30.03687748 15.71212162 30.41052484 17.71291108 31.0546875 20.09765625 C25.46801786 20.22159261 19.88215467 20.3121538 14.29443359 20.37231445 C12.39520319 20.39740229 10.4960688 20.43148093 8.59716797 20.47485352 C5.86141229 20.53575955 3.1269368 20.56392278 0.390625 20.5859375 C-0.45335846 20.61174393 -1.29734192 20.63755035 -2.16690063 20.66413879 C-6.40424527 20.66613817 -9.1071473 20.40959723 -12.46630859 17.69213867 C-15.11297319 14.92218549 -15.81378787 14.06217023 -16.3203125 10.34765625 C-15.7981526 5.82227045 -14.10301872 4.33054595 -10.9453125 1.09765625 C-7.56138242 -0.59430879 -3.72053459 -0.02220924 0 0 Z " fill="#1E8DF2" transform="translate(299.9453125,161.90234375)"/>
<path d="M0 0 C3.44996778 0.79999253 5.06552996 2.75592995 7.15625 5.5 C8.82202625 8.83155251 8.27632856 12.56536059 8.25390625 16.2265625 C8.2524913 17.08937836 8.25107635 17.95219421 8.24961853 18.84115601 C8.24401188 21.6024723 8.23145827 24.36370812 8.21875 27.125 C8.21373586 28.9947905 8.2091728 30.86458226 8.20507812 32.734375 C8.19404029 37.32294777 8.1767712 41.91146023 8.15625 46.5 C7.38804932 46.33773926 6.61984863 46.17547852 5.82836914 46.00830078 C3.02206477 45.47447477 0.44791931 45.36706073 -2.40625 45.375 C-3.33566406 45.37242187 -4.26507813 45.36984375 -5.22265625 45.3671875 C-7.59661528 45.48747753 -9.56150575 45.88885256 -11.84375 46.5 C-11.96752604 40.75260242 -12.05817248 35.00598373 -12.1184082 29.25756836 C-12.14352281 27.30300377 -12.17762131 25.34853283 -12.22094727 23.39428711 C-12.28173434 20.58163332 -12.30998983 17.77022298 -12.33203125 14.95703125 C-12.35783768 14.08601273 -12.3836441 13.2149942 -12.41023254 12.31758118 C-12.41228696 7.85426103 -12.29655497 6.07826264 -9.45581055 2.45043945 C-6.02068009 -0.11459067 -4.1475115 -0.22120061 0 0 Z " fill="#208FF2" transform="translate(203.84375,254.5)"/>
<path d="M0 0 C0.60593994 0.16226074 1.21187988 0.32452148 1.83618164 0.49169922 C4.42296086 1.09935739 6.78163437 1.13236717 9.4375 1.125 C10.82775391 1.12886719 10.82775391 1.12886719 12.24609375 1.1328125 C14.9319244 1.00328308 17.37447116 0.55456897 20 0 C20.09916726 5.44428237 20.17160909 10.88803448 20.21972656 16.33300781 C20.23979339 18.18368696 20.26705345 20.03430309 20.30175781 21.88476562 C20.35049433 24.55093977 20.37301787 27.21627287 20.390625 29.8828125 C20.41127014 30.70492218 20.43191528 31.52703186 20.45318604 32.37405396 C20.45525694 37.7229908 19.57116884 40.76224619 16 45 C13.74015891 46.12992055 12.20273513 46.29799956 9.6875 46.4375 C8.92824219 46.49808594 8.16898438 46.55867188 7.38671875 46.62109375 C4.37217317 45.83662117 2.97599239 44.29030732 1.06248474 41.89094543 C-0.93851239 38.32969298 -0.61019244 34.65109357 -0.48828125 30.6640625 C-0.47766914 29.34503433 -0.47766914 29.34503433 -0.46684265 27.99935913 C-0.43898536 25.20701897 -0.37626555 22.41672791 -0.3125 19.625 C-0.28740582 17.7252895 -0.26459461 15.82554738 -0.24414062 13.92578125 C-0.18918737 9.28307176 -0.10297692 4.64188257 0 0 Z " fill="#208FF2" transform="translate(192,43)"/>
<path d="M0 0 C1.32 0.66 2.64 1.32 4 2 C3.5153125 2.93457031 3.030625 3.86914062 2.53125 4.83203125 C1.85307371 6.15829586 1.17608996 7.48517063 0.5 8.8125 C0.1383374 9.51648926 -0.2233252 10.22047852 -0.59594727 10.94580078 C-2.6233298 14.97245046 -4.42678026 18.99468571 -5.99609375 23.22265625 C-6.32222656 24.08076904 -6.64835937 24.93888184 -6.984375 25.82299805 C-7.60961684 27.49708947 -8.20585896 29.18236045 -8.76953125 30.87817383 C-9.65497078 33.21787923 -10.43581947 35.0443482 -12 37 C-14.94622712 38.2834912 -17.83306738 38.60303171 -21 39 C-22.68496378 39.61896629 -24.36403971 40.26117922 -26 41 C-18.95935382 26.12663494 -9.79169535 13.17559007 0 0 Z " fill="#1E317B" transform="translate(64,113)"/>
<path d="M0 0 C1.17948463 0.00212242 1.17948463 0.00212242 2.38279724 0.00428772 C4.8581039 0.00981953 7.33331512 0.0223585 9.80859375 0.03515625 C11.50195181 0.04018009 13.1953113 0.04474144 14.88867188 0.04882812 C19.00784845 0.05976647 23.126955 0.07698263 27.24609375 0.09765625 C27.37109375 2.97265625 27.37109375 2.97265625 27.24609375 6.09765625 C25.24609375 8.09765625 25.24609375 8.09765625 21.49609375 8.34765625 C17.59180405 8.26734649 13.85063676 7.77045889 9.99609375 7.16015625 C0.4687066 5.68393472 -9.12995813 5.43654707 -18.75390625 5.09765625 C-18.42390625 3.77765625 -18.09390625 2.45765625 -17.75390625 1.09765625 C-11.79139853 0.35266501 -6.00462949 -0.04182378 0 0 Z " fill="#23347D" transform="translate(242.75390625,21.90234375)"/>
<path d="M0 0 C3.36471316 1.68235658 3.89891532 5.50180051 5.125 8.875 C5.40214844 9.60847656 5.67929688 10.34195313 5.96484375 11.09765625 C7.10553626 14.18258329 8 16.68520367 8 20 C3.05 20 -1.9 20 -7 20 C-4.79757472 13.28260289 -2.44267356 6.63365662 0 0 Z " fill="#965EFC" transform="translate(184,159)"/>
</svg>
