<?xml version="1.0" encoding="UTF-8"?>
<svg version="1.1" xmlns="http://www.w3.org/2000/svg" width="512" height="512">
<path d="M0 0 C0.81088494 -0.00265183 1.62176987 -0.00530365 2.45722708 -0.00803584 C5.19768966 -0.0157475 7.93810757 -0.01628872 10.67858028 -0.01688576 C12.65394758 -0.02089916 14.62931405 -0.02533717 16.60467952 -0.03016531 C22.05135017 -0.04215043 27.49801195 -0.04778375 32.94469321 -0.05234647 C38.81196814 -0.05829525 44.67923244 -0.06990692 50.54650021 -0.08063698 C64.05524888 -0.10401764 77.56400083 -0.11857082 91.07276353 -0.13086639 C96.4129897 -0.13572744 101.75321533 -0.1410534 107.09344096 -0.14648198 C131.27676032 -0.17101643 155.46008071 -0.19209229 179.64340973 -0.20417786 C185.40146608 -0.2070992 191.1595224 -0.21006672 196.9175787 -0.21308327 C197.63294694 -0.21345418 198.34831518 -0.21382509 199.08536125 -0.21420723 C222.27632003 -0.2263612 245.46720288 -0.25730233 268.658126 -0.29900479 C292.49871957 -0.34179731 316.33927304 -0.36841952 340.17990606 -0.37365257 C343.54764795 -0.37439301 346.91538978 -0.37530369 350.2831316 -0.37631035 C350.9459301 -0.37650096 351.6087286 -0.37669158 352.2916119 -0.37688797 C362.29538327 -0.38018321 372.29906732 -0.39757006 382.30280399 -0.42220116 C393.6843993 -0.45017849 405.06585032 -0.46121112 416.44747735 -0.4500057 C422.25529158 -0.44481316 428.06280352 -0.44774495 433.870574 -0.47247124 C439.18864663 -0.49492378 444.50619911 -0.49425454 449.82428061 -0.47526737 C451.7469743 -0.47246178 453.66970295 -0.47809679 455.5923403 -0.4930803 C474.86206493 -0.63405677 474.86206493 -0.63405677 482.16245174 5.13701439 C486.66163803 9.93666572 488.28602852 14.3181719 488.29387951 20.81492138 C488.29772065 22.00503222 488.3015618 23.19514307 488.30551934 24.42131788 C488.30465286 25.7353 488.30378638 27.04928213 488.30289364 28.40308189 C488.30547665 29.80795266 488.30848963 31.21282269 488.31189704 32.6176917 C488.31997779 36.48727032 488.32175721 40.35683041 488.32249451 44.22641647 C488.32434319 48.39625668 488.33188956 52.56608722 488.33862972 56.73592186 C488.352221 65.85775566 488.35823894 74.97958507 488.36264038 84.10142732 C488.36540135 89.79497893 488.36963842 95.48852885 488.37414455 101.18207932 C488.38633804 116.93977597 488.39663734 132.69747126 488.40001965 148.45517254 C488.40023921 149.46401324 488.40045878 150.47285394 488.400685 151.51226557 C488.40090328 152.52354578 488.40112155 153.53482599 488.40134645 154.57675105 C488.40178991 156.62605433 488.40223648 158.6753576 488.40268612 160.72466087 C488.40290755 161.74119014 488.40312898 162.75771941 488.40335712 163.8050526 C488.40730611 180.28077158 488.42476287 196.75644636 488.44804564 213.23214827 C488.47174597 230.13951952 488.48422089 247.04686858 488.48538756 263.95425671 C488.48630504 273.450369 488.49207573 282.9464237 488.51020718 292.44252014 C488.52559035 300.52784945 488.53073917 308.61310337 488.52246907 316.69844452 C488.51855629 320.82473345 488.5195227 324.95087047 488.53352642 329.07714081 C488.54622773 332.85413729 488.54510124 336.63086713 488.53293571 340.40786304 C488.53004151 342.42241283 488.54194297 344.43696707 488.55435777 346.45148069 C488.54776792 347.64941477 488.54117808 348.84734886 488.53438854 350.08158398 C488.53528417 351.62954276 488.53528417 351.62954276 488.5361979 353.20877343 C487.76243476 359.27108307 484.64572988 363.18745984 480.16245174 367.13701439 C475.85327873 370.07986425 472.29814453 371.26291312 467.10949993 371.26006222 C466.30732155 371.26205327 465.50514316 371.26404431 464.67865634 371.2660957 C463.80317149 371.26318286 462.92768665 371.26027002 462.02567196 371.25726891 C460.6239705 371.25855054 460.6239705 371.25855054 459.19395185 371.25985807 C456.05550276 371.26150821 452.91710686 371.25599907 449.77866268 371.25053978 C447.53179583 371.25025778 445.28492889 371.25041589 443.0380621 371.25098228 C436.93104767 371.25126977 430.8240528 371.24538094 424.71704292 371.23840833 C418.33753909 371.23216664 411.95803482 371.23157034 405.5785284 371.23038292 C394.86854302 371.2276257 384.1585662 371.22137502 373.44858456 371.21245384 C362.41733492 371.20327461 351.38608724 371.19619627 340.35483456 371.19194603 C339.67485046 371.19168331 338.99486636 371.19142058 338.29427668 371.1911499 C334.88299099 371.18984486 331.47170528 371.18858115 328.06041956 371.18733799 C299.76109094 371.17697155 271.46177421 371.15853655 243.16245174 371.13701439 C243.16245174 388.62701439 243.16245174 406.11701439 243.16245174 424.13701439 C248.002962 424.12130394 252.84347225 424.10559349 257.83066463 424.08940697 C273.81213858 424.03972864 289.79361554 424.0064196 305.77514648 423.98157787 C315.46605587 423.96611369 325.15689207 423.94503273 334.84775448 423.91069603 C343.29501232 423.88077996 351.74221715 423.86143612 360.1895265 423.8547489 C364.66168368 423.85084039 369.13368922 423.84166416 373.60579777 423.81982422 C377.81727672 423.7994242 382.02854191 423.79318769 386.24006557 423.79769135 C387.78357957 423.79686772 389.3271009 423.79092296 390.87057209 423.77939796 C392.98347047 423.76439828 395.09556934 423.76808726 397.20848751 423.77625084 C398.38930432 423.77348546 399.57012114 423.77072008 400.78672028 423.7678709 C405.67226133 424.30211531 409.799231 425.55391933 413.09995174 429.38701439 C414.4859584 432.97432574 414.69880317 435.31551049 414.16245174 439.13701439 C412.13493298 442.60943158 410.05405959 444.83981177 406.16245174 446.13701439 C404.23427295 446.23174547 402.30293294 446.26615754 400.37242985 446.26844215 C399.15731854 446.2722833 397.94220722 446.27612444 396.69027436 446.28008199 C395.33481886 446.2793017 393.97936342 446.27842291 392.62390804 446.27745628 C391.189451 446.28003924 389.75499468 446.2830522 388.32053936 446.28645968 C384.36921918 446.29454097 380.41791715 446.29631988 376.46658969 446.29705715 C372.20883333 446.29890572 367.95108643 446.30645201 363.69333553 446.31319237 C354.37942621 446.32678368 345.06552119 446.3328015 335.7516036 446.33720303 C329.93879289 446.3399638 324.12598384 446.34420082 318.31317425 446.3487072 C302.22692437 446.36090033 286.14067583 446.37119993 270.05442142 446.37458229 C268.50962311 446.37491164 268.50962311 446.37491164 266.93361675 446.37524764 C265.90125645 446.37546592 264.86889614 446.3756842 263.80525219 446.37590909 C261.71321845 446.37635256 259.62118471 446.37679912 257.52915096 446.37724876 C256.49142508 446.37747019 255.4536992 446.37769162 254.38452707 446.37791976 C237.56217379 446.38186946 220.73986378 446.3993285 203.91752721 446.42260829 C186.65646695 446.44630293 169.39542841 446.45878326 152.13435161 446.45995021 C142.43873957 446.46086797 132.74318393 446.4666458 123.04758739 446.48476982 C114.79314808 446.50014528 106.5387826 446.50530638 98.28433169 446.49703172 C94.07108139 446.49311628 89.85797987 446.49409822 85.64474773 446.50808907 C81.78947074 446.52077448 77.93445515 446.51967801 74.0791788 446.50749835 C72.68282019 446.50553202 71.2864434 446.50866275 69.89011039 446.51734272 C67.99482231 446.52838051 66.09944851 446.51918589 64.20415592 446.50895119 C62.62373105 446.50984682 62.62373105 446.50984682 61.01137841 446.51076055 C56.90686463 445.97229591 54.29135949 444.22699428 51.34995174 441.38701439 C49.63376849 438.13529875 49.78083086 435.76241277 50.16245174 432.13701439 C51.6177878 428.37026225 52.72327301 427.3600276 56.34892273 425.51893711 C59.99286407 424.04012032 63.16448596 423.76699573 67.11641598 423.77625084 C67.77984888 423.77368756 68.44328179 423.77112429 69.12681872 423.76848334 C71.33027555 423.76357661 73.5330336 423.77998563 75.73642635 423.79643822 C77.32364543 423.79728517 78.91086568 423.79680802 80.49808407 423.7951107 C84.79309087 423.79425198 89.08784497 423.81185781 93.38279319 423.83283257 C97.87643598 423.85161985 102.37008494 423.85335143 106.86376095 423.8569088 C115.36695729 423.86622324 123.87003755 423.89082889 132.37318283 423.92095727 C142.05633681 423.95451998 151.7394964 423.97099199 161.42269409 423.98604357 C181.33602576 424.017379 201.24919838 424.07238357 221.16245174 424.13701439 C221.16245174 406.64701439 221.16245174 389.15701439 221.16245174 371.13701439 C210.86509823 371.16058006 210.86509823 371.16058006 200.35971737 371.18462181 C178.38429779 371.23279117 156.40887555 371.26615011 134.43341675 371.29021038 C131.0188762 371.29396241 127.60433581 371.29784539 124.18979549 371.30180931 C123.51003381 371.30259624 122.83027213 371.30338317 122.1299116 371.30419395 C111.12926308 371.31724106 100.12866168 371.34089106 89.12804109 371.36847278 C77.83692293 371.39654634 66.54582828 371.41297028 55.25467348 371.41927987 C48.91405617 371.4231914 42.57354569 371.43238704 36.23296261 371.45420456 C30.26421607 371.4745761 24.29562031 371.48084676 18.32684231 371.47633743 C16.13711636 371.47716233 13.94738534 371.48312389 11.75768948 371.49463081 C8.76502496 371.50958513 5.7729276 371.50595704 2.7802496 371.49777794 C1.91641612 371.50651646 1.05258264 371.51525499 0.16257238 371.52425832 C-6.69748551 371.47367941 -12.31232898 370.32553776 -17.65004826 365.69951439 C-22.07509135 360.51589248 -23.95972537 357.40326334 -23.97176933 350.46469402 C-23.97622718 349.27581658 -23.98068502 348.08693913 -23.98527795 346.8620351 C-23.98509359 345.54941721 -23.98490923 344.23679932 -23.98471928 342.88440514 C-23.98801802 341.48095955 -23.99174361 340.07751491 -23.99586076 338.67407149 C-24.00588769 334.80835634 -24.00959866 330.94265672 -24.01225007 327.0769304 C-24.01615106 322.91114031 -24.02572954 318.74536254 -24.03446293 314.57958031 C-24.05423309 304.51470856 -24.06429423 294.44983579 -24.07319072 284.38494948 C-24.0775727 279.64657448 -24.08293974 274.90820061 -24.08817959 270.16982651 C-24.10519239 254.42071356 -24.11968693 238.67160131 -24.12692833 222.92248058 C-24.12883826 218.83473077 -24.13075859 214.74698097 -24.13271427 210.65923119 C-24.13319801 209.64322654 -24.13368175 208.62722189 -24.13418015 207.58042922 C-24.14248182 191.11898006 -24.16782081 174.65760354 -24.20029495 158.1961861 C-24.23335514 141.30010562 -24.25137615 124.40406206 -24.25457257 107.50794905 C-24.25673863 98.01957648 -24.26550127 88.53130983 -24.29103374 79.04296875 C-24.31272653 70.96280623 -24.32079818 62.88277535 -24.31106696 54.80258701 C-24.30651813 50.68005469 -24.30844222 46.55779408 -24.32782841 42.43529892 C-24.34543149 38.65936522 -24.34448591 34.88390202 -24.32893112 31.10796352 C-24.32542513 29.09885808 -24.34160264 27.08974786 -24.35853559 25.08071071 C-24.30768292 17.95783375 -23.73964394 13.16602385 -19.83754826 7.13701439 C-17.58364201 5.07842064 -17.58364201 5.07842064 -15.27504826 3.69951439 C-14.51063419 3.22642845 -13.74622013 2.75334251 -12.95864201 2.26592064 C-8.64215902 -0.03143403 -4.76163143 -0.00751089 0 0 Z M-2.83754826 22.13701439 C-2.83754826 112.88701439 -2.83754826 203.63701439 -2.83754826 297.13701439 C6.73245174 297.13701439 16.30245174 297.13701439 26.16245174 297.13701439 C26.17703426 293.43716331 26.19161678 289.73731224 26.2066412 285.92534447 C26.25694052 273.71162615 26.32337673 261.49804056 26.39816666 249.28444958 C26.44312405 241.87814126 26.48253879 234.47188101 26.50888729 227.06548119 C26.5318679 220.60973329 26.56526648 214.15413756 26.6111533 207.69851035 C26.63508489 204.28057169 26.653814 200.86278371 26.66006565 197.44476318 C26.66966535 193.62816554 26.69767664 189.81211955 26.7300787 185.99565697 C26.72864361 184.86349251 26.72720852 183.73132805 26.72572994 182.56485558 C26.73826809 181.52304131 26.75080624 180.48122704 26.76372433 179.40784264 C26.76833329 178.5054073 26.77294226 177.60297197 26.77769089 176.67319012 C27.24745126 173.57673468 28.36373025 171.67911541 30.16245174 169.13701439 C33.07366484 167.14039312 35.45860696 166.88172999 38.9434576 166.86235619 C39.88801311 166.85282417 40.83256863 166.84329216 41.80574703 166.8334713 C42.81935802 166.83438271 43.83296902 166.83529411 44.87729549 166.83623314 C45.92518749 166.83194801 46.97307949 166.82766289 48.05272579 166.82324791 C50.2675978 166.81750811 52.48248866 166.81700176 54.69736385 166.82134056 C58.08384049 166.82449936 61.46944255 166.80104034 64.85581112 166.77568626 C67.00880481 166.77341311 69.16180085 166.77270985 71.31479549 166.77373314 C72.32638226 166.76452339 73.33796902 166.75531364 74.38020992 166.74582481 C83.40674771 166.80515156 83.40674771 166.80515156 87.16245174 170.13701439 C89.09052732 173.25544134 89.41865149 175.64963906 89.44092464 179.28758812 C89.45208813 180.32802773 89.46325161 181.36846733 89.47475338 182.44043541 C89.47691357 183.57619514 89.47907375 184.71195488 89.4812994 185.88213158 C89.49134502 187.08240486 89.50139065 188.28267815 89.51174068 189.51932335 C89.53732775 192.8061799 89.55418595 196.09294236 89.56716871 199.37986851 C89.58280524 202.81656554 89.60959379 206.25317519 89.63519955 209.6898098 C89.68197813 216.1955569 89.71872666 222.70132046 89.75187242 229.20714974 C89.79010034 236.61465252 89.83950873 244.02206752 89.88985658 251.42949629 C89.99316276 266.66527861 90.08095145 281.90109744 90.16245174 297.13701439 C100.39245174 297.13701439 110.62245174 297.13701439 121.16245174 297.13701439 C121.17125111 293.6207515 121.17125111 293.6207515 121.18022823 290.03345299 C121.23684496 267.9754369 121.30989879 245.91751924 121.39816666 223.85960674 C121.44315261 212.51857303 121.48256083 201.17757092 121.50888729 189.83647728 C121.53184468 179.95280938 121.5652174 170.06924125 121.6111533 160.18565243 C121.63511598 154.95125256 121.65382481 149.71695167 121.66006565 144.48249817 C121.66610272 139.55689114 121.68605265 134.6315375 121.71672726 129.70602417 C121.72552961 127.8972404 121.72922553 126.08842354 121.72745991 124.27961922 C121.72581107 121.81128335 121.74247262 119.34372353 121.76372433 116.875494 C121.75887675 116.15855993 121.75402918 115.44162586 121.7490347 114.70296651 C121.81083274 110.3583108 122.49970282 107.59649389 125.16245174 104.13701439 C127.6534224 102.89152906 129.32873182 103.01005536 132.1153326 103.00761986 C133.14657757 103.0044677 134.17782253 103.00131554 135.24031734 102.99806786 C136.35802013 103.00009209 137.47572292 103.00211632 138.62729549 103.00420189 C140.34366962 103.0027668 140.34366962 103.0027668 142.09471798 103.00130272 C144.51825675 103.00062123 146.94179733 103.00247336 149.3653326 103.0066433 C153.08095043 103.01198706 156.7964471 103.00669975 160.51206112 103.00029564 C162.86297285 103.00095652 165.2138845 103.0022379 167.56479549 103.00420189 C168.68047405 103.00217766 169.79615261 103.00015343 170.94563961 102.99806786 C172.4972353 103.0027961 172.4972353 103.0027961 174.08017635 103.00761986 C174.99125652 103.00841545 175.90233669 103.00921104 176.84102535 103.01003075 C179.16245174 103.13701439 179.16245174 103.13701439 182.16245174 104.13701439 C184.23103289 108.68699462 184.45431964 113.0412499 184.44092464 117.95778465 C184.44671705 118.72653549 184.45250945 119.49528633 184.45847738 120.28733265 C184.47542856 122.85299223 184.47834965 125.41847139 184.4812994 127.98418236 C184.49060095 129.82741293 184.50076996 131.67063931 184.51174068 133.5138607 C184.53902917 138.51127099 184.55418672 143.50865311 184.56716871 148.5061183 C184.58280424 153.73118984 184.60959314 158.95620389 184.63519955 164.18123436 C184.6819798 174.07269258 184.71872759 183.96416163 184.75187242 193.85567391 C184.79009909 205.11802851 184.83950785 216.38032537 184.88985658 227.64263129 C184.99316526 250.80738366 185.08203252 273.97217223 185.16245174 297.13701439 C195.39245174 297.13701439 205.62245174 297.13701439 216.16245174 297.13701439 C216.19983456 294.0187722 216.23721737 290.90053001 216.27573299 287.68779564 C216.32196415 284.66274116 216.37319209 281.63780964 216.42490292 278.61284447 C216.45812596 276.51298578 216.48616605 274.41303836 216.50888729 272.31303978 C216.5424811 269.29174095 216.59480008 266.27125338 216.65073299 263.25029564 C216.65712292 262.31365578 216.66351284 261.37701591 216.6700964 260.41199303 C216.77876481 255.57792105 216.86475885 251.96237564 220.16245174 248.13701439 C223.16910854 246.29602498 225.44210223 245.88182175 228.9434576 245.86235619 C229.88801311 245.85282417 230.83256863 245.84329216 231.80574703 245.8334713 C232.81935802 245.83438271 233.83296902 245.83529411 234.87729549 245.83623314 C235.92518749 245.83194801 236.97307949 245.82766289 238.05272579 245.82324791 C240.2675978 245.81750811 242.48248866 245.81700176 244.69736385 245.82134056 C248.08384049 245.82449936 251.46944255 245.80104034 254.85581112 245.77568626 C257.00880481 245.77341311 259.16180085 245.77270985 261.31479549 245.77373314 C262.32638226 245.76452339 263.33796902 245.75531364 264.38020992 245.74582481 C273.5388421 245.80601975 273.5388421 245.80601975 277.16245174 249.13701439 C283.11629721 264.02162806 279.78973346 281.11012819 280.16245174 297.13701439 C341.87245174 297.13701439 403.58245174 297.13701439 467.16245174 297.13701439 C467.16245174 206.38701439 467.16245174 115.63701439 467.16245174 22.13701439 C312.06245174 22.13701439 156.96245174 22.13701439 -2.83754826 22.13701439 Z M143.16245174 123.13701439 C143.16245174 180.55701439 143.16245174 237.97701439 143.16245174 297.13701439 C149.76245174 297.13701439 156.36245174 297.13701439 163.16245174 297.13701439 C163.16245174 239.71701439 163.16245174 182.29701439 163.16245174 123.13701439 C156.56245174 123.13701439 149.96245174 123.13701439 143.16245174 123.13701439 Z M48.16245174 188.13701439 C48.16245174 224.10701439 48.16245174 260.07701439 48.16245174 297.13701439 C54.76245174 297.13701439 61.36245174 297.13701439 68.16245174 297.13701439 C68.16245174 261.16701439 68.16245174 225.19701439 68.16245174 188.13701439 C61.56245174 188.13701439 54.96245174 188.13701439 48.16245174 188.13701439 Z M237.16245174 267.13701439 C237.16245174 277.03701439 237.16245174 286.93701439 237.16245174 297.13701439 C244.09245174 297.13701439 251.02245174 297.13701439 258.16245174 297.13701439 C258.16245174 287.23701439 258.16245174 277.33701439 258.16245174 267.13701439 C251.23245174 267.13701439 244.30245174 267.13701439 237.16245174 267.13701439 Z M-2.83754826 318.13701439 C-2.83754826 328.36701439 -2.83754826 338.59701439 -2.83754826 349.13701439 C152.26245174 349.13701439 307.36245174 349.13701439 467.16245174 349.13701439 C467.16245174 338.90701439 467.16245174 328.67701439 467.16245174 318.13701439 C312.06245174 318.13701439 156.96245174 318.13701439 -2.83754826 318.13701439 Z " fill="#000000" transform="translate(23.83754825592041,32.862985610961914)"/>
<path d="M0 0 C1.62963373 1.41133389 3.25489916 2.82773325 4.875 4.25 C6.16277344 5.26513672 6.16277344 5.26513672 7.4765625 6.30078125 C26.00317599 21.35742642 36.78301863 47.09551487 39.875 70.25 C42.09885466 100.69346457 34.80402223 128.55902505 14.875 152.25 C-3.60388299 173.17023917 -29.26435696 186.17127845 -57.125 188.25 C-85.46656683 189.85478033 -111.15198964 181.05009445 -133.125 163.25 C-133.82882812 162.71117187 -134.53265625 162.17234375 -135.2578125 161.6171875 C-155.18697131 145.56090166 -167.01638704 118.80845744 -169.875 93.875 C-169.980782 92.33471083 -170.06455218 90.79273349 -170.125 89.25 C-170.16496094 88.44175781 -170.20492188 87.63351563 -170.24609375 86.80078125 C-170.7804467 65.77242098 -165.19965057 47.48486629 -155.125 29.25 C-154.59261719 28.27417969 -154.06023437 27.29835937 -153.51171875 26.29296875 C-139.78942095 3.03656827 -115.79457835 -12.54697652 -90.05126953 -19.29345703 C-59.26328677 -26.68756594 -24.74015986 -20.16968856 0 0 Z M-54.125 0.25 C-54.06051918 1.63509514 -54.06051918 1.63509514 -53.99473572 3.048172 C-53.46005513 15.04939864 -53.17867874 27.05010506 -53.0625 39.0625 C-53.0529768 40.03206131 -53.0434536 41.00162262 -53.03364182 42.00056458 C-52.74228316 81.91633766 -61.4172303 115.89938236 -76.33926392 152.69725037 C-76.72179494 153.64177079 -76.72179494 153.64177079 -77.11205387 154.60537243 C-77.79570672 156.28205661 -78.48879996 157.95488298 -79.18263245 159.62738037 C-80.29407769 162.25608039 -80.29407769 162.25608039 -80.125 165.25 C-61.61637712 170.54312517 -41.03344257 165.103845 -24.671875 156.23828125 C-23.48821297 155.57797136 -22.3057695 154.91546852 -21.125 154.25 C-20.28453125 153.78980469 -19.4440625 153.32960937 -18.578125 152.85546875 C-1.30209607 142.42049507 11.49361654 123.51360329 16.4140625 104.12597656 C21.61181804 81.0970319 18.34538996 58.55884825 5.9375 38.2890625 C-7.40515825 18.62885773 -25.72665132 5.94150459 -48.9921875 0.84375 C-51.92107296 0.18792956 -51.92107296 0.18792956 -54.125 0.25 Z M-127.4453125 27.171875 C-129.17855444 29.31625805 -129.56775804 30.61188293 -130.125 33.25 C-129.47354004 33.62584229 -128.82208008 34.00168457 -128.15087891 34.38891602 C-126.16639678 35.53380955 -124.1819433 36.67875272 -122.19750977 37.82373047 C-119.88049434 39.16035023 -117.56330772 40.49666797 -115.24584961 41.83251953 C-109.67405387 45.04483542 -104.10385914 48.25976415 -98.54223633 51.4896698 C-96.74332734 52.53424169 -94.94378406 53.57771216 -93.14404297 54.62084961 C-90.86705114 55.94108028 -88.59130176 57.26345647 -86.31689453 58.58813477 C-85.2854834 59.18553467 -84.25407227 59.78293457 -83.19140625 60.3984375 C-81.8293103 61.19000244 -81.8293103 61.19000244 -80.43969727 61.99755859 C-78.07758499 63.3621051 -78.07758499 63.3621051 -75.125 64.25 C-75.125 43.13 -75.125 22.01 -75.125 0.25 C-94.69472888 0.25 -114.27463127 14.14180602 -127.4453125 27.171875 Z M-142.125 51.25 C-150.35005314 71.89248772 -150.83908746 94.10448066 -142.32421875 114.76953125 C-138.85378756 122.71114915 -134.93169291 129.76092411 -129.125 136.25 C-128.53332031 136.9821875 -127.94164062 137.714375 -127.33203125 138.46875 C-120.84062635 146.28520456 -112.56538778 153.30125054 -103.125 157.25 C-102.135 156.92 -101.145 156.59 -100.125 156.25 C-98.8214322 153.53655534 -98.8214322 153.53655534 -97.76489258 150.12548828 C-97.54987595 149.48642548 -97.33485931 148.84736267 -97.11332703 148.18893433 C-96.4036881 146.0697595 -95.71145468 143.94533122 -95.01953125 141.8203125 C-94.53149147 140.34888752 -94.04252138 138.87777081 -93.55265808 137.4069519 C-92.52750502 134.32071182 -91.51032701 131.23199861 -90.49926758 128.14111328 C-89.20244088 124.17713585 -87.89133345 120.21807839 -86.57489491 116.26057625 C-85.56475456 113.22157152 -84.5595858 110.18094278 -83.55618858 107.13970566 C-83.07426516 105.67934696 -82.59141023 104.21929532 -82.10761452 102.75955582 C-81.43271988 100.71896634 -80.76390216 98.67648931 -80.09692383 96.63330078 C-79.71514481 95.47049591 -79.33336578 94.30769104 -78.9400177 93.10964966 C-77.98795428 90.26473566 -77.98795428 90.26473566 -78.125 87.25 C-79.1459375 86.69054687 -80.166875 86.13109375 -81.21875 85.5546875 C-90.19552415 80.61278467 -99.0946512 75.55290388 -107.9375 70.375 C-115.96146324 65.67710206 -123.99556202 60.9988092 -132.0625 56.375 C-132.96266846 55.85695801 -133.86283691 55.33891602 -134.7902832 54.80517578 C-136.02137817 54.10110596 -136.02137817 54.10110596 -137.27734375 53.3828125 C-137.99913818 52.96918457 -138.72093262 52.55555664 -139.46459961 52.12939453 C-140.95913486 51.17199384 -140.95913486 51.17199384 -142.125 51.25 Z " fill="#000000" transform="translate(434.125,97.75)"/>
</svg>
