<?xml version="1.0" encoding="UTF-8"?>
<svg version="1.1" xmlns="http://www.w3.org/2000/svg" width="512" height="512">
<path d="M0 0 C1.12135849 -0.00570007 2.24271698 -0.01140015 3.39805603 -0.01727295 C5.76544266 -0.02666828 8.13284204 -0.033235 10.50024414 -0.03710938 C14.02840746 -0.04670786 17.55595991 -0.07774017 21.08398438 -0.109375 C41.82953254 -0.20689588 62.34415475 1.5249139 82.65234375 5.890625 C83.85052734 6.14553711 85.04871094 6.40044922 86.28320312 6.66308594 C116.48703877 13.35461861 152.72831427 25.60498711 170.5625 52.796875 C176.40025656 62.38636311 178.34138653 70.99630142 178.26785278 82.20692444 C178.27041606 83.65791138 178.27041606 83.65791138 178.27303112 85.13821119 C178.27630785 88.35792415 178.26535232 91.5774256 178.25439453 94.79711914 C178.25383002 97.1136881 178.25414775 99.43025742 178.25527954 101.74682617 C178.25585251 108.02091801 178.24410709 114.29493312 178.23013163 120.56900716 C178.21761508 127.13132286 178.21645304 133.69364039 178.21408081 140.25596619 C178.2089073 151.26562833 178.19608832 162.27526365 178.17822266 173.28491211 C178.15984567 184.62149923 178.14569808 195.95807871 178.13720703 207.29467773 C178.13668158 207.99425718 178.13615614 208.69383663 178.13561477 209.41461546 C178.13300457 212.92443645 178.13047718 216.43425749 178.12799096 219.94407856 C178.10728031 249.03044562 178.07192455 278.11678493 178.02734375 307.203125 C178.88395285 307.19851604 179.74056194 307.19390707 180.62312889 307.18915844 C201.48957966 307.07862047 222.35597979 306.99593982 243.22266197 306.94406414 C253.31375026 306.91830906 263.40464283 306.88321013 273.49560547 306.82592773 C282.29337913 306.77601017 291.09101099 306.74381439 299.88892233 306.73268253 C304.54516955 306.7261779 309.20101121 306.71094663 313.85712814 306.67447472 C318.24517704 306.64038307 322.63265567 306.63009843 327.02082443 306.63758659 C328.62598781 306.6362179 330.23117146 306.62636388 331.83621979 306.60709763 C342.20837091 306.48876601 350.31144214 307.36659287 358.46484375 314.265625 C358.98046875 314.905 359.49609375 315.544375 360.02734375 316.203125 C360.56359375 316.8425 361.09984375 317.481875 361.65234375 318.140625 C364.72840325 322.75471425 365.27979065 326.66395672 365.29476929 332.16645813 C365.2993004 332.85520608 365.30383151 333.54395402 365.30849993 334.25357312 C365.32113154 336.55494107 365.31952439 338.85607198 365.31787109 341.1574707 C365.32385716 342.81023461 365.33066288 344.46299573 365.33822632 346.11575317 C365.35588639 350.60140335 365.36058172 355.0869772 365.36185789 359.57265878 C365.36328013 362.37670131 365.36755113 365.18072447 365.37285233 367.98476219 C365.39135316 377.77167364 365.39952294 387.55853063 365.39794922 397.34545898 C365.39674805 406.46079653 365.41784543 415.5758972 365.44943655 424.69117481 C365.47561059 432.52319427 365.48631603 440.35513644 365.4850384 448.18719929 C365.48452907 452.86221754 365.49019637 457.5370253 365.5113945 462.21199989 C365.53079572 466.61076082 365.53088858 471.00911087 365.51636124 475.40788651 C365.51427432 477.0187064 365.51896711 478.62955214 365.53108215 480.24032784 C365.5987313 489.86087109 365.51323629 497.14746793 358.84375 504.6640625 C357.72806641 505.61152344 357.72806641 505.61152344 356.58984375 506.578125 C355.84863281 507.22523438 355.10742188 507.87234375 354.34375 508.5390625 C348.69867154 512.59438025 343.55787304 512.49204811 336.83708191 512.47055054 C335.80123201 512.47508165 334.76538211 512.47961276 333.69814283 512.48428118 C330.22213795 512.4969561 326.74628913 512.4953028 323.27026367 512.49365234 C320.78007302 512.49963566 318.28988422 512.50644075 315.79969788 512.51400757 C309.73435765 512.52985707 303.66907894 512.53611684 297.60372373 512.53723232 C292.67255552 512.53818312 287.74140013 512.54229502 282.81023598 512.54863358 C268.82456331 512.56624455 254.83892131 512.57547271 240.85323747 512.57397263 C239.72258536 512.57385276 239.72258536 512.57385276 238.5690918 512.57373047 C237.81440164 512.57364871 237.05971147 512.57356695 236.28215192 512.57348271 C224.05315331 512.57266992 211.82427791 512.59180607 199.59531494 512.6200072 C187.03389139 512.64874606 174.4725279 512.66254694 161.91107064 512.66081965 C154.8607016 512.66015608 147.8104617 512.6656339 140.7601223 512.68717575 C134.12891778 512.70730733 127.4979393 512.70670359 120.86670494 512.69214249 C118.43348289 512.69004944 116.0002439 512.69478464 113.56705093 512.7068634 C110.2438981 512.72229098 106.92168892 512.71302312 103.59855652 512.69760132 C102.63696898 512.70788844 101.67538144 512.71817557 100.68465489 512.72877443 C93.15821766 512.65165435 87.98188159 510.75477131 82.27734375 505.828125 C74.56519642 496.83061978 73.71988534 488.9177875 73.83203125 477.484375 C73.83486115 476.38589233 73.83769104 475.28740967 73.84060669 474.15563965 C73.85173889 470.671354 73.87683077 467.18733204 73.90234375 463.703125 C73.91238254 461.3307329 73.92150681 458.95833674 73.9296875 456.5859375 C73.95165541 450.79157776 73.98506329 444.99737023 74.02734375 439.203125 C73.14335907 439.40486832 73.14335907 439.40486832 72.24151611 439.61068726 C16.86036768 452.11074489 -52.02870919 446.48945208 -102.97265625 421.203125 C-104.15214844 420.62691406 -105.33164063 420.05070312 -106.546875 419.45703125 C-123.66832446 410.68355478 -140.19021303 397.78500779 -146.33201611 378.88195777 C-147.54649497 373.80362197 -147.3871498 368.6982009 -147.3603363 363.50198364 C-147.36572184 362.24432092 -147.37110738 360.98665819 -147.37665612 359.69088447 C-147.39105105 356.22069535 -147.38688482 352.75074494 -147.3794893 349.28054309 C-147.37474508 345.5299222 -147.38727856 341.77935202 -147.39750671 338.02874756 C-147.41467574 330.68891386 -147.41553864 323.34916585 -147.41029381 316.00931729 C-147.40624721 310.04136786 -147.40770148 304.07344369 -147.41304207 298.10549545 C-147.4141647 296.8298716 -147.4141647 296.8298716 -147.41531001 295.52847757 C-147.41684154 293.80067842 -147.41837989 292.07287927 -147.41992498 290.34508012 C-147.43364325 274.15321929 -147.42821715 257.96140681 -147.41673977 241.76954709 C-147.40680887 226.96915679 -147.41974678 212.16889153 -147.44367396 197.36852051 C-147.46807969 182.15707254 -147.47766916 166.94568277 -147.47102123 151.73421562 C-147.46753219 143.19991092 -147.46974023 134.66570236 -147.48727226 126.13141251 C-147.50201271 118.8661279 -147.5026057 111.60100713 -147.48520135 104.33572568 C-147.47670393 100.63201044 -147.47451062 96.92858764 -147.48985291 93.22488785 C-147.50630873 89.20243407 -147.49151884 85.18068229 -147.47386169 81.15823364 C-147.4834667 79.9980019 -147.49307171 78.83777016 -147.50296777 77.64237988 C-147.36844698 62.71261575 -141.0118383 52.32407243 -130.97265625 41.703125 C-98.27572853 10.16125179 -43.82100811 0.1785823 0 0 Z " fill="#000101" transform="translate(146.97265625,-0.203125)"/>
<path d="M0 0 C0.95811584 0.00149048 1.91623169 0.00298096 2.90338135 0.0045166 C18.61636139 0.04827352 33.95778416 0.84390763 49.5 3.3125 C50.48033203 3.46235352 51.46066406 3.61220703 52.47070312 3.76660156 C64.77888967 5.68491919 76.69002405 8.34708694 88.5 12.3125 C89.25877441 12.56370605 90.01754883 12.81491211 90.79931641 13.07373047 C110.76614307 19.77309927 134.01929176 29.28642447 144.56054688 48.83032227 C147.77661092 56.22164433 147.09519994 64.43029183 147.06640625 72.33984375 C147.07164986 74.09664742 147.07792902 75.85344826 147.08518982 77.61024475 C147.09556119 81.28090726 147.09107993 84.95118132 147.07641602 88.62182617 C147.05923513 93.30346631 147.08273156 97.98387823 147.11790562 102.66538143 C147.13996733 106.29020674 147.13841701 109.91474214 147.1301403 113.53961372 C147.12932554 115.26462717 147.13609725 116.98966293 147.15091133 118.71461296 C147.21980394 128.18716177 147.08234623 136.21953063 141.5 144.3125 C140.9121875 145.18003906 140.324375 146.04757813 139.71875 146.94140625 C130.06641447 157.80028372 117.53557953 164.37137714 104.5 170.3125 C103.33082031 170.84746094 102.16164063 171.38242188 100.95703125 171.93359375 C81.41468857 180.28409534 60.48326863 183.79990983 39.5 186.3125 C38.52015137 186.43109375 37.54030273 186.5496875 36.53076172 186.671875 C-13.1065442 192.39238084 -68.99743366 188.71139417 -113.5 164.3125 C-114.44617188 163.796875 -115.39234375 163.28125 -116.3671875 162.75 C-127.95892144 156.10551699 -137.74586696 148.19108233 -142.66403198 135.48535156 C-144.45245394 128.69753517 -144.09255958 121.59873805 -144.06640625 114.625 C-144.07165163 112.91446598 -144.07793143 111.20393486 -144.08518982 109.4934082 C-144.09555095 105.92287503 -144.091094 102.35274148 -144.07641602 98.78222656 C-144.05922255 94.22951818 -144.08275231 89.67807134 -144.11790562 85.12550354 C-144.13996953 81.59761352 -144.13841674 78.07002132 -144.1301403 74.54208374 C-144.12932593 72.86451838 -144.13609002 71.18693001 -144.15091133 69.50942993 C-144.22099152 60.14500454 -143.97357774 52.32780913 -138.5 44.3125 C-137.92378906 43.4565625 -137.34757812 42.600625 -136.75390625 41.71875 C-105.0637615 6.00329818 -44.85611727 -0.17378145 0 0 Z " fill="#01A7F2" transform="translate(160.5,16.6875)"/>
<path d="M0 0 C0.9979855 -0.00709439 1.99597099 -0.01418877 3.02419847 -0.02149814 C6.36625113 -0.0390917 9.70714295 -0.02096554 13.04917908 -0.00291443 C15.44586721 -0.00805266 17.84255156 -0.0153332 20.23922729 -0.02459717 C26.07159047 -0.0412058 31.9035825 -0.0344696 37.7359348 -0.01650894 C42.47595241 -0.00247625 47.21587906 0.00140844 51.95591545 -0.00195122 C52.63084704 -0.00242866 53.30577863 -0.0029061 54.00116269 -0.00339801 C55.37231285 -0.00442435 56.74346299 -0.00547971 58.11461311 -0.00656378 C70.23479591 -0.01512838 82.3548169 0.001537 94.47496033 0.03126526 C106.23446955 0.06010854 117.99374574 0.06718292 129.75328064 0.05177307 C142.56171414 0.0350117 155.37003703 0.03097551 168.17847341 0.04848343 C169.54423899 0.05032781 170.91000458 0.05216253 172.27577019 0.0539875 C173.28372431 0.05535564 173.28372431 0.05535564 174.31204115 0.05675141 C179.04667009 0.06235673 183.78124503 0.05904974 188.51587105 0.05244255 C194.88778017 0.04479178 201.25935289 0.05686686 207.63120461 0.08429146 C209.97214509 0.0911887 212.31311692 0.09125902 214.65405655 0.08407593 C217.84469992 0.07541236 221.03429774 0.0912858 224.22485352 0.11352539 C225.6209552 0.10116424 225.6209552 0.10116424 227.04526097 0.08855337 C231.24586116 0.14275417 233.4662333 0.26400519 237.10044003 2.53535557 C240.34199812 6.01703848 240.17891975 8.18943556 240.19610596 12.87130737 C240.19978265 13.51877322 240.20345933 14.16623906 240.20724744 14.83332509 C240.21830053 17.01275709 240.22213084 19.19214143 240.22593689 21.37159729 C240.23220029 22.9302638 240.23884698 24.4889288 240.24584961 26.04759216 C240.26327018 30.2894045 240.27381414 34.53120557 240.28205514 38.77304482 C240.28720283 41.42209523 240.29327865 44.07114212 240.29956627 46.72019005 C240.3186209 55.00527513 240.33285172 63.29035127 240.34117824 71.57545406 C240.3509541 81.14518409 240.37728152 90.71468303 240.41767913 100.28433162 C240.4478186 107.67717224 240.46264503 115.06994653 240.46595925 122.46284741 C240.46831213 126.88017501 240.47730332 131.2972558 240.50242043 135.71451759 C240.52566852 139.87026829 240.5299477 144.02560911 240.51965904 148.18140793 C240.51916278 149.70641504 240.52550992 151.2314421 240.53921509 152.75638771 C240.5568883 154.83945763 240.54985258 156.92104928 240.53668213 159.00411987 C240.53907048 160.16943395 240.54145884 161.33474802 240.54391956 162.53537464 C239.94410739 166.28318344 238.6723655 167.93714746 236.04893494 170.62818909 C233.77276505 171.76627403 232.51895591 171.75819176 229.99055004 171.76799679 C228.70905426 171.77653365 228.70905426 171.77653365 227.40166968 171.78524297 C226.45762363 171.78642285 225.51357758 171.78760273 224.54092407 171.78881836 C223.54227272 171.79390618 222.54362137 171.798994 221.51470786 171.80423599 C218.14680518 171.82001297 214.77892402 171.82849929 211.41099548 171.83692932 C209.00504925 171.84646341 206.59910441 171.85635437 204.19316101 171.86657715 C196.95773171 171.89529494 189.72229615 171.91504936 182.48683211 171.93196949 C180.44384258 171.93676362 178.40085359 171.94174704 176.35786462 171.94677472 C163.67579803 171.97774275 150.99372691 172.00443275 138.31163311 172.0211935 C135.37356241 172.02514311 132.4354918 172.02914609 129.49742126 172.03321838 C128.40203417 172.03473093 128.40203417 172.03473093 127.28451804 172.03627402 C115.45094268 172.05328624 103.61757625 172.09440111 91.78410294 172.14524137 C79.63977282 172.19698879 67.49555022 172.22613185 55.35111076 172.23339039 C48.53040868 172.2380561 41.71004884 172.25284287 34.8894558 172.29313469 C28.47494353 172.33098134 22.06085473 172.33844718 15.64624023 172.32512856 C13.28914364 172.32518269 10.93202185 172.33555318 8.57502174 172.35688019 C5.36193252 172.38440425 2.15100073 172.37512228 -1.06210327 172.35644531 C-1.99945716 172.37324024 -2.93681104 172.39003517 -3.90256959 172.40733904 C-9.92848485 172.3195316 -9.92848485 172.3195316 -12.64716023 170.4814989 C-16.00772483 166.89152593 -16.57973345 163.62676394 -16.5927124 158.86608887 C-16.60121792 158.21112177 -16.60972344 157.55615467 -16.6184867 156.88134009 C-16.64066459 154.6999636 -16.62734973 152.52030799 -16.61390686 150.33888245 C-16.62232438 148.76976302 -16.63285143 147.20065371 -16.64532471 145.63156128 C-16.67235046 141.37947056 -16.6676788 137.1279671 -16.65562415 132.8758285 C-16.64848828 129.32442573 -16.65699493 125.77313126 -16.66552955 122.22173697 C-16.68547332 113.84467044 -16.67992076 105.46788937 -16.65785217 97.09083557 C-16.63547431 88.44955517 -16.65310589 79.80902127 -16.69090146 71.16781133 C-16.72212676 63.74511045 -16.73005444 56.32264076 -16.71894771 48.89988238 C-16.71245882 44.46802644 -16.71447171 40.03660155 -16.73827171 35.60479546 C-16.75950563 31.43888916 -16.75157099 27.27403782 -16.72117805 23.10819817 C-16.71484483 21.57998392 -16.71872575 20.05168795 -16.73358917 18.52353287 C-16.75225097 16.43557976 -16.73389044 14.35108583 -16.70623779 12.26330566 C-16.70527446 11.09581252 -16.70431112 9.92831938 -16.7033186 8.72544765 C-15.87366579 5.30951252 -14.72821285 3.62638687 -11.87029308 1.54990882 C-8.06418446 -0.27799562 -4.14786138 -0.0528732 0 0 Z " fill="#FDDA00" transform="translate(254.95106506347656,323.37181091308594)"/>
<path d="M0 0 C6.09060354 5.70737455 12.12018242 11.56717798 13.171875 20.1796875 C13.18390078 31.76051203 11.25302317 38.89078773 3.25 47.3671875 C-25.47600569 73.23399512 -71.21343515 76.06960659 -107.82421875 76.00390625 C-109.39005203 76.00408752 -109.39005203 76.00408752 -110.98751831 76.00427246 C-127.71894476 75.97679177 -143.85002386 75.13826756 -160.26171875 71.62890625 C-161.4228418 71.38068115 -161.4228418 71.38068115 -162.60742188 71.12744141 C-166.89852052 70.16635287 -171.07517263 68.96820418 -175.26171875 67.62890625 C-176.4940625 67.26023437 -177.72640625 66.8915625 -178.99609375 66.51171875 C-195.09528558 61.57329114 -213.11167082 53.74957359 -222.2109375 38.734375 C-225.92058577 31.30128795 -226.71099005 23.45517139 -224.6796875 15.2890625 C-219.70854574 4.18911583 -209.60291255 -2.80182933 -199.26171875 -8.37109375 C-198.32328125 -8.89316406 -197.38484375 -9.41523437 -196.41796875 -9.953125 C-144.77298157 -36.26152573 -47.12592211 -38.3485885 0 0 Z " fill="#0276BA" transform="translate(268.26171875,60.37109375)"/>
<path d="M0 0 C0.54065598 0.40715744 1.08131195 0.81431488 1.63835144 1.23381042 C2.70911674 2.03882744 2.70911674 2.03882744 3.80151367 2.86010742 C4.85999763 3.65646858 4.85999763 3.65646858 5.93986511 4.46891785 C21.09256984 15.73033375 37.94569208 23.62597524 56 29 C57.04285156 29.33386719 58.08570313 29.66773438 59.16015625 30.01171875 C123.58962406 49.81810436 206.70969718 47.01588423 267.0625 15.5625 C274.26094517 11.69807154 280.61767936 7.08221829 287 2 C288.485 1.01 288.485 1.01 290 0 C290.12754127 6.65262205 290.21465991 13.30492492 290.2746582 19.95849609 C290.29968909 22.21838157 290.33372438 24.47818702 290.37719727 26.73779297 C290.43835233 29.99987619 290.46632502 33.26088245 290.48828125 36.5234375 C290.51408768 37.52176605 290.5398941 38.5200946 290.56648254 39.54867554 C290.57009606 48.73654516 287.21973224 56.40891827 280.9609375 63.16015625 C249.97702367 92.23072082 200.7057199 101.03869544 159.7109375 101.203125 C157.99772812 101.21167511 157.99772812 101.21167511 156.24990845 101.22039795 C153.84141954 101.22978585 151.43291815 101.23635699 149.02441406 101.24023438 C145.43269842 101.2498456 141.84157964 101.28089094 138.25 101.3125 C115.90278243 101.41421042 93.69204184 99.59162964 72 94 C71.11812012 93.7736084 70.23624023 93.5472168 69.32763672 93.31396484 C49.629109 88.11025613 29.44664058 80.69076216 14 67 C13.24847656 66.36835938 12.49695312 65.73671875 11.72265625 65.0859375 C4.59692754 58.63695398 0.10162987 51.28070458 -0.48095703 41.61987305 C-0.66311902 35.32651483 -0.52466724 29.042613 -0.375 22.75 C-0.34485584 20.54040101 -0.31748793 18.33076231 -0.29296875 16.12109375 C-0.22734481 10.74651913 -0.12735251 5.37344789 0 0 Z " fill="#01A8F2" transform="translate(17,180)"/>
<path d="M0 0 C2.99178175 1.9834731 5.96044886 3.9713335 8.8671875 6.078125 C46.67360184 33.37730211 95.80181252 40.64915446 141.32568359 40.33618164 C145.02593466 40.31233285 148.72547123 40.31568838 152.42578125 40.32226562 C165.42345839 40.30725814 178.13241773 39.86236941 191 38 C192.10085937 37.84877686 193.20171875 37.69755371 194.3359375 37.54174805 C207.50570416 35.65113325 220.32693372 33.05801343 233 29 C234.21381348 28.61521484 234.21381348 28.61521484 235.45214844 28.22265625 C247.18877634 24.45032986 258.17991851 19.90737633 269 14 C269.94359375 13.48566406 270.8871875 12.97132813 271.859375 12.44140625 C277.35121041 9.29468689 282.20619007 5.58797894 287.06640625 1.5390625 C289 0 289 0 290 0 C290 16.5 290 33 290 50 C285.42382812 50.01417969 280.84765625 50.02835937 276.1328125 50.04296875 C273.21607046 50.06304998 270.29948263 50.0845898 267.3828125 50.11132812 C262.76361138 50.1535371 258.14480164 50.19063779 253.52539062 50.19555664 C249.79674299 50.1998673 246.06897502 50.22855506 242.34060287 50.27343178 C240.9254661 50.2863193 239.51022356 50.29074578 238.09503555 50.28615379 C228.03648031 50.26114135 220.38780379 51.4410891 212.5625 58.0625 C212.046875 58.701875 211.53125 59.34125 211 60 C210.46375 60.639375 209.9275 61.27875 209.375 61.9375 C206.45659826 66.31510261 205.73429029 70.17745819 205.5859375 75.39453125 C205.52792969 77.19760742 205.52792969 77.19760742 205.46875 79.03710938 C205.4378125 80.28298828 205.406875 81.52886719 205.375 82.8125 C205.31699219 84.71032227 205.31699219 84.71032227 205.2578125 86.64648438 C205.16369343 89.76417851 205.07805639 92.88186914 205 96 C201.48164874 96.65983415 197.95997124 97.30005843 194.4375 97.9375 C192.98053711 98.21110352 192.98053711 98.21110352 191.49414062 98.49023438 C138.76574653 107.93668934 67.77040761 104.18626585 22.24560547 73.28295898 C12.67984639 66.49548073 3.03751321 58.88768855 0 47 C-0.97631772 38.96861079 -0.56691782 30.81899752 -0.375 22.75 C-0.34485584 20.54040101 -0.31748793 18.33076231 -0.29296875 16.12109375 C-0.22734481 10.74651913 -0.12735251 5.37344789 0 0 Z " fill="#01A7F2" transform="translate(17,257)"/>
<path d="M0 0 C2.96961624 1.76030045 5.75051347 3.52177645 8.4375 5.6875 C31.17784788 22.8380417 59.44554045 30.80719458 87 36 C88.49200928 36.29849854 88.49200928 36.29849854 90.01416016 36.60302734 C107.44802548 39.99101868 124.66629525 40.37169927 142.375 40.375 C144.0193251 40.37785507 144.0193251 40.37785507 145.6968689 40.38076782 C157.32602562 40.37848369 168.88570295 40.0829899 180.4765625 39.1015625 C181.39094086 39.02457123 182.30531921 38.94757996 183.24740601 38.86825562 C188.52047851 38.37271709 193.62207823 37.55318978 198.7918396 36.39877319 C201 36 201 36 205 36 C205 52.83 205 69.66 205 87 C196.39556999 88.98563769 188.72713188 90.53224852 180.0625 91.125 C178.0948934 91.27131908 176.12743844 91.41969452 174.16015625 91.5703125 C173.31074463 91.62977051 172.46133301 91.68922852 171.58618164 91.75048828 C168.94182219 91.97015253 168.94182219 91.97015253 166.1262207 92.51635742 C162.65108008 93.05397972 159.33669613 93.14672517 155.8203125 93.16796875 C155.13912354 93.1721582 154.45793457 93.17634766 153.75610352 93.18066406 C151.54567675 93.19043474 149.33544482 93.19045076 147.125 93.1875 C146.36701111 93.18722809 145.60902222 93.18695618 144.82806396 93.18667603 C98.42939389 93.11028 43.43504577 86.5943049 8.3515625 53.078125 C-0.34731588 41.69155329 -0.78456097 32.01536997 -0.375 18.25 C-0.34483791 16.47400396 -0.31747321 14.69795811 -0.29296875 12.921875 C-0.2275229 8.61333117 -0.12435738 4.30722947 0 0 Z " fill="#01A7F2" transform="translate(17,334)"/>
<path d="M0 0 C6.09060354 5.70737455 12.12018242 11.56717798 13.171875 20.1796875 C13.18390078 31.76051203 11.25302317 38.89078773 3.25 47.3671875 C-25.47600569 73.23399512 -71.21343515 76.06960659 -107.82421875 76.00390625 C-109.39005203 76.00408752 -109.39005203 76.00408752 -110.98751831 76.00427246 C-127.71894476 75.97679177 -143.85002386 75.13826756 -160.26171875 71.62890625 C-161.4228418 71.38068115 -161.4228418 71.38068115 -162.60742188 71.12744141 C-166.89852052 70.16635287 -171.07517263 68.96820418 -175.26171875 67.62890625 C-176.4940625 67.26023437 -177.72640625 66.8915625 -178.99609375 66.51171875 C-195.09528558 61.57329114 -213.11167082 53.74957359 -222.2109375 38.734375 C-225.92058577 31.30128795 -226.71099005 23.45517139 -224.6796875 15.2890625 C-219.70854574 4.18911583 -209.60291255 -2.80182933 -199.26171875 -8.37109375 C-198.32328125 -8.89316406 -197.38484375 -9.41523437 -196.41796875 -9.953125 C-144.77298157 -36.26152573 -47.12592211 -38.3485885 0 0 Z M-204.703125 15.91796875 C-207.28110878 18.74793591 -208.17308182 21.11678174 -208.82421875 24.87890625 C-207.89615961 31.06596721 -203.98417464 34.42450993 -199.25 38.2578125 C-173.73866692 56.31851596 -139.45233848 59.01979302 -109.21875 58.88964844 C-106.26411433 58.87891495 -103.31008636 58.8896252 -100.35546875 58.90234375 C-85.03039555 58.91413975 -69.64854392 58.20953839 -54.63671875 54.87890625 C-53.86368408 54.71044189 -53.09064941 54.54197754 -52.29418945 54.3684082 C-36.76419599 50.81548501 -17.01287114 45.02741263 -6.26171875 32.62890625 C-3.96535732 28.75043628 -3.24137157 25.04773263 -4.26171875 20.62890625 C-12.50733269 6.47084244 -32.87246856 0.7846252 -47.79296875 -3.27734375 C-55.52121426 -5.24675605 -63.35434043 -6.39711926 -71.26171875 -7.37109375 C-72.0923584 -7.47550781 -72.92299805 -7.57992187 -73.77880859 -7.6875 C-114.44092734 -12.59459548 -171.84398816 -13.18388633 -204.703125 15.91796875 Z " fill="#000203" transform="translate(268.26171875,60.37109375)"/>
<path d="M0 0 C9.150639 5.04551043 15.56488696 12.20137896 19.05029297 22.15673828 C20.30359263 26.70893947 20.2455173 31.17024908 20.20703125 35.86328125 C20.20657303 36.78646149 20.20611481 37.70964172 20.2056427 38.66079712 C20.2026341 40.60558362 20.19478977 42.550368 20.18237305 44.49511719 C20.16416231 47.44865609 20.16186341 50.40187962 20.16210938 53.35546875 C20.15719124 55.25390892 20.15136164 57.152347 20.14453125 59.05078125 C20.14341843 59.92294281 20.1423056 60.79510437 20.14115906 61.69369507 C20.10362258 66.62190549 19.77961053 71.36692516 19.03147888 76.24133301 C18.78922286 78.31456263 18.78922286 78.31456263 20.59375 80.47265625 C21.33882813 81.04757812 22.08390625 81.6225 22.8515625 82.21484375 C25.89885973 84.89924043 26.87886887 85.78647932 28.1640625 89.77734375 C27.95320727 93.50245279 27.29305869 95.19422351 24.9765625 98.08984375 C21.9765625 100.08984375 21.9765625 100.08984375 18.6640625 100.08984375 C14.45146955 98.94744566 13.07983736 97.57924228 10.43359375 94.26953125 C9.03558223 92.85395922 9.03558223 92.85395922 7.04296875 93.2890625 C4.97726193 94.0895727 3.05703202 94.98678266 1.1015625 96.02734375 C-7.21829558 100.21774846 -14.95933686 101.71753618 -24.15234375 99.25 C-34.38004261 95.37052802 -41.47885744 89.57799369 -46.05078125 79.58203125 C-46.37175781 78.75960937 -46.69273437 77.9371875 -47.0234375 77.08984375 C-47.36656982 76.25557861 -47.70970215 75.42131348 -48.06323242 74.56176758 C-49.32366706 70.00426924 -49.34797215 65.75447309 -49.359375 61.046875 C-49.3660318 60.08263107 -49.3726886 59.11838715 -49.37954712 58.12492371 C-49.38964675 56.08842874 -49.39436497 54.05190085 -49.39404297 52.01538086 C-49.39839901 48.92960722 -49.43470034 45.84528498 -49.47265625 42.75976562 C-49.54985574 29.4392409 -48.87828306 18.72815842 -40.01953125 8.09765625 C-29.77897746 -2.2030182 -13.64115025 -5.71453591 0 0 Z " fill="#040400" transform="translate(390.0234375,360.91015625)"/>
<path d="M0 0 C30.9990268 -0.09122722 61.99801815 -0.16202669 92.9971473 -0.20426132 C96.65589465 -0.20926422 100.31464173 -0.2144415 103.97338867 -0.21972656 C104.70178712 -0.2207758 105.43018558 -0.22182505 106.18065671 -0.22290608 C117.97873102 -0.24031693 129.77672747 -0.27185833 141.57475557 -0.30861118 C153.67833768 -0.34600176 165.78187897 -0.36823185 177.88551646 -0.37635398 C185.35567533 -0.38184569 192.82561411 -0.39919792 200.29570524 -0.43166587 C206.02134075 -0.45528583 211.74683487 -0.4578246 217.47250938 -0.45243073 C219.82314409 -0.45353352 222.17378693 -0.46152121 224.5243721 -0.4768219 C227.72840548 -0.49665948 230.93148947 -0.49196135 234.13554382 -0.48101807 C235.070371 -0.49266943 236.00519818 -0.5043208 236.96835345 -0.51632524 C241.18159449 -0.47730335 243.40711075 -0.36983667 247.05402851 1.90506363 C250.29098419 5.38980954 250.12998557 7.56145351 250.14717102 12.24311829 C250.15084771 12.89058413 250.1545244 13.53804998 250.1583125 14.205136 C250.16936559 16.384568 250.1731959 18.56395235 250.17700195 20.7434082 C250.18326535 22.30207471 250.18991204 23.86073972 250.19691467 25.41940308 C250.21433524 29.66121542 250.22487921 33.90301648 250.2331202 38.14485574 C250.23826789 40.79390615 250.24434371 43.44295303 250.25063133 46.09200096 C250.26968596 54.37708604 250.28391678 62.66216219 250.2922433 70.94726497 C250.30201917 80.516995 250.32834658 90.08649395 250.36874419 99.65614253 C250.39888366 107.04898315 250.41371009 114.44175745 250.41702431 121.83465832 C250.4193772 126.25198592 250.42836838 130.66906671 250.45348549 135.08632851 C250.47673358 139.2420792 250.48101277 143.39742002 250.47072411 147.55321884 C250.47022784 149.07822595 250.47657498 150.60325302 250.49028015 152.12819862 C250.50795337 154.21126855 250.50091764 156.2928602 250.48774719 158.37593079 C250.49013555 159.54124486 250.4925239 160.70655893 250.49498463 161.90718555 C249.89517246 165.65499435 248.62343056 167.30895837 246 170 C243.11584117 171.44207941 240.58278472 171.09394887 237.375 171.0625 C236.18648437 171.05347656 234.99796875 171.04445313 233.7734375 171.03515625 C232.85820312 171.02355469 231.94296875 171.01195312 231 171 C231.16298584 170.33395752 231.32597168 169.66791504 231.49389648 168.98168945 C232.10166929 165.40101927 232.12448724 161.91127767 232.09765625 158.29296875 C232.0962413 157.56757401 232.09482635 156.84217926 232.09336853 156.09480286 C232.08779931 153.7923255 232.07525261 151.48994765 232.0625 149.1875 C232.05748102 147.62044412 232.05291881 146.0533867 232.04882812 144.48632812 C232.03783998 140.65751411 232.02059673 136.82877389 232 133 C231.32130859 133.64904297 230.64261719 134.29808594 229.94335938 134.96679688 C226.31942738 137.47012349 224.27800064 137.51535272 219.90625 137.53125 C219.23710571 137.5350769 218.56796143 137.53890381 217.87854004 137.54284668 C216.46995531 137.54555723 215.06131952 137.53825592 213.65283203 137.52148438 C211.50568661 137.50005675 209.36188603 137.52130912 207.21484375 137.546875 C205.8411385 137.54423156 204.46743533 137.53910625 203.09375 137.53125 C201.23266602 137.52448242 201.23266602 137.52448242 199.33398438 137.51757812 C195.41418083 136.90905561 193.75914527 135.8049191 191 133 C189.71571979 129.14715938 189.82792144 125.49369692 189.80712891 121.47705078 C189.79486267 120.17170883 189.79486267 120.17170883 189.78234863 118.83999634 C189.75752295 115.95844205 189.74098776 113.07693685 189.7265625 110.1953125 C189.72123882 109.21137386 189.71591515 108.22743523 189.71043015 107.21368027 C189.68371361 102.00785857 189.66433204 96.80206076 189.64990234 91.59619141 C189.63323843 86.21679661 189.58844171 80.83801253 189.5375309 75.45884895 C189.5039005 71.32387578 189.49232968 67.18904853 189.48667526 63.05395126 C189.4799535 61.07078242 189.46470749 59.08762349 189.44078445 57.10458755 C189.40921385 54.32979488 189.40908355 51.55666292 189.41650391 48.78173828 C189.40009857 47.96286133 189.38369324 47.14398438 189.36679077 46.30029297 C189.41375675 42.01041151 189.62684208 40.46688888 192.40536499 36.990448 C194.95130416 35.03735652 195.92810071 34.33156603 199.0625 34.4375 C203 35 203 35 205.2177124 36.54205322 C207.66289479 39.91419596 207.53166126 42.88237027 207.45410156 46.88964844 C207.45468567 47.68027176 207.45526978 48.47089508 207.45587158 49.28547668 C207.45308899 51.89389233 207.42198983 54.50115947 207.390625 57.109375 C207.38316321 58.91969173 207.37746998 60.73001654 207.37347412 62.54034424 C207.35821288 67.30151735 207.31892691 72.06220116 207.2746582 76.82318115 C207.23371603 81.68283469 207.21546536 86.5425674 207.1953125 91.40234375 C207.15243309 100.93511063 207.08417585 110.4675146 207 120 C207.92280762 119.9685791 207.92280762 119.9685791 208.86425781 119.93652344 C211.65933809 119.85322983 214.45415715 119.80129987 217.25 119.75 C218.21808594 119.71648437 219.18617188 119.68296875 220.18359375 119.6484375 C221.58544922 119.62910156 221.58544922 119.62910156 223.015625 119.609375 C223.87446289 119.58842773 224.73330078 119.56748047 225.61816406 119.54589844 C228.76305704 120.14547828 229.95889295 121.61182212 232 124 C232.02333844 108.38848712 232.04098383 92.77697894 232.05181217 77.16545296 C232.05697311 69.91709943 232.06401199 62.66875673 232.07543945 55.42041016 C232.08539243 49.10431724 232.0918549 42.78823215 232.09408849 36.47213161 C232.09539455 33.12640149 232.09847382 29.7806938 232.10573006 26.43497086 C232.11294511 22.70419207 232.11399074 18.97346038 232.11352539 15.24267578 C232.11712067 14.12777771 232.12071594 13.01287964 232.12442017 11.86419678 C232.12235817 10.34552505 232.12235817 10.34552505 232.12025452 8.7961731 C232.12117631 7.91309542 232.1220981 7.03001774 232.12304783 6.12018013 C232.13670222 3.94453768 232.13670222 3.94453768 231 2 C154.77 1.67 78.54 1.34 0 1 C0 0.67 0 0.34 0 0 Z " fill="#F7BD07" transform="translate(245,324)"/>
<path d="M0 0 C1.93166016 -0.03577148 1.93166016 -0.03577148 3.90234375 -0.07226562 C14.34015186 -0.05604105 14.34015186 -0.05604105 18.1015625 2.87890625 C20.25 5.5625 20.25 5.5625 20.875 9.0625 C20.14607638 13.14447226 19.18540633 14.67213205 16.25 17.5625 C13.32080078 18.17431641 13.32080078 18.17431641 9.9453125 18.1640625 C8.11033203 18.18726563 8.11033203 18.18726563 6.23828125 18.2109375 C4.32595703 18.19933594 4.32595703 18.19933594 2.375 18.1875 C-0.14326283 18.1875 -2.66156388 18.20008381 -5.1796875 18.2265625 C-6.29585449 18.22092285 -7.41202148 18.2152832 -8.56201172 18.20947266 C-13.04704437 18.70613043 -16.42775447 20.21224079 -19.59375 23.4453125 C-21.71199339 27.3239879 -21.49087976 31.28560318 -20.75 35.5625 C-19.06181551 38.68251504 -16.96905059 40.95297471 -13.75 42.5625 C-11.75221788 42.82964528 -9.75169451 43.07645112 -7.75 43.3125 C2.36404322 44.86250221 9.14340966 48.31935194 15.62109375 56.328125 C21.13054004 63.88544701 21.37801497 71.34260901 20.25 80.5625 C17.43161724 89.53383559 12.39987418 96.14170068 4.18579102 100.71069336 C-2.82950293 103.8493754 -9.41923974 104.2125388 -17.04711914 104.13891602 C-19.0779556 104.12489328 -21.1043053 104.15941579 -23.13476562 104.19726562 C-24.42705078 104.19533203 -25.71933594 104.19339844 -27.05078125 104.19140625 C-28.80128784 104.1924939 -28.80128784 104.1924939 -30.5871582 104.19360352 C-34.66159964 103.38060227 -36.1562198 101.73260945 -38.75 98.5625 C-39.65738141 95.53601665 -39.21433133 93.8128193 -38.75 90.5625 C-36.59398166 87.65306198 -35.42279061 86.67694954 -31.82080078 86.06420898 C-30.14993408 86.06142944 -30.14993408 86.06142944 -28.4453125 86.05859375 C-27.22199219 86.03990234 -25.99867188 86.02121094 -24.73828125 86.00195312 C-22.82595703 86.00098633 -22.82595703 86.00098633 -20.875 86 C-18.35668951 85.99103348 -15.83838525 85.96933926 -13.3203125 85.93359375 C-12.20414551 85.93286865 -11.08797852 85.93214355 -9.93798828 85.93139648 C-6.27561415 85.50760668 -3.88971678 84.47051659 -0.75 82.5625 C2.53102593 77.85969617 2.86595345 74.10608109 2.25 68.5625 C0.07611136 64.99111152 -1.91403662 63.1230084 -5.75 61.5625 C-7.45343794 61.39651004 -9.16414988 61.29738506 -10.875 61.25 C-18.7398007 60.66119139 -26.14745714 57.16504286 -31.75 51.5625 C-38.45039071 42.45231965 -39.84578513 33.78846895 -38.75 22.5625 C-36.60990375 14.80205388 -31.45171664 8.89167662 -24.75 4.5625 C-16.69920087 0.181372 -9.02282613 -0.07770418 0 0 Z " fill="#040300" transform="translate(303.75,357.4375)"/>
<path d="M0 0 C19.1672135 3.08044503 41.51878737 14.91121315 53.04296875 30.8203125 C56.74395627 36.85090025 58.15111877 41.45350248 58.19287109 48.52563477 C58.20513733 49.67262596 58.20513733 49.67262596 58.21765137 50.8427887 C58.24247778 53.37565335 58.25901888 55.90846183 58.2734375 58.44140625 C58.27876118 59.30877851 58.28408485 60.17615078 58.28956985 61.06980705 C58.31629604 65.66542552 58.33566818 70.26101695 58.35009766 74.85668945 C58.36340802 78.64827759 58.39120728 82.43932386 58.43212891 86.23071289 C58.48164015 90.81838071 58.50624186 95.40555904 58.51332474 99.99348259 C58.52000845 101.7352832 58.53515486 103.47707414 58.55921555 105.21872139 C58.68333343 114.75086381 58.65337237 122.86194444 53 131 C52.4121875 131.86753906 51.824375 132.73507813 51.21875 133.62890625 C39.61888294 146.67875669 23.5086138 154.04748045 7.625 160.5625 C6.67004639 160.95828247 6.67004639 160.95828247 5.69580078 161.36206055 C4.15413447 161.97150249 2.57871462 162.49421877 1 163 C0.34 162.67 -0.32 162.34 -1 162 C-0.12859375 161.52691406 0.7428125 161.05382812 1.640625 160.56640625 C18.1189999 151.47641417 34.38287115 140.96287086 40 122 C40.26953241 119.18649231 40.41201462 116.60301209 40.38818359 113.79907227 C40.39344055 113.02232147 40.39869751 112.24557068 40.40411377 111.44528198 C40.41721374 108.90211296 40.40861075 106.35958058 40.3984375 103.81640625 C40.40046132 102.03335959 40.40337532 100.25031374 40.40713501 98.4672699 C40.411545 94.73941122 40.40517093 91.01176896 40.39111328 87.28393555 C40.37403466 82.52509834 40.38386259 77.76676932 40.40183067 73.00795078 C40.41271508 69.32830536 40.40920068 65.64877872 40.4014473 61.96912956 C40.39945749 60.21539181 40.40186131 58.46164298 40.40888596 56.70791817 C40.45787788 41.03941893 37.96073519 30.23491352 27 18.5 C19.2889047 11.04985547 9.69839588 5.4612621 0 1 C0 0.67 0 0.34 0 0 Z " fill="#0276BB" transform="translate(249,30)"/>
<path d="M0 0 C3.9375 0.5625 3.9375 0.5625 6.1552124 2.10455322 C8.60039479 5.47669596 8.46916126 8.44487027 8.39160156 12.45214844 C8.39218567 13.24277176 8.39276978 14.03339508 8.39337158 14.84797668 C8.39058899 17.45639233 8.35948983 20.06365947 8.328125 22.671875 C8.32066321 24.48219173 8.31496998 26.29251654 8.31097412 28.10284424 C8.29571288 32.86401735 8.25642691 37.62470116 8.2121582 42.38568115 C8.17121603 47.24533469 8.15296536 52.1050674 8.1328125 56.96484375 C8.08993309 66.49761063 8.02167585 76.0300146 7.9375 85.5625 C8.54746826 85.53631592 9.15743652 85.51013184 9.78588867 85.4831543 C12.56532758 85.37884281 15.34435439 85.31407018 18.125 85.25 C19.08470703 85.20810547 20.04441406 85.16621094 21.03320312 85.12304688 C28.17917336 84.99941417 28.17917336 84.99941417 32.078125 87.89453125 C33.9375 90.5625 33.9375 90.5625 34.5 93.5625 C33.81392343 97.22157504 32.51015686 98.91417676 29.9375 101.5625 C25.55625169 103.75312416 19.68418656 102.83082802 14.81665039 102.85766602 C12.64339761 102.87485449 10.47167654 102.91873807 8.29882812 102.96289062 C6.9114695 102.97302026 5.52409796 102.98153552 4.13671875 102.98828125 C2.87690186 103.00286377 1.61708496 103.01744629 0.3190918 103.0324707 C-3.65863699 102.4796494 -5.27945853 101.40922369 -8.0625 98.5625 C-9.34678021 94.70965938 -9.23457856 91.05619692 -9.25537109 87.03955078 C-9.26354858 86.16932281 -9.27172607 85.29909485 -9.28015137 84.40249634 C-9.30497705 81.52094205 -9.32151224 78.63943685 -9.3359375 75.7578125 C-9.34126118 74.77387386 -9.34658485 73.78993523 -9.35206985 72.77618027 C-9.37878639 67.57035857 -9.39816796 62.36456076 -9.41259766 57.15869141 C-9.42926157 51.77929661 -9.47405829 46.40051253 -9.5249691 41.02134895 C-9.5585995 36.88637578 -9.57017032 32.75154853 -9.57582474 28.61645126 C-9.5825465 26.63328242 -9.59779251 24.65012349 -9.62171555 22.66708755 C-9.65328615 19.89229488 -9.65341645 17.11916292 -9.64599609 14.34423828 C-9.66240143 13.52536133 -9.67880676 12.70648438 -9.69570923 11.86279297 C-9.64874325 7.57291151 -9.43565792 6.02938888 -6.65713501 2.552948 C-4.11119584 0.59985652 -3.13439929 -0.10593397 0 0 Z " fill="#030300" transform="translate(444.0625,358.4375)"/>
<path d="M0 0 C5.22272337 2.66764103 8.00040887 6.86450785 9.8125 12.30078125 C9.89731773 14.88708349 9.92848229 17.44556181 9.91015625 20.03125 C9.9087413 20.78167068 9.90732635 21.53209137 9.90586853 22.30525208 C9.9002756 24.69963585 9.88772444 27.09392578 9.875 29.48828125 C9.86998408 31.11262886 9.86542134 32.73697793 9.86132812 34.36132812 C9.85030848 38.34118194 9.83304873 42.32096569 9.8125 46.30078125 C8.88695312 45.65109375 7.96140625 45.00140625 7.0078125 44.33203125 C3.45898574 42.07605336 1.92257632 41.58598537 -2.1875 42.30078125 C-5.42262995 44.42915622 -6.07267436 45.75796913 -6.875 49.55078125 C-6.01383414 54.24804957 -4.0707739 56.14068703 -0.71875 59.40625 C0.8125 61.30078125 0.8125 61.30078125 0.8125 65.30078125 C-3.43200632 67.42303441 -7.51804271 68.12632066 -12.1875 67.30078125 C-18.37298836 64.78617255 -21.42832483 61.26059962 -24.1875 55.30078125 C-25.49317891 51.38374453 -25.38960963 47.62472912 -25.42578125 43.5390625 C-25.433853 42.67443893 -25.44192474 41.80981537 -25.45024109 40.91899109 C-25.46407082 39.0873718 -25.47479795 37.25572686 -25.48266602 35.42407227 C-25.49416728 33.55908612 -25.51458966 31.69413241 -25.54418945 29.8293457 C-25.58706492 27.12819142 -25.6030643 24.42801574 -25.61328125 21.7265625 C-25.63078934 20.90231277 -25.64829742 20.07806305 -25.66633606 19.22883606 C-25.64251405 12.79168551 -24.10165816 7.46599923 -19.66572571 2.64790344 C-14.34608378 -2.1999406 -6.58752563 -2.10565551 0 0 Z " fill="#F7D500" transform="translate(383.1875,376.69921875)"/>
<path d="M0 0 C0.33 0 0.66 0 1 0 C1.12754127 6.65262205 1.21465991 13.30492492 1.2746582 19.95849609 C1.29968909 22.21838157 1.33372438 24.47818702 1.37719727 26.73779297 C1.43835233 29.99987619 1.46632502 33.26088245 1.48828125 36.5234375 C1.51408768 37.52176605 1.5398941 38.5200946 1.56648254 39.54867554 C1.57009606 48.73654516 -1.78026776 56.40891827 -8.0390625 63.16015625 C-20.24099531 74.60858325 -35.81853361 83.50651237 -52 88 C-52.99 87.67 -53.98 87.34 -55 87 C-54.11699219 86.52691406 -53.23398438 86.05382812 -52.32421875 85.56640625 C-38.52057853 78.02203954 -25.29545758 68.94798221 -19 54 C-18.47817139 52.95767212 -18.47817139 52.95767212 -17.94580078 51.89428711 C-16.713814 48.12422948 -16.89177241 44.64115286 -17.04296875 40.734375 C-17.0665246 39.10551404 -17.08659624 37.47659966 -17.10351562 35.84765625 C-17.13611065 33.29936288 -17.18712651 30.75856969 -17.2980957 28.21240234 C-17.86111665 14.38009293 -17.86111665 14.38009293 -14.71539307 10.35717773 C-11.19873876 7.18374715 -7.18008446 5.16439807 -3 3 C-1.22038869 1.39845996 -1.22038869 1.39845996 0 0 Z " fill="#0276BA" transform="translate(306,180)"/>
<path d="M0 0 C0 16.83 0 33.66 0 51 C-13 54 -13 54 -17 54 C-17 37.17 -17 20.34 -17 3 C-4 0 -4 0 0 0 Z " fill="#0275B9" transform="translate(222,370)"/>
<path d="M0 0 C0.33 0 0.66 0 1 0 C1 16.5 1 33 1 50 C-4.61 50 -10.22 50 -16 50 C-16.32394548 44.76031041 -16.60106776 39.55575128 -16.76904297 34.31396484 C-16.8390228 32.53802495 -16.93426378 30.76287972 -17.05615234 28.98974609 C-18.01867238 14.61665278 -18.01867238 14.61665278 -14.61291504 10.20202637 C-10.8332749 6.71133397 -6.53133429 4.37708216 -2 2 C-1.34 1.34 -0.68 0.68 0 0 Z " fill="#0276BB" transform="translate(306,257)"/>
<path d="M0 0 C-0.35151123 0.55800293 -0.70302246 1.11600586 -1.06518555 1.69091797 C-5.31827656 9.14676881 -5.77169728 15.65616953 -5.8125 24.125 C-5.83763672 25.36765625 -5.86277344 26.6103125 -5.88867188 27.890625 C-5.94707144 30.92740262 -5.98369822 33.96275423 -6 37 C-7.89492006 37.33848652 -9.79098466 37.67056911 -11.6875 38 C-12.74324219 38.185625 -13.79898438 38.37125 -14.88671875 38.5625 C-17.64904062 38.95068074 -20.21742043 39.08259976 -23 39 C-23.08760181 34.81263332 -23.14059435 30.62550469 -23.1875 26.4375 C-23.21263672 25.25607422 -23.23777344 24.07464844 -23.26367188 22.85742188 C-23.3262539 15.41016068 -23.21667086 9.96076821 -18.37890625 4.00390625 C-12.4411158 -0.70801779 -7.35161335 -0.54270814 0 0 Z " fill="#0276BA" transform="translate(228,316)"/>
</svg>
