<?xml version="1.0" encoding="UTF-8"?>
<svg version="1.1" xmlns="http://www.w3.org/2000/svg" width="512" height="512">
<path d="M0 0 C0.84845808 -0.0072672 1.69691616 -0.01453441 2.5710851 -0.02202183 C5.42770433 -0.04033853 8.28299216 -0.02288562 11.13960266 -0.00571251 C13.20276166 -0.01147105 15.26591555 -0.01941037 17.32905865 -0.02934873 C23.00903457 -0.05028177 28.68859214 -0.03987741 34.36856985 -0.02441764 C40.49000014 -0.0131345 46.61135699 -0.03055174 52.73277283 -0.04431725 C64.0349979 -0.06529869 75.33705186 -0.06343394 86.63927272 -0.0497599 C97.07977588 -0.03719018 107.52022997 -0.03389484 117.96073914 -0.03987312 C118.99889524 -0.04044601 118.99889524 -0.04044601 120.05802419 -0.04103047 C122.86738509 -0.04258712 125.67674597 -0.04417912 128.48610682 -0.04582929 C154.84886198 -0.06112992 181.21153187 -0.0472481 207.57427387 -0.02034481 C231.00438032 0.00338387 254.43435091 0.00126076 277.86445618 -0.02264977 C304.17848324 -0.04941348 330.49243495 -0.06004488 356.80647373 -0.04458845 C359.61076417 -0.04298482 362.41505462 -0.04142062 365.21934509 -0.03987312 C365.90985072 -0.03947774 366.60035634 -0.03908235 367.31178638 -0.03867498 C377.74663047 -0.0329837 388.18142015 -0.03964626 398.61625671 -0.05227089 C410.47922567 -0.06655164 422.34203412 -0.06254395 434.20499682 -0.03586717 C440.26129057 -0.02269838 446.31730811 -0.0176289 452.37360001 -0.03411293 C457.91278873 -0.04896183 463.45144401 -0.04090775 468.99058402 -0.01422517 C470.99925317 -0.00861871 473.00796696 -0.01152875 475.01660764 -0.02360411 C477.73841543 -0.03871744 480.45837447 -0.02331196 483.18008423 0 C483.96769264 -0.01170583 484.75530106 -0.02341166 485.56677639 -0.03547221 C489.60876324 0.03415549 491.38272642 0.46115593 494.56551266 3.04111731 C497.46535504 6.74817546 497.70949272 9.42270859 497.75117493 14.01128578 C497.76078247 14.8693029 497.77039001 15.72732002 497.7802887 16.61133766 C497.78666351 17.99110031 497.78666351 17.99110031 497.79316711 19.39873695 C497.79886719 20.35310143 497.80456726 21.3074659 497.81044006 22.2907505 C497.8198778 24.30891249 497.82641917 26.32708979 497.83027649 28.34527016 C497.83997369 31.42000907 497.87100541 34.49407693 497.90254211 37.56865883 C497.90907355 39.53284758 497.91432347 41.4970411 497.91816711 43.46123695 C497.93051392 44.37500603 497.94286072 45.2887751 497.95558167 46.23023415 C497.9363625 51.7855715 497.42919541 55.79374856 494.59004211 60.6292057 C490.46802857 63.88617169 486.72456686 64.03131615 481.66426086 63.92217445 C480.91667007 63.91792961 480.16907928 63.91368477 479.39883423 63.90931129 C477.02469479 63.89259627 474.65142244 63.85495917 472.27754211 63.8167057 C470.66232005 63.80164951 469.0470846 63.78796274 467.43183899 63.77569008 C463.48424223 63.7427165 459.53728889 63.69098539 455.59004211 63.6292057 C455.37510946 95.62165732 455.23730762 127.61328308 455.20624444 159.60640547 C455.2025044 163.38874588 455.19811102 167.17108525 455.1933136 170.95342445 C455.19236956 171.70637764 455.19142552 172.45933084 455.19045287 173.23510079 C455.17363765 185.40574355 455.10397091 197.57553358 455.01455558 209.74583478 C454.92389946 222.24625341 454.89054117 234.74589202 454.90968174 247.24662912 C454.91969561 254.95271032 454.88573716 262.65596451 454.79439055 270.36152171 C454.72899058 276.28358506 454.74355424 282.2038169 454.78702545 288.12613297 C454.79249451 290.54562193 454.7725567 292.9653303 454.72458458 295.38434982 C454.11797229 309.09226035 454.11797229 309.09226035 459.84075737 321.01032066 C462.90472026 324.05851018 466.23781982 326.59472854 469.73301971 329.12269855 C485.24565533 341.70730525 495.03331424 367.45846389 497.59004211 386.6292057 C497.91758596 391.98559594 497.98061561 397.32780281 497.96504211 402.6917057 C497.96416595 403.4263102 497.96328979 404.16091469 497.96238708 404.91777992 C497.9187932 415.98368911 497.34239235 426.11596406 493.59004211 436.6292057 C493.34866516 437.32320473 493.10728821 438.01720375 492.8585968 438.73223305 C483.25975835 465.80820189 463.98928056 487.69542874 438.13471985 500.40337563 C411.9373368 512.86737283 382.15633426 515.17597355 354.59004211 505.6292057 C338.20687251 499.59759102 325.02247112 490.78329674 312.59004211 478.6292057 C311.91199524 478.00143227 311.23394836 477.37365883 310.53535461 476.72686195 C293.87506041 460.99213965 284.67421836 437.07583815 282.15254211 414.6917057 C282.07141174 413.97192543 281.99028137 413.25214516 281.9066925 412.51055336 C281.31082666 405.65925848 282.04484088 399.71682174 282.59004211 392.6292057 C271.70004211 392.6292057 260.81004211 392.6292057 249.59004211 392.6292057 C249.59004211 410.7792057 249.59004211 428.9292057 249.59004211 447.6292057 C251.57004211 447.9592057 253.55004211 448.2892057 255.59004211 448.6292057 C264.43120096 453.15760413 269.91332374 459.83848086 273.46504211 469.0042057 C275.96136671 477.5481738 275.26791872 486.54049489 271.59004211 494.6292057 C266.49822702 503.15696107 259.22007886 509.04010823 249.59004211 511.6292057 C240.70262645 512.42124482 232.35802933 512.52851714 224.59004211 507.6292057 C223.96871399 507.2785807 223.34738586 506.9279557 222.70722961 506.5667057 C216.20516883 502.51347301 212.00739945 495.80607103 209.59004211 488.6292057 C207.90443149 478.13492022 208.18636633 469.32284643 214.24238586 460.40654945 C219.53335178 453.4286089 224.99803719 449.06120652 233.59004211 447.6292057 C233.59004211 429.4792057 233.59004211 411.3292057 233.59004211 392.6292057 C223.26912292 392.64491615 223.26912292 392.64491615 212.73970032 392.66094398 C190.72907698 392.69303798 168.71845174 392.71528807 146.70781114 392.73133636 C143.28940435 392.7338378 139.87099763 392.73642644 136.45259094 392.73906898 C135.43176802 392.73985592 135.43176802 392.73985592 134.39032241 392.74065875 C123.36826156 392.74936342 112.34622155 392.76513374 101.32417307 392.7835113 C90.01611677 392.8022086 78.70807089 392.81317235 67.39999837 392.81738269 C61.04776571 392.81999354 54.69558034 392.82614408 48.34336281 392.84066582 C42.36726076 392.85421733 36.39122559 392.85843326 30.41510963 392.85542107 C28.21929054 392.85597232 26.02346925 392.85996418 23.82766342 392.86761665 C20.83405169 392.87753977 17.8406938 392.87518413 14.84707642 392.86971474 C13.53821841 392.87845326 13.53821841 392.87845326 12.20291883 392.88736832 C7.06951053 392.86194864 2.96355328 392.57887559 -1.15995789 389.1917057 C-4.82154367 384.61472348 -3.59434807 377.77723529 -3.59745789 372.2542057 C-3.60970398 371.11725258 -3.62195007 369.98029945 -3.63456726 368.8088932 C-3.63746765 367.16147133 -3.63746765 367.16147133 -3.64042664 365.4807682 C-3.64453552 364.47868324 -3.64864441 363.47659828 -3.65287781 362.44414711 C-3.38373225 359.32530464 -2.99744719 357.33816376 -1.40995789 354.6292057 C4.59004211 351.6292057 4.59004211 351.6292057 27.59004211 351.6292057 C27.59004211 256.5892057 27.59004211 161.5492057 27.59004211 63.6292057 C16.37004211 63.6292057 5.15004211 63.6292057 -6.40995789 63.6292057 C-12.40995789 58.6292057 -12.40995789 58.6292057 -13.40995789 56.6292057 C-13.52535867 55.02227892 -13.57945946 53.41075568 -13.60282898 51.79986 C-13.61889191 50.79509117 -13.63495483 49.79032234 -13.65150452 48.75510597 C-13.69590894 44.15788847 -13.73701726 39.56081595 -13.76005554 34.96343422 C-13.77662109 32.53755542 -13.80391864 30.11172555 -13.84208679 27.68609047 C-13.89680327 24.19161042 -13.9187223 20.69827497 -13.93339539 17.20342445 C-13.95606476 16.11994225 -13.97873413 15.03646004 -14.00209045 13.92014503 C-13.99924042 12.90591972 -13.99639038 11.89169441 -13.99345398 10.846735 C-14.00154083 9.95786095 -14.00962769 9.06898689 -14.01795959 8.15317726 C-12.25943143 0.85307432 -6.57589915 -0.09773431 0 0 Z " fill="#EAEAEF" transform="translate(14.409957885742188,-0.6292057037353516)"/>
<path d="M0 0 C6.38376616 2.01592616 9.25191144 7.98939844 12.41015625 13.58984375 C12.74873154 14.18624161 13.08730682 14.78263947 13.43614197 15.39710999 C14.50477272 17.28242943 15.56504188 19.1722938 16.625 21.0625 C17.33863516 22.32518507 18.05282381 23.58755748 18.76757812 24.84960938 C20.08816536 27.18291817 21.40486715 29.51825591 22.71899414 31.85522461 C23.68433949 33.56743098 24.65412429 35.27763956 25.66574097 36.96292114 C28.25054815 41.30504366 29.33158511 44.02981113 28.5625 49.125 C27 51.5625 27 51.5625 24.5625 53.125 C21.125 53.75 21.125 53.75 17.5625 53.125 C13.36615767 49.12383638 11.55531501 45.36242626 8.5625 40.125 C8.2325 100.515 7.9025 160.905 7.5625 223.125 C53.89165842 223.06356463 53.89165842 223.06356463 100.22070312 222.96484375 C106.47859627 222.94875346 112.73648996 222.93291024 118.99438477 222.91748047 C119.77862094 222.91553653 120.56285711 222.91359259 121.37085801 222.91158974 C134.00247606 222.88063854 146.63407597 222.86361397 159.26572477 222.85180578 C172.24631074 222.83935868 185.22680215 222.81177746 198.20732838 222.77038693 C206.20559834 222.74535292 214.20371132 222.73187529 222.20202101 222.73357043 C228.35347779 222.73360393 234.50470363 222.71249748 240.65608978 222.68383217 C243.16613724 222.67536448 245.67621816 222.67356175 248.18627357 222.67919731 C260.47283644 222.70309305 271.9250238 222.50811083 283.78379917 219.07846451 C287.5625 218.125 287.5625 218.125 297.5625 217.125 C297.5625 209.865 297.5625 202.605 297.5625 195.125 C291.86344833 195.24312365 291.86344833 195.24312365 286.1652832 195.39526367 C281.45001781 195.44444161 278.40012718 195.17296159 274.5625 192.125 C270.98652331 188.17909468 271.00610972 183.88968879 271.13671875 178.7890625 C271.8090364 174.58245114 273.43505245 172.9615222 276.5625 170.125 C279.84809001 167.93460666 280.85593586 167.86621471 284.6730957 167.83447266 C285.71460281 167.82171295 286.75610992 167.80895325 287.82917786 167.79580688 C288.95418198 167.79358124 290.0791861 167.79135559 291.23828125 167.7890625 C292.39619675 167.7824057 293.55411224 167.7757489 294.74711609 167.76889038 C297.19915171 167.75875736 299.65121495 167.75407356 302.10327148 167.75439453 C305.84991137 167.75002923 309.59536611 167.71373601 313.34179688 167.67578125 C315.7239543 167.66991167 318.10611733 167.66594322 320.48828125 167.6640625 C322.16667839 167.64250595 322.16667839 167.64250595 323.87898254 167.62051392 C330.07297469 167.65677896 333.89570218 167.89175092 338.5625 172.125 C341.18004723 175.96406927 342.16427588 179.41123837 341.984375 184.09765625 C341.22489432 187.74738285 339.20702609 190.5500667 336.5625 193.125 C333.66589672 194.83874599 331.58624351 195.36819634 328.234375 195.3203125 C327.5134668 195.31531738 326.79255859 195.31032227 326.04980469 195.30517578 C325.14649414 195.28696777 324.24318359 195.26875977 323.3125 195.25 C320.425 195.20875 317.5375 195.1675 314.5625 195.125 C314.5625 202.385 314.5625 209.645 314.5625 217.125 C317.2025 217.125 319.8425 217.125 322.5625 217.125 C324.9609375 217.47290039 324.9609375 217.47290039 326.9375 217.97265625 C327.68708984 218.1619873 328.43667969 218.35131836 329.20898438 218.54638672 C329.98564453 218.7579541 330.76230469 218.96952148 331.5625 219.1875 C332.38556641 219.40937988 333.20863281 219.63125977 334.05664062 219.85986328 C346.61552026 223.39597585 357.81806806 228.71445128 368.5625 236.125 C369.53703125 236.75535156 370.5115625 237.38570312 371.515625 238.03515625 C393.76033732 253.29274739 408.1573795 278.95349607 413.16552734 305.1484375 C414.00761732 311.46255866 413.95596335 317.8282578 413.9375 324.1875 C413.93662384 324.92210449 413.93574768 325.65670898 413.93484497 326.41357422 C413.89125108 337.4794834 413.31485024 347.61175835 409.5625 358.125 C409.32112305 358.81899902 409.07974609 359.51299805 408.83105469 360.22802734 C399.23221624 387.30399618 379.96173845 409.19122304 354.10717773 421.89916992 C327.90979468 434.36316712 298.12879214 436.67176784 270.5625 427.125 C254.1793304 421.09338532 240.994929 412.27909104 228.5625 400.125 C227.88445312 399.49722656 227.20640625 398.86945313 226.5078125 398.22265625 C209.8475183 382.48793395 200.64667625 358.57163244 198.125 336.1875 C198.04386963 335.46771973 197.96273926 334.74793945 197.87915039 334.00634766 C197.28328455 327.15505278 198.01729877 321.21261604 198.5625 314.125 C187.6725 314.125 176.7825 314.125 165.5625 314.125 C165.5625 332.275 165.5625 350.425 165.5625 369.125 C167.5425 369.455 169.5225 369.785 171.5625 370.125 C180.40365884 374.65339843 185.88578162 381.33427516 189.4375 390.5 C191.93382459 399.0439681 191.2403766 408.03628918 187.5625 416.125 C182.4706849 424.65275537 175.19253675 430.53590253 165.5625 433.125 C156.67508433 433.91703912 148.33048722 434.02431144 140.5625 429.125 C139.94117188 428.774375 139.31984375 428.42375 138.6796875 428.0625 C132.17762672 424.00926731 127.97985733 417.30186532 125.5625 410.125 C123.87688938 399.63071452 124.15882422 390.81864073 130.21484375 381.90234375 C135.50580967 374.92440319 140.97049508 370.55700082 149.5625 369.125 C149.5625 350.975 149.5625 332.825 149.5625 314.125 C139.24158081 314.14071045 139.24158081 314.14071045 128.7121582 314.15673828 C106.70153486 314.18883228 84.69090962 314.21108237 62.68026902 314.22713066 C59.26186223 314.2296321 55.84345551 314.23222074 52.42504883 314.23486328 C51.4042259 314.23565021 51.4042259 314.23565021 50.3627803 314.23645304 C39.34071944 314.24515772 28.31867944 314.26092804 17.29663096 314.27930559 C5.98857466 314.29800289 -5.31947122 314.30896664 -16.62754375 314.31317699 C-22.97977641 314.31578784 -29.33196178 314.32193838 -35.68417931 314.33646011 C-41.66028136 314.35001162 -47.63631652 314.35422755 -53.61243248 314.35121536 C-55.80825158 314.35176661 -58.00407286 314.35575847 -60.19987869 314.36341095 C-63.19349043 314.37333406 -66.18684831 314.37097842 -69.1804657 314.36550903 C-70.4893237 314.37424756 -70.4893237 314.37424756 -71.82462329 314.38316262 C-76.95803158 314.35774294 -81.06398884 314.07466988 -85.1875 310.6875 C-88.84908578 306.11051777 -87.62189019 299.27302959 -87.625 293.75 C-87.63724609 292.61304688 -87.64949219 291.47609375 -87.66210938 290.3046875 C-87.66404297 289.20640625 -87.66597656 288.108125 -87.66796875 286.9765625 C-87.67207764 285.97447754 -87.67618652 284.97239258 -87.68041992 283.93994141 C-87.41127437 280.82109894 -87.0249893 278.83395806 -85.4375 276.125 C-79.83884676 272.2528763 -74.20257972 272.72817542 -67.66848755 272.80220032 C-65.87832712 272.80448073 -65.87832712 272.80448073 -64.05200183 272.80680722 C-60.74745981 272.81405253 -57.44350641 272.83482814 -54.13909626 272.86134613 C-50.5727441 272.88665963 -47.00634825 272.89448649 -43.43992615 272.90444946 C-37.26357861 272.92409102 -31.08736553 272.95478334 -24.91110611 272.99300575 C-15.98131437 273.04825267 -7.05151183 273.08679575 1.87838139 273.121277 C16.36690464 273.17767491 30.85533015 273.24756043 45.34375 273.32592773 C59.41696524 273.40202033 73.49018833 273.47176087 87.56347656 273.53295898 C88.43111593 273.53673415 89.29875531 273.54050932 90.19268678 273.54439888 C94.54542726 273.5632988 98.89816828 273.58207385 103.25090957 273.60078681 C139.35487587 273.75616362 175.45870851 273.93342946 211.5625 274.125 C211.86559082 273.35027344 212.16868164 272.57554687 212.48095703 271.77734375 C217.68687898 259.01049589 228.15993264 248.79380613 238.5625 240.125 C162.3325 239.795 86.1025 239.465 7.5625 239.125 C7.5625 245.065 7.5625 251.005 7.5625 257.125 C2.5625 262.125 2.5625 262.125 -0.4375 262.75 C-4.57971298 261.88703896 -5.86951468 260.47585522 -8.4375 257.125 C-9.03587976 253.99389225 -8.91278279 250.98551232 -8.75 247.8125 C-8.72744141 246.97654297 -8.70488281 246.14058594 -8.68164062 245.27929688 C-8.6230061 243.22708851 -8.53333215 241.17580798 -8.4375 239.125 C-10.40783203 239.21201172 -10.40783203 239.21201172 -12.41796875 239.30078125 C-14.15361023 239.34769048 -15.88929023 239.39318939 -17.625 239.4375 C-18.92147461 239.5003418 -18.92147461 239.5003418 -20.24414062 239.56445312 C-24.76935536 239.65114306 -26.78480185 239.61203872 -30.515625 236.828125 C-33.02508157 233.29856413 -33.13183219 231.36814119 -32.4375 227.125 C-30.4575 225.145 -30.4575 225.145 -28.4375 223.125 C-21.8375 223.125 -15.2375 223.125 -8.4375 223.125 C-8.7675 162.735 -9.0975 102.345 -9.4375 40.125 C-11.4175 43.425 -13.3975 46.725 -15.4375 50.125 C-18.86824004 53.55574004 -18.86824004 53.55574004 -22.4375 53.5625 C-25.25772056 53.4380785 -26.16353254 53.33903708 -28.4375 51.5625 C-29.79118181 48.26290059 -30.0845575 45.59733227 -29.4375 42.125 C-27.76659076 38.27554916 -25.64939698 34.72431412 -23.5 31.125 C-22.90968994 30.11203857 -22.31937988 29.09907715 -21.71118164 28.05541992 C-20.52179071 26.02031888 -19.32550849 23.98922833 -18.12207031 21.96240234 C-16.635784 19.45897922 -15.16899709 16.94570056 -13.7109375 14.42578125 C-12.93350829 13.09564234 -12.15495947 11.76615681 -11.375 10.4375 C-10.85788452 9.54901367 -10.85788452 9.54901367 -10.33032227 8.64257812 C-5.27049377 0.19165432 -5.27049377 0.19165432 0 0 Z " fill="#2476EC" transform="translate(98.4375,77.875)"/>
<path d="M0 0 C0.84845808 -0.0072672 1.69691616 -0.01453441 2.5710851 -0.02202183 C5.42770433 -0.04033853 8.28299216 -0.02288562 11.13960266 -0.00571251 C13.20276166 -0.01147105 15.26591555 -0.01941037 17.32905865 -0.02934873 C23.00903457 -0.05028177 28.68859214 -0.03987741 34.36856985 -0.02441764 C40.49000014 -0.0131345 46.61135699 -0.03055174 52.73277283 -0.04431725 C64.0349979 -0.06529869 75.33705186 -0.06343394 86.63927272 -0.0497599 C97.07977588 -0.03719018 107.52022997 -0.03389484 117.96073914 -0.03987312 C118.99889524 -0.04044601 118.99889524 -0.04044601 120.05802419 -0.04103047 C122.86738509 -0.04258712 125.67674597 -0.04417912 128.48610682 -0.04582929 C154.84886198 -0.06112992 181.21153187 -0.0472481 207.57427387 -0.02034481 C231.00438032 0.00338387 254.43435091 0.00126076 277.86445618 -0.02264977 C304.17848324 -0.04941348 330.49243495 -0.06004488 356.80647373 -0.04458845 C359.61076417 -0.04298482 362.41505462 -0.04142062 365.21934509 -0.03987312 C365.90985072 -0.03947774 366.60035634 -0.03908235 367.31178638 -0.03867498 C377.74663047 -0.0329837 388.18142015 -0.03964626 398.61625671 -0.05227089 C410.47922567 -0.06655164 422.34203412 -0.06254395 434.20499682 -0.03586717 C440.26129057 -0.02269838 446.31730811 -0.0176289 452.37360001 -0.03411293 C457.91278873 -0.04896183 463.45144401 -0.04090775 468.99058402 -0.01422517 C470.99925317 -0.00861871 473.00796696 -0.01152875 475.01660764 -0.02360411 C477.73841543 -0.03871744 480.45837447 -0.02331196 483.18008423 0 C483.96769264 -0.01170583 484.75530106 -0.02341166 485.56677639 -0.03547221 C489.60876324 0.03415549 491.38272642 0.46115593 494.56551266 3.04111731 C497.46535504 6.74817546 497.70949272 9.42270859 497.75117493 14.01128578 C497.76078247 14.8693029 497.77039001 15.72732002 497.7802887 16.61133766 C497.78666351 17.99110031 497.78666351 17.99110031 497.79316711 19.39873695 C497.79886719 20.35310143 497.80456726 21.3074659 497.81044006 22.2907505 C497.8198778 24.30891249 497.82641917 26.32708979 497.83027649 28.34527016 C497.83997369 31.42000907 497.87100541 34.49407693 497.90254211 37.56865883 C497.90907355 39.53284758 497.91432347 41.4970411 497.91816711 43.46123695 C497.93051392 44.37500603 497.94286072 45.2887751 497.95558167 46.23023415 C497.9363625 51.7855715 497.42919541 55.79374856 494.59004211 60.6292057 C490.38510473 63.9819735 486.41565803 64.05503263 481.24534702 64.01231575 C480.40394203 64.01727527 479.56253704 64.02223478 478.69563493 64.02734458 C475.86329333 64.04034511 473.03141973 64.0319019 470.19906616 64.02361488 C468.15312265 64.02850167 466.10718189 64.03469048 464.06124586 64.04207277 C458.42890442 64.05852224 452.79670249 64.05614419 447.16434538 64.0506978 C441.09403287 64.04803379 435.02375807 64.06254752 428.95346069 64.07479286 C417.05741494 64.09587523 405.16141655 64.10040492 393.26535875 64.09860498 C383.59923715 64.09723264 373.93313035 64.10104597 364.26701164 64.10853004 C362.87896176 64.10958037 361.49091187 64.11062799 360.10286198 64.11167291 C359.06935227 64.11245192 359.06935227 64.11245192 358.01496356 64.11324668 C357.32470663 64.11376682 356.6344497 64.11428696 355.92327589 64.11482286 C355.2318761 64.11534686 354.54047631 64.11587085 353.82812501 64.11641072 C334.37846658 64.13099672 314.9288136 64.13927528 295.47914982 64.13466072 C294.74573252 64.13448877 294.01231522 64.13431681 293.25667316 64.13413965 C289.53930661 64.13325074 285.82194008 64.13230592 282.10457356 64.13134164 C281.36627436 64.1311506 280.62797517 64.13095957 279.86730328 64.13076275 C278.37428283 64.13037566 276.88126237 64.12998533 275.38824192 64.12959177 C252.15281498 64.12362071 228.91748761 64.13906359 205.68208313 64.17119789 C179.58523226 64.20725882 153.48844453 64.22660977 127.39156717 64.22165918 C124.61000757 64.22118919 121.82844797 64.22077894 119.04688835 64.22040749 C118.36198275 64.2203051 117.67707715 64.22020271 116.97141684 64.22009723 C106.62384036 64.21890147 96.27633201 64.23088156 85.92877388 64.24955177 C74.16357108 64.2707694 62.39848598 64.27419704 50.63326795 64.25525218 C44.62747224 64.24606967 38.62196184 64.24502838 32.61618805 64.26560783 C27.12198761 64.28422658 21.62830796 64.27991675 16.13412791 64.25706202 C14.14293139 64.25285321 12.15169564 64.25715218 10.16054047 64.27065796 C7.45991761 64.28773337 4.76113064 64.27418936 2.06057835 64.25282478 C1.28201433 64.26510231 0.50345031 64.27737983 -0.29870656 64.29002941 C-6.11832171 64.19342062 -8.48737265 62.63375858 -12.40995789 58.6292057 C-13.6338919 56.18133768 -13.56311954 54.53709069 -13.60282898 51.79986 C-13.61889191 50.79509117 -13.63495483 49.79032234 -13.65150452 48.75510597 C-13.69590894 44.15788847 -13.73701726 39.56081595 -13.76005554 34.96343422 C-13.77662109 32.53755542 -13.80391864 30.11172555 -13.84208679 27.68609047 C-13.89680327 24.19161042 -13.9187223 20.69827497 -13.93339539 17.20342445 C-13.95606476 16.11994225 -13.97873413 15.03646004 -14.00209045 13.92014503 C-13.99924042 12.90591972 -13.99639038 11.89169441 -13.99345398 10.846735 C-14.00154083 9.95786095 -14.00962769 9.06898689 -14.01795959 8.15317726 C-12.25943143 0.85307432 -6.57589915 -0.09773431 0 0 Z " fill="#AE583F" transform="translate(14.409957885742188,-0.6292057037353516)"/>
<path d="M0 0 C10.56 0 21.12 0 32 0 C32.25847819 6.67180825 32.50055927 13.34020955 32.7019043 20.01342773 C32.77512482 22.28035468 32.85767604 24.54700112 32.94995117 26.81323242 C33.08140013 30.08221713 33.17859612 33.35076094 33.26953125 36.62109375 C33.31721146 37.62458359 33.36489166 38.62807343 33.41401672 39.66197205 C33.54649092 45.89859284 32.59550838 49.82847449 29.1269989 55.0528717 C27.37503879 58.07975229 27.52573356 60.61238259 28 64 C28.66 64.99 29.32 65.98 30 67 C33.07736512 67.39707937 35.04805261 67.60688739 38 67 C42.10257225 63.36629315 44.43965683 57.81638325 47 53 C47.33 53 47.66 53 48 53 C48 114.05 48 175.1 48 238 C38.1 238.495 38.1 238.495 28 239 C24.6808941 241.70693271 24.6808941 241.70693271 24.5625 245.4375 C24.72614113 248.92843897 24.72614113 248.92843897 26.41796875 251.17578125 C30.31970727 253.93238017 34.07805492 253.67408952 38.75 253.75 C39.63816406 253.77964844 40.52632812 253.80929687 41.44140625 253.83984375 C43.62769449 253.91036918 45.81292768 253.96314637 48 254 C48.06058594 255.26457031 48.12117188 256.52914063 48.18359375 257.83203125 C48.26800904 259.49219871 48.35265655 261.15235437 48.4375 262.8125 C48.47681641 263.64587891 48.51613281 264.47925781 48.55664062 265.33789062 C48.59853516 266.14033203 48.64042969 266.94277344 48.68359375 267.76953125 C48.73858032 268.87711792 48.73858032 268.87711792 48.79467773 270.00708008 C48.94842141 272.207495 48.94842141 272.207495 50 275 C51.43640171 275.19573608 52.87419504 275.38127816 54.3125 275.5625 C55.11300781 275.66691406 55.91351563 275.77132813 56.73828125 275.87890625 C59.16817116 276.14755178 59.16817116 276.14755178 62 275 C64.22361068 268.32916797 63.60995288 261.02084808 64 254 C140.56 254 217.12 254 296 254 C290.54685891 260.54376931 290.54685891 260.54376931 287.3125 263.0625 C278.93721125 270.21639247 273.2994265 279.4610323 268 289 C179.56 289 91.12 289 0 289 C0 193.63 0 98.26 0 0 Z " fill="#D2D1D6" transform="translate(42,63)"/>
<path d="M0 0 C1.18935673 0.00152028 2.37871347 0.00304056 3.60411131 0.0046069 C6.89725262 0.01185205 10.1898032 0.03262736 13.48281217 0.05914581 C17.03689414 0.08445985 20.59101996 0.09228626 24.14517212 0.10224915 C30.30023899 0.12189049 36.45517094 0.15258265 42.61014938 0.19080544 C51.5091719 0.24605288 60.40820526 0.28459565 69.30732961 0.31907668 C83.7459388 0.37547428 98.1844499 0.44535973 112.62295532 0.52372742 C126.64766786 0.59982028 140.67238829 0.66956079 154.69717407 0.73075867 C155.56182645 0.73453383 156.42647883 0.738309 157.31733279 0.74219856 C161.6550892 0.76109849 165.99284614 0.77987354 170.33060336 0.79858649 C206.3101559 0.95396273 242.2895743 1.13122853 278.26895142 1.32279968 C276.96788796 5.28895577 275.52022446 9.10482325 273.89395142 12.94779968 C270.64588313 21.23133478 269.19132751 29.84040665 267.6703186 38.57963562 C267.26895142 40.32279968 267.26895142 40.32279968 266.26895142 41.32279968 C263.82091374 41.41122798 261.40050347 41.43815941 258.95254517 41.42045593 C258.30483154 41.41944885 257.65711792 41.41844177 256.98977661 41.41740417 C254.56198363 41.41215811 252.13421581 41.39819693 249.70645142 41.38529968 C241.56988892 41.35436218 241.56988892 41.35436218 233.26895142 41.32279968 C233.26895142 59.47279968 233.26895142 77.62279968 233.26895142 96.32279968 C235.24895142 96.65279968 237.22895142 96.98279968 239.26895142 97.32279968 C248.11011026 101.85119811 253.59223304 108.53207484 257.14395142 117.69779968 C259.64027601 126.24176778 258.94682802 135.23408886 255.26895142 143.32279968 C250.17713632 151.85055505 242.89898816 157.73370221 233.26895142 160.32279968 C224.38153575 161.1148388 216.03693863 161.22211112 208.26895142 156.32279968 C207.64762329 155.97217468 207.02629517 155.62154968 206.38613892 155.26029968 C199.88407813 151.20706699 195.68630875 144.49966501 193.26895142 137.32279968 C191.58334079 126.8285142 191.86527563 118.01644041 197.92129517 109.10014343 C203.21226108 102.12220287 208.6769465 97.7548005 217.26895142 96.32279968 C217.26895142 78.17279968 217.26895142 60.02279968 217.26895142 41.32279968 C206.94803223 41.33851013 206.94803223 41.33851013 196.41860962 41.35453796 C174.40798628 41.38663196 152.39736104 41.40888205 130.38672044 41.42493034 C126.96831365 41.42743178 123.54990693 41.43002042 120.13150024 41.43266296 C119.11067732 41.4334499 119.11067732 41.4334499 118.06923171 41.43425272 C107.04717086 41.4429574 96.02513085 41.45872772 85.00308237 41.47710527 C73.69502607 41.49580257 62.3869802 41.50676633 51.07890767 41.51097667 C44.72667501 41.51358752 38.37448964 41.51973806 32.02227211 41.5342598 C26.04617006 41.54781131 20.07013489 41.55202724 14.09401894 41.54901505 C11.89819984 41.5495663 9.70237856 41.55355816 7.50657272 41.56121063 C4.51296099 41.57113375 1.5196031 41.56877811 -1.47401428 41.56330872 C-2.78287229 41.57204724 -2.78287229 41.57204724 -4.11817187 41.5809623 C-9.25158017 41.55554262 -13.35753742 41.27246956 -17.48104858 37.88529968 C-21.14263437 33.30831746 -19.91543877 26.47082927 -19.91854858 20.94779968 C-19.93079468 19.81084656 -19.94304077 18.67389343 -19.95565796 17.50248718 C-19.95759155 16.40420593 -19.95952515 15.30592468 -19.96151733 14.17436218 C-19.96562622 13.17227722 -19.96973511 12.17019226 -19.97396851 11.13774109 C-19.70482295 8.01889862 -19.31853789 6.03175774 -17.73104858 3.32279968 C-12.1386382 -0.54110418 -6.52533692 -0.07418464 0 0 Z " fill="#AE583E" transform="translate(30.731048583984375,350.6772003173828)"/>
<path d="M0 0 C45.11910259 -0.08557155 90.23821432 -0.16517727 135.3573761 -0.2117157 C136.35866406 -0.21275113 136.35866406 -0.21275113 137.38018007 -0.21380747 C151.88647553 -0.22877118 166.39277186 -0.24262221 180.89906947 -0.25532665 C188.01270992 -0.26156346 195.12635013 -0.26804621 202.23999023 -0.2746582 C202.94789188 -0.275312 203.65579352 -0.27596579 204.38514672 -0.2766394 C227.34008839 -0.29795517 250.29496861 -0.33551841 273.24987304 -0.3814861 C296.8343568 -0.42862889 320.41880655 -0.45942252 344.00333663 -0.46957495 C359.20485561 -0.47615366 374.40619427 -0.49717974 389.60765664 -0.53958233 C399.56411555 -0.56594544 409.52048284 -0.5740156 419.47697415 -0.56750689 C425.22744634 -0.56429399 430.97760963 -0.56933178 436.72802734 -0.59602737 C441.98797259 -0.62026858 447.24739975 -0.62164702 452.5073683 -0.60449447 C454.41458827 -0.60237299 456.32183991 -0.60879264 458.22899707 -0.62441591 C460.8140146 -0.64436824 463.39714113 -0.63374073 465.98212719 -0.61523914 C466.72945186 -0.62837421 467.47677653 -0.64150928 468.2467474 -0.65504238 C472.11173049 -0.59216378 473.85399637 -0.11370055 476.93861705 2.28845245 C480.03133306 6.35661771 480.12677038 9.19549412 480.09765625 14.203125 C480.09443359 15.1828125 480.09121094 16.1625 480.08789062 17.171875 C480.07951172 18.18765625 480.07113281 19.2034375 480.0625 20.25 C480.05798828 21.28125 480.05347656 22.3125 480.04882812 23.375 C480.03706088 25.91672573 480.02062011 28.45833319 480 31 C435.29045928 31.05134999 390.58091535 31.09906281 345.87135315 31.12702942 C344.87893778 31.12765068 344.87893778 31.12765068 343.86647362 31.12828448 C329.4882462 31.137263 315.11001847 31.14557357 300.73179027 31.15319599 C293.68081258 31.15693803 286.62983498 31.16082769 279.57885742 31.16479492 C278.52636629 31.16538334 278.52636629 31.16538334 277.45261272 31.16598364 C254.70567878 31.17876996 231.95876719 31.20130558 209.21184679 31.22889166 C185.17593482 31.25798804 161.14003748 31.2759868 137.10410839 31.28226548 C122.70289699 31.28638666 108.30174973 31.29941411 93.90055806 31.3237494 C84.03193413 31.33957842 74.16334348 31.34440679 64.29470777 31.34050413 C58.5967218 31.33857818 52.89884809 31.34157943 47.20088196 31.35761642 C41.9865809 31.3721853 36.7724679 31.3729719 31.55815829 31.36269668 C29.66975175 31.36142621 27.7813336 31.36525717 25.89294999 31.37464955 C23.32890218 31.38666308 20.76553606 31.38021554 18.20149899 31.36914349 C17.46584572 31.37702453 16.73019246 31.38490557 15.97224668 31.39302543 C11.00640806 31.3444654 7.26776446 30.57340824 3 28 C-0.66068473 22.28992585 -0.36401068 16.68391357 -0.1875 10.0625 C-0.17396484 9.09248047 -0.16042969 8.12246094 -0.14648438 7.12304688 C-0.11138677 4.74810871 -0.06222275 2.37435622 0 0 Z " fill="#BF684D" transform="translate(32,0)"/>
<path d="M0 0 C6.38376616 2.01592616 9.25191144 7.98939844 12.41015625 13.58984375 C12.74873154 14.18624161 13.08730682 14.78263947 13.43614197 15.39710999 C14.50477272 17.28242943 15.56504188 19.1722938 16.625 21.0625 C17.33863516 22.32518507 18.05282381 23.58755748 18.76757812 24.84960938 C20.08816536 27.18291817 21.40486715 29.51825591 22.71899414 31.85522461 C23.68433949 33.56743098 24.65412429 35.27763956 25.66574097 36.96292114 C28.25054815 41.30504366 29.33158511 44.02981113 28.5625 49.125 C27 51.5625 27 51.5625 24.5625 53.125 C21.125 53.75 21.125 53.75 17.5625 53.125 C13.36615767 49.12383638 11.55531501 45.36242626 8.5625 40.125 C8.2325 100.515 7.9025 160.905 7.5625 223.125 C93.3625 223.125 179.1625 223.125 267.5625 223.125 C263.53975641 226.14205769 259.66019616 228.04885482 255.12109375 230.13671875 C252.87838156 231.2279828 251.40453014 232.27954451 249.60457897 234.04046631 C240.32241628 242.56463948 229.833674 241.15757856 217.92504883 240.94140625 C215.62790466 240.92927504 213.33073941 240.92069692 211.03356934 240.91539001 C204.82093755 240.89102856 198.60977684 240.81716915 192.39768815 240.73422241 C185.89696266 240.65590439 179.39600951 240.62337964 172.89494324 240.5859375 C161.99106552 240.5169963 151.08777126 240.41998967 140.18432617 240.30126953 C128.95851932 240.17911685 117.73276439 240.07402924 106.5065918 239.99169922 C105.81351179 239.98661044 105.12043177 239.98152165 104.40634934 239.97627866 C100.92903969 239.95085195 97.45172773 239.92575872 93.97441447 239.90083122 C65.16991735 239.69391236 36.36613986 239.42806566 7.5625 239.125 C7.62050781 240.36636719 7.67851563 241.60773438 7.73828125 242.88671875 C7.78519238 244.52860814 7.83069109 246.17053832 7.875 247.8125 C7.91689453 248.62912109 7.95878906 249.44574219 8.00195312 250.28710938 C8.09165762 254.71851138 8.01337109 256.53667742 5.23046875 260.16796875 C2.5625 262.125 2.5625 262.125 -0.4375 262.75 C-4.57971298 261.88703896 -5.86951468 260.47585522 -8.4375 257.125 C-9.03587976 253.99389225 -8.91278279 250.98551232 -8.75 247.8125 C-8.72744141 246.97654297 -8.70488281 246.14058594 -8.68164062 245.27929688 C-8.6230061 243.22708851 -8.53333215 241.17580798 -8.4375 239.125 C-10.40783203 239.21201172 -10.40783203 239.21201172 -12.41796875 239.30078125 C-14.15361023 239.34769048 -15.88929023 239.39318939 -17.625 239.4375 C-18.92147461 239.5003418 -18.92147461 239.5003418 -20.24414062 239.56445312 C-24.76935536 239.65114306 -26.78480185 239.61203872 -30.515625 236.828125 C-33.02508157 233.29856413 -33.13183219 231.36814119 -32.4375 227.125 C-30.4575 225.145 -30.4575 225.145 -28.4375 223.125 C-21.8375 223.125 -15.2375 223.125 -8.4375 223.125 C-8.7675 162.735 -9.0975 102.345 -9.4375 40.125 C-12.4075 45.075 -12.4075 45.075 -15.4375 50.125 C-18.86824004 53.55574004 -18.86824004 53.55574004 -22.4375 53.5625 C-25.25772056 53.4380785 -26.16353254 53.33903708 -28.4375 51.5625 C-29.79118181 48.26290059 -30.0845575 45.59733227 -29.4375 42.125 C-27.76659076 38.27554916 -25.64939698 34.72431412 -23.5 31.125 C-22.90968994 30.11203857 -22.31937988 29.09907715 -21.71118164 28.05541992 C-20.52179071 26.02031888 -19.32550849 23.98922833 -18.12207031 21.96240234 C-16.635784 19.45897922 -15.16899709 16.94570056 -13.7109375 14.42578125 C-12.93350829 13.09564234 -12.15495947 11.76615681 -11.375 10.4375 C-11.03025635 9.84517578 -10.6855127 9.25285156 -10.33032227 8.64257812 C-5.27049377 0.19165432 -5.27049377 0.19165432 0 0 Z " fill="#22D68A" transform="translate(98.4375,77.875)"/>
<path d="M0 0 C1.56226067 -0.01913956 1.56226067 -0.01913956 3.15608215 -0.03866577 C4.28108627 -0.04089142 5.40609039 -0.04311707 6.56518555 -0.04541016 C8.30205879 -0.05539536 8.30205879 -0.05539536 10.07402039 -0.06558228 C12.52605601 -0.07571529 14.97811924 -0.0803991 17.43017578 -0.08007812 C21.17681566 -0.08444342 24.92227041 -0.12073664 28.66870117 -0.15869141 C31.0508586 -0.16456098 33.43302163 -0.16852943 35.81518555 -0.17041016 C37.49358269 -0.19196671 37.49358269 -0.19196671 39.20588684 -0.21395874 C45.39987899 -0.1776937 49.22260647 0.05727827 53.8894043 4.29052734 C56.50695152 8.12959661 57.49118018 11.57676571 57.3112793 16.26318359 C56.55179862 19.9129102 54.53393038 22.71559405 51.8894043 25.29052734 C48.99280102 27.00427333 46.9131478 27.53372368 43.5612793 27.48583984 C42.76206055 27.47939453 41.9628418 27.47294922 41.1394043 27.46630859 C40.3144043 27.44955078 39.4894043 27.43279297 38.6394043 27.41552734 C37.79893555 27.40650391 36.9584668 27.39748047 36.0925293 27.38818359 C34.02469825 27.36468551 31.95701435 27.32881642 29.8894043 27.29052734 C29.97001021 30.9164573 30.08287247 34.54067136 30.2019043 38.16552734 C30.22446289 39.19806641 30.24702148 40.23060547 30.27026367 41.29443359 C30.30571289 42.28056641 30.34116211 43.26669922 30.37768555 44.28271484 C30.40386963 45.1939209 30.43005371 46.10512695 30.45703125 47.04394531 C30.67105591 48.15600342 30.67105591 48.15600342 30.8894043 49.29052734 C32.3744043 50.28052734 32.3744043 50.28052734 33.8894043 51.29052734 C32.71506836 51.55865234 31.54073242 51.82677734 30.33081055 52.10302734 C2.55273516 58.74093529 -21.89231974 73.46959702 -37.27270508 98.15576172 C-39.65484731 102.14513245 -41.88173603 106.21372165 -44.1105957 110.29052734 C-45.71233223 113.0162208 -47.35638848 115.6592165 -49.1105957 118.29052734 C-49.72825322 120.3241616 -49.72825322 120.3241616 -50.14575195 122.57177734 C-50.31461914 123.40902344 -50.48348633 124.24626953 -50.6574707 125.10888672 C-50.82762695 125.99382812 -50.9977832 126.87876953 -51.1730957 127.79052734 C-51.35227539 128.6909375 -51.53145508 129.59134766 -51.71606445 130.51904297 C-52.63692088 135.2848186 -53.34016265 139.93592422 -53.6105957 144.79052734 C-53.87095427 149.08978166 -54.88773319 150.37955475 -58.1105957 153.29052734 C-58.69401923 156.83283543 -58.69401923 156.83283543 -58.1105957 160.29052734 C-57.62848633 160.76506348 -57.14637695 161.23959961 -56.6496582 161.72851562 C-54.71181217 163.69525721 -54.50715909 165.01876052 -54.0480957 167.72021484 C-53.89268311 168.59242676 -53.73727051 169.46463867 -53.57714844 170.36328125 C-53.42318604 171.28802246 -53.26922363 172.21276367 -53.1105957 173.16552734 C-52.76973652 175.06685451 -52.42728952 176.96789772 -52.08325195 178.86865234 C-51.91841309 179.79484375 -51.75357422 180.72103516 -51.58374023 181.67529297 C-50.96340963 185.10407594 -50.28401651 188.50948547 -49.5480957 191.91552734 C-49.34055664 192.89779297 -49.13301758 193.88005859 -48.91918945 194.89208984 C-48.0243839 197.54624739 -47.08046766 198.36870104 -45.1105957 200.29052734 C-44.04272295 202.3922822 -43.02852687 204.52158695 -42.0480957 206.66552734 C-29.99787406 231.69065664 -6.67042256 249.58340224 19.2019043 258.66552734 C24.0099427 260.16721605 28.82237539 261.09944175 33.80737305 261.79833984 C34.83797852 262.04197266 34.83797852 262.04197266 35.8894043 262.29052734 C36.2194043 262.95052734 36.5494043 263.61052734 36.8894043 264.29052734 C8.20120975 267.55155099 -20.95682028 260.94126491 -44.1105957 243.29052734 C-48.31503516 239.83533262 -52.22142857 236.09262357 -56.1105957 232.29052734 C-56.78864258 231.66275391 -57.46668945 231.03498047 -58.1652832 230.38818359 C-77.11139935 212.49462946 -86.2699743 184.78545764 -87.1105957 159.29052734 C-87.30769675 133.35766073 -78.25312733 106.80208446 -61.1105957 87.29052734 C-60.46993164 86.49517578 -59.82926758 85.69982422 -59.16918945 84.88037109 C-50.06211395 73.97607386 -37.85578248 65.43866492 -25.1105957 59.29052734 C-24.27915039 58.85353516 -23.44770508 58.41654297 -22.59106445 57.96630859 C-17.0662057 55.20802079 -11.52914365 53.46709077 -5.5480957 52.04052734 C-4.86408691 51.8772998 -4.18007813 51.71407227 -3.4753418 51.54589844 C2.03368402 50.31745502 7.17640804 49.86182697 12.8894043 49.29052734 C12.8894043 42.03052734 12.8894043 34.77052734 12.8894043 27.29052734 C7.19035262 27.40865099 7.19035262 27.40865099 1.4921875 27.56079102 C-3.2230779 27.60996895 -6.27296852 27.33848893 -10.1105957 24.29052734 C-13.6865724 20.34462203 -13.66698598 16.05521613 -13.53637695 10.95458984 C-12.8640593 6.74797849 -11.23804326 5.12704954 -8.1105957 2.29052734 C-4.82500569 0.100134 -3.81715985 0.03174205 0 0 Z " fill="#0A66E9" transform="translate(383.110595703125,245.70947265625)"/>
<path d="M0 0 C5.28 0 10.56 0 16 0 C16.06058594 1.26457031 16.12117188 2.52914063 16.18359375 3.83203125 C16.26800904 5.49219871 16.35265655 7.15235437 16.4375 8.8125 C16.47681641 9.64587891 16.51613281 10.47925781 16.55664062 11.33789062 C16.59853516 12.14033203 16.64042969 12.94277344 16.68359375 13.76953125 C16.72025146 14.50792236 16.75690918 15.24631348 16.79467773 16.00708008 C16.94842141 18.207495 16.94842141 18.207495 18 21 C19.43640171 21.19573608 20.87419504 21.38127816 22.3125 21.5625 C23.11300781 21.66691406 23.91351563 21.77132813 24.73828125 21.87890625 C27.16817116 22.14755178 27.16817116 22.14755178 30 21 C32.22361068 14.32916797 31.60995288 7.02084808 32 0 C108.56 0 185.12 0 264 0 C258.54685891 6.54376931 258.54685891 6.54376931 255.3125 9.0625 C249.39900762 14.10240827 243.42338598 20.9987336 240.00852901 28.04614973 C237.23646379 33.54747864 237.23646379 33.54747864 233.99402559 34.73414707 C231.44493633 35.01209161 229.00289868 35.02814207 226.43925476 34.96203613 C225.47126428 34.96887153 224.5032738 34.97570693 223.50595027 34.98274946 C220.25886907 34.99593878 217.01508742 34.95191658 213.76831055 34.90820312 C211.44248025 34.90594678 209.11664424 34.9072127 206.79081726 34.91174316 C200.47263537 34.9140418 194.15566452 34.86695541 187.8377645 34.8111515 C181.90538831 34.7662553 175.97305941 34.75816867 170.04053626 34.74993652 C158.29103703 34.73243289 146.54198244 34.67920889 134.79272461 34.60351562 C123.38031233 34.53006896 111.96802087 34.47344894 100.55541992 34.43945312 C99.49999391 34.43630044 99.49999391 34.43630044 98.42324617 34.43308407 C94.89335928 34.42264367 91.36347155 34.41253403 87.83358324 34.40258884 C58.55542487 34.31967203 29.27773882 34.17657845 0 34 C0 22.78 0 11.56 0 0 Z " fill="#EAEAEF" transform="translate(74,317)"/>
<path d="M0 0 C3.76772652 5.88707268 1.00600576 13.71405196 -0.38288879 20.27964783 C-0.65162056 21.50053856 -0.65162056 21.50053856 -0.92578125 22.74609375 C-1.11464401 23.61267105 -1.30350677 24.47924835 -1.49809265 25.37208557 C-1.8958212 27.1835807 -2.29679848 28.99436542 -2.70092773 30.80444336 C-3.31565798 33.57674179 -3.90695523 36.35343787 -4.49804688 39.13085938 C-4.88919753 40.89875393 -5.28172643 42.66634425 -5.67578125 44.43359375 C-5.84886307 45.26169052 -6.02194489 46.08978729 -6.20027161 46.94297791 C-7.50211549 52.60503216 -7.50211549 52.60503216 -9.92651367 55.13696289 C-13.15563228 56.67567041 -15.48557467 56.62706076 -19 56.125 C-21.5 54.1875 -21.5 54.1875 -23 51.125 C-23.14102552 48.04166925 -22.55761233 45.15015667 -22 42.125 C-21.64258029 39.77132503 -21.28851789 37.41713822 -20.9375 35.0625 C-20.6268631 33.08304006 -20.31501257 31.10376831 -20 29.125 C-20.59425781 29.67027344 -21.18851562 30.21554688 -21.80078125 30.77734375 C-26.2120966 34.79074885 -30.66167703 38.70316273 -35.3125 42.4375 C-40.12745744 46.32885488 -44.65087171 50.45629144 -49.16552734 54.68505859 C-52.49102233 57.78236226 -55.88692543 60.72099759 -59.4375 63.5625 C-63.83647633 67.08937606 -67.9600922 70.82660491 -72.0625 74.6875 C-87.1311513 88.76328735 -87.1311513 88.76328735 -92.875 89.875 C-96.66230299 88.96604728 -97.59608265 88.16678849 -100 85.125 C-101.16617346 82.29529267 -101.93060197 79.39938073 -102.6875 76.4375 C-102.89955078 75.67244141 -103.11160156 74.90738281 -103.33007812 74.11914062 C-104.75108682 68.79820271 -105.5024919 63.60852334 -106 58.125 C-111.33771827 62.69169202 -116.43212587 67.41893699 -121.37817383 72.40551758 C-122.06702667 73.09583069 -122.75587952 73.7861438 -123.46560669 74.49737549 C-124.94588073 75.98142629 -126.42499956 77.46663013 -127.90305519 78.9528904 C-130.24186138 81.30455284 -132.58385859 83.65299572 -134.92668152 86.00065613 C-139.89144518 90.97679284 -144.85224826 95.95686629 -149.8125 100.9375 C-155.57983672 106.72844375 -161.34878861 112.51775917 -167.12195396 118.30289268 C-169.43009936 120.61752368 -171.73521606 122.93514243 -174.04023743 125.25288391 C-175.44961048 126.66588802 -176.85912329 128.07875274 -178.26879883 129.49145508 C-178.90934708 130.13716965 -179.54989532 130.78288422 -180.20985413 131.44816589 C-180.79982178 132.03820404 -181.38978943 132.62824219 -181.99763489 133.23616028 C-182.50805737 133.74880338 -183.01847986 134.26144648 -183.5443697 134.78962421 C-186.33020616 137.34531335 -187.5995181 138.13228149 -191.4375 138.0625 C-195.76420467 136.92389351 -196.49279744 135.72886685 -199 132.125 C-200.37207031 129.44604492 -200.37207031 129.44604492 -201.578125 126.60546875 C-202.23554688 125.0730957 -202.23554688 125.0730957 -202.90625 123.50976562 C-203.3496875 122.45466797 -203.793125 121.39957031 -204.25 120.3125 C-204.93835938 118.70084961 -204.93835938 118.70084961 -205.640625 117.05664062 C-206.76744584 114.41565428 -207.88695727 111.77181561 -209 109.125 C-211.76424168 109.125 -212.46355504 110.22218806 -214.5 112.0625 C-215.2115625 112.70058594 -215.923125 113.33867187 -216.65625 113.99609375 C-217.4296875 114.69863281 -218.203125 115.40117187 -219 116.125 C-220.66640443 117.62529133 -222.33307754 119.12528427 -224 120.625 C-224.845625 121.388125 -225.69125 122.15125 -226.5625 122.9375 C-229.33148899 125.42249012 -232.13197303 127.86897651 -234.9375 130.3125 C-237.30964429 132.39711164 -239.65556065 134.50928644 -242 136.625 C-245.62023723 139.89204335 -249.26983565 143.12020776 -252.94921875 146.3203125 C-255.26088797 148.35458141 -257.5353143 150.4272231 -259.8125 152.5 C-264.19768525 156.46146336 -268.72055366 160.21186457 -273.33203125 163.90625 C-275.92556593 166.06309875 -278.32298706 168.34701893 -280.75 170.6875 C-283.71450526 173.33911472 -284.79837949 174.08203169 -288.8125 174.9375 C-292 174.125 -292 174.125 -294.4375 172 C-296.28640631 168.59801239 -296.46320756 166.95004388 -296 163.125 C-294.09375 160.59765625 -294.09375 160.59765625 -291.5 158.1875 C-290.12328125 156.89199219 -290.12328125 156.89199219 -288.71875 155.5703125 C-282.82689167 150.27102613 -282.82689167 150.27102613 -280.0625 147.90234375 C-277.67535264 145.8452376 -275.33765244 143.73815228 -273 141.625 C-269.38323655 138.36109152 -265.73610392 135.13709051 -262.0625 131.9375 C-259.69035571 129.85288836 -257.34443935 127.74071356 -255 125.625 C-249.67665307 120.82592208 -244.31136661 116.0842205 -238.84765625 111.4453125 C-237.66898498 110.4430444 -236.49060923 109.44042868 -235.3125 108.4375 C-234.7153418 107.92920654 -234.11818359 107.42091309 -233.50292969 106.8972168 C-228.68977107 102.7741329 -224.02210816 98.51100696 -219.4387207 94.1340332 C-211.53320501 86.68106939 -211.53320501 86.68106939 -206.4375 85.5625 C-202.90482963 86.37773162 -201.10605554 88.30245522 -199 91.125 C-196.99091661 94.92326893 -195.33670741 98.84707241 -193.6875 102.8125 C-193.23310547 103.87017578 -192.77871094 104.92785156 -192.31054688 106.01757812 C-189 113.80856438 -189 113.80856438 -189 116.125 C-183.56091215 111.48575733 -178.41357407 106.65678633 -173.40991211 101.55322266 C-171.93684794 100.06051235 -170.46377951 98.56780624 -168.9907074 97.07510376 C-168.22276793 96.29493519 -167.45482845 95.51476662 -166.66361809 94.71095657 C-162.56315534 90.54928653 -158.44708604 86.40307835 -154.33398438 82.25390625 C-149.11606722 76.98801101 -143.90284678 71.71767976 -138.70483398 66.43212891 C-134.48758349 62.14467046 -130.25586851 57.87197478 -126.01410103 53.60877609 C-124.40394248 51.98503074 -122.79921146 50.35588438 -121.20008659 48.72127151 C-118.96730291 46.4402678 -116.71653911 44.17857593 -114.46069336 41.92041016 C-113.806474 41.2430481 -113.15225464 40.56568604 -112.47821045 39.86779785 C-109.34662312 36.770532 -107.54548365 35.27299966 -103.20484924 34.0953064 C-100 34.125 -100 34.125 -97.26171875 35.8046875 C-93.65147614 40.07791536 -92.96085929 45.93293919 -91.8125 51.25 C-91.32409163 53.42042051 -90.83081783 55.58975349 -90.33203125 57.7578125 C-90.12296143 58.71574707 -89.9138916 59.67368164 -89.69848633 60.66064453 C-89.07293587 63.34794405 -89.07293587 63.34794405 -87 66.125 C-86.26136719 65.43535156 -85.52273438 64.74570313 -84.76171875 64.03515625 C-79.82789725 59.45574295 -74.88374928 54.95856686 -69.625 50.75 C-65.23192376 47.21781479 -61.10091748 43.48596132 -57 39.625 C-52.01865164 34.93671203 -46.94899662 30.48846324 -41.59765625 26.22265625 C-38.33900661 23.59123541 -35.1685787 20.86370838 -32 18.125 C-32.6705542 18.18147705 -33.3411084 18.2379541 -34.03198242 18.29614258 C-37.08236317 18.53748269 -40.13411913 18.73784882 -43.1875 18.9375 C-44.24259766 19.02708984 -45.29769531 19.11667969 -46.38476562 19.20898438 C-54.2083602 19.67790645 -54.2083602 19.67790645 -58.23828125 16.86328125 C-60 14.125 -60 14.125 -60 10.5 C-58.65591398 5.96370968 -58.65591398 5.96370968 -56 4.125 C-53.46641103 3.28047034 -51.44419289 2.86084476 -48.82324219 2.55249023 C-47.98517029 2.45246201 -47.14709839 2.35243378 -46.28363037 2.24937439 C-44.92893646 2.09306297 -44.92893646 2.09306297 -43.546875 1.93359375 C-42.14649994 1.76924583 -42.14649994 1.76924583 -40.71783447 1.60157776 C-38.74095095 1.37055082 -36.76387352 1.14117815 -34.78662109 0.91333008 C-31.7750658 0.56539593 -28.76448316 0.20980421 -25.75390625 -0.14648438 C-23.8307834 -0.37025826 -21.90760789 -0.59358009 -19.984375 -0.81640625 C-19.08934265 -0.92263809 -18.1943103 -1.02886993 -17.27215576 -1.13832092 C-4.20268886 -2.62668054 -4.20268886 -2.62668054 0 0 Z " fill="#20D689" transform="translate(421,106.875)"/>
<path d="M0 0 C87.78 0 175.56 0 266 0 C264.5493369 4.35198929 263.0314535 8.6030936 261.375 12.875 C260.92898438 14.02742188 260.48296875 15.17984375 260.0234375 16.3671875 C259.68570312 17.23601562 259.34796875 18.10484375 259 19 C226.72704236 19.11402981 194.45414197 19.20253113 162.18102999 19.25532665 C158.37206979 19.26158028 154.56310999 19.26805188 150.75415039 19.2746582 C149.61669349 19.27662553 149.61669349 19.27662553 148.45625766 19.2786326 C136.17317316 19.3003972 123.8902055 19.33982449 111.60719035 19.38576398 C99.00640522 19.43249938 86.40568134 19.4602892 73.80481309 19.47044247 C66.02751155 19.47730774 58.25054025 19.49900108 50.47334035 19.53958233 C44.512697 19.56910303 38.55222372 19.5722815 32.59150505 19.56553841 C30.14410999 19.56691711 27.69670275 19.57690451 25.24938202 19.59602737 C21.91382158 19.62081838 18.57968665 19.61495491 15.24409485 19.60127258 C14.27035819 19.61583679 13.29662153 19.630401 12.2933777 19.64540654 C8.15402177 19.59935026 5.5568584 19.29482354 1.85974407 17.33742046 C0 14 0 14 0 0 Z " fill="#BF684E" transform="translate(43,352)"/>
<path d="M0 0 C6.63001095 5.91965263 10.64553379 13.89017894 11.578125 22.7109375 C11.90965644 32.53255631 9.66902702 40.4289189 3.32421875 48.0078125 C-3.0583112 54.43953344 -10.30516997 58.22759757 -19.46313477 58.4309082 C-26.67169933 58.4129018 -32.47978964 57.97587243 -38.703125 54.05078125 C-39.63511719 53.52484375 -39.63511719 53.52484375 -40.5859375 52.98828125 C-47.08799828 48.93504856 -51.28576767 42.22764657 -53.703125 35.05078125 C-55.38873562 24.55649577 -55.10680078 15.74442198 -49.05078125 6.828125 C-47.12433944 4.28745537 -45.09700946 2.15967946 -42.703125 0.05078125 C-41.96835938 -0.614375 -41.96835938 -0.614375 -41.21875 -1.29296875 C-29.66777216 -10.75376965 -11.26313839 -8.44735379 0 0 Z " fill="#1ED688" transform="translate(277.703125,452.94921875)"/>
<path d="M0 0 C0.33 0 0.66 0 1 0 C1 61.05 1 122.1 1 185 C-4.28 185 -9.56 185 -15 185 C-15 129.23 -15 73.46 -15 16 C-12.69 15.01 -10.38 14.02 -8 13 C-6.01701319 10.95545075 -6.01701319 10.95545075 -4.6875 8.5625 C-4.21699219 7.80066406 -3.74648437 7.03882812 -3.26171875 6.25390625 C-2.10959573 4.19577936 -1.02946796 2.12176731 0 0 Z " fill="#EAEAEF" transform="translate(89,116)"/>
<path d="M0 0 C1.56226067 -0.01913956 1.56226067 -0.01913956 3.15608215 -0.03866577 C4.28108627 -0.04089142 5.40609039 -0.04311707 6.56518555 -0.04541016 C8.30205879 -0.05539536 8.30205879 -0.05539536 10.07402039 -0.06558228 C12.52605601 -0.07571529 14.97811924 -0.0803991 17.43017578 -0.08007812 C21.17681566 -0.08444342 24.92227041 -0.12073664 28.66870117 -0.15869141 C31.0508586 -0.16456098 33.43302163 -0.16852943 35.81518555 -0.17041016 C37.49358269 -0.19196671 37.49358269 -0.19196671 39.20588684 -0.21395874 C45.39987899 -0.1776937 49.22260647 0.05727827 53.8894043 4.29052734 C56.50695152 8.12959661 57.49118018 11.57676571 57.3112793 16.26318359 C56.55179862 19.9129102 54.53393038 22.71559405 51.8894043 25.29052734 C48.72649796 27.21335808 46.32645942 27.54672213 42.64941406 27.56518555 C41.60475479 27.57471756 40.56009552 27.58424957 39.48377991 27.59407043 C38.36080002 27.59315903 37.23782013 27.59224762 36.08081055 27.59130859 C34.92193832 27.59559372 33.7630661 27.59987885 32.56907654 27.60429382 C30.11881158 27.61003563 27.66852957 27.6105385 25.21826172 27.60620117 C21.46967484 27.60304232 17.72187791 27.62649956 13.97338867 27.65185547 C11.59253029 27.65412857 9.21166979 27.65483191 6.83081055 27.65380859 C5.14937706 27.66762321 5.14937706 27.66762321 3.43397522 27.68171692 C2.38616379 27.67548813 1.33835236 27.66925934 0.25878906 27.6628418 C-0.65958237 27.66347122 -1.5779538 27.66410065 -2.52415466 27.66474915 C-6.55852423 27.08103236 -9.2158452 25.27783825 -11.9230957 22.29052734 C-13.76410616 17.63955356 -13.89792071 13.216726 -13.1105957 8.29052734 C-10.28789169 2.81815865 -6.06944169 0.05047117 0 0 Z " fill="#0B66EA" transform="translate(383.110595703125,245.70947265625)"/>
<path d="M0 0 C0.804375 0.53625 1.60875 1.0725 2.4375 1.625 C3.8915625 2.5840625 3.8915625 2.5840625 5.375 3.5625 C11.56611479 8.93561775 14.99956372 17.14237464 15.640625 25.16796875 C15.84139882 36.49495843 13.13779606 44.24326181 5.4375 52.625 C1.46381579 56.59868421 1.46381579 56.59868421 -2 56.6875 C-10.47085918 53.17519254 -14.56250278 45.44317511 -17.9375 37.3125 C-19.51472695 28.00686102 -19.49217449 19.84112415 -14.5625 11.625 C-14.18867188 10.98820312 -13.81484375 10.35140625 -13.4296875 9.6953125 C-10.45955318 5.11225755 -5.96140843 -0.87240123 0 0 Z " fill="#77F3AA" transform="translate(273.5625,450.375)"/>
<path d="M0 0 C82.5 0 165 0 250 0 C250 0.33 250 0.66 250 1 C239.11 1 228.22 1 217 1 C217 19.15 217 37.3 217 56 C211.72 56 206.44 56 201 56 C201 37.85 201 19.7 201 1 C134.67 1 68.34 1 0 1 C0 0.67 0 0.34 0 0 Z " fill="#8D8A8C" transform="translate(47,391)"/>
<path d="M0 0 C3.6875 0.25 3.6875 0.25 6.125 1.25 C8.0989386 3.77664141 8.21125276 5.96258276 8.31640625 9.1171875 C6.24511549 16.14156485 -2.76051771 19.61640581 -8.71875 22.88085938 C-13.6995825 25.76559153 -16.5685052 28.37225146 -19.24829102 33.50463867 C-21.00668165 36.38849613 -23.18461532 37.2286499 -26.3125 38.25 C-30.2290391 38.82116195 -31.95219818 38.43368328 -35.5 36.625 C-39.4504336 33.28907829 -41.00602797 30.35152246 -41.75 25.25 C-41.07957054 20.65276944 -38.8705217 17.66010824 -35.4609375 14.57421875 C-32.88398447 12.98587861 -31.67319275 13.09834577 -28.6875 13.25 C-17.36163698 12.63446397 -10.2422464 0.77299973 0 0 Z " fill="#0A56C6" transform="translate(433.3125,376.75)"/>
<path d="M0 0 C6.1563653 -0.09908722 12.3122635 -0.17157253 18.46923828 -0.21972656 C20.56241953 -0.23980659 22.65554492 -0.2670764 24.74853516 -0.30175781 C27.76218469 -0.35043434 30.77509073 -0.37300512 33.7890625 -0.390625 C34.72054108 -0.41127014 35.65201965 -0.43191528 36.61172485 -0.45318604 C42.25162092 -0.45512133 45.56492609 0.15807464 50 4 C53.24860472 8.76462025 53.28788265 12.43426871 53 18 C52.67 18 52.34 18 52 18 C52 16.02 52 14.04 52 12 C50.05565063 12.04713135 50.05565063 12.04713135 48.07202148 12.09521484 C43.24350023 12.20416017 38.41508665 12.27282243 33.58569336 12.32958984 C31.49924424 12.35968519 29.41292083 12.40057226 27.3269043 12.45263672 C24.32048476 12.52577166 21.31574331 12.5595289 18.30859375 12.5859375 C17.38227646 12.61690521 16.45595917 12.64787292 15.50157166 12.67977905 C9.790175 12.68271905 6.39755849 11.77126949 2.2625885 7.71377563 C0.44317314 5.24419056 0.07203867 3.02562416 0 0 Z " fill="#2576EC" transform="translate(387,246)"/>
<path d="M0 0 C3.6875 0.25 3.6875 0.25 6.125 1.25 C8.0989386 3.77664141 8.21125276 5.96258276 8.31640625 9.1171875 C6.42791152 15.52164789 -1.22463571 18.88943623 -6.5625 22.0625 C-7.80386719 22.81563477 -7.80386719 22.81563477 -9.0703125 23.58398438 C-15.15539966 27.25 -15.15539966 27.25 -16.3125 27.25 C-16.48265625 26.63511719 -16.6528125 26.02023437 -16.828125 25.38671875 C-18.2797897 20.27672252 -18.2797897 20.27672252 -21.5 16.1875 C-22.098125 15.878125 -22.69625 15.56875 -23.3125 15.25 C-22.13248476 11.70995428 -21.4229557 11.42399541 -18.3125 9.5859375 C-17.508125 9.10382813 -16.70375 8.62171875 -15.875 8.125 C-14.6065625 7.3825 -14.6065625 7.3825 -13.3125 6.625 C-11.64524714 5.63379784 -9.97855023 4.64165975 -8.3125 3.6484375 C-7.57 3.21192871 -6.8275 2.77541992 -6.0625 2.32568359 C-2.59788512 0.1960668 -2.59788512 0.1960668 0 0 Z " fill="#EE4648" transform="translate(433.3125,376.75)"/>
<path d="M0 0 C2.9375 2.0625 2.9375 2.0625 5 5 C5.125 8.5625 5.125 8.5625 4 12 C0.6317516 15.03321836 -3.06117971 17.41522794 -6.9375 19.75 C-8.43603516 20.67039062 -8.43603516 20.67039062 -9.96484375 21.609375 C-13.30036035 23.13761684 -15.37534119 23.38853889 -19 23 C-21.375 21.5 -21.375 21.5 -23 19 C-23.9594114 14.04304108 -23.9594114 14.04304108 -23 11 C-20.69631919 8.39240351 -17.98135675 6.75519344 -15 5 C-13.84951172 4.26716797 -13.84951172 4.26716797 -12.67578125 3.51953125 C-4.99578665 -1.13540606 -4.99578665 -1.13540606 0 0 Z " fill="#E5E7EF" transform="translate(357,424)"/>
<path d="M0 0 C2.9375 2.0625 2.9375 2.0625 5 5 C5.125 8.5625 5.125 8.5625 4 12 C0.6317516 15.03321836 -3.06117971 17.41522794 -6.9375 19.75 C-8.43603516 20.67039062 -8.43603516 20.67039062 -9.96484375 21.609375 C-13.30036035 23.13761684 -15.37534119 23.38853889 -19 23 C-21.375 21.5 -21.375 21.5 -23 19 C-23.61449207 16.19745672 -23.86509306 13.75110338 -23 11 C-19.68654166 7.91381859 -15.9331596 5.58136254 -12.0625 3.25 C-11.06347656 2.63640625 -10.06445312 2.0228125 -9.03515625 1.390625 C-5.68438664 -0.14460535 -3.64096852 -0.43103388 0 0 Z " fill="#E5E7EF" transform="translate(471,358)"/>
<path d="M0 0 C2 1.5625 2 1.5625 3 4 C3.44197207 12.10282126 -1.34530828 18.68723627 -6 25 C-8.66382888 27.42303079 -9.34603922 28 -13 28 C-16.8341267 26.72195777 -18.07313702 25.54542789 -20 22 C-19.72197247 16.47916766 -18.11995083 12.88533972 -15.1875 8.25 C-14.50042969 7.14140625 -13.81335938 6.0328125 -13.10546875 4.890625 C-9.11790333 -0.58395461 -6.71578327 -1.83157725 0 0 Z " fill="#E5E7EF" transform="translate(380,446)"/>
<path d="M0 0 C2.53088541 1.16116346 4.76442577 2.31842595 7.125 3.75 C7.73214844 4.09804688 8.33929688 4.44609375 8.96484375 4.8046875 C12.42182018 6.83820305 15.47569403 8.86031596 18 12 C18 15.92941056 17.55584616 18.1971111 15.3125 21.4375 C12.18889342 23.54804499 10.75095872 23.4471629 7 23 C4.05283472 21.63653885 1.3933596 19.91249233 -1.3125 18.125 C-2.04017578 17.66480469 -2.76785156 17.20460938 -3.51757812 16.73046875 C-8.84895476 13.30209049 -8.84895476 13.30209049 -10 11 C-10.35872645 7.12575435 -10.56710729 4.85066094 -8.375 1.5625 C-5.25394278 -0.49082712 -3.70866057 -0.37350255 0 0 Z " fill="#E5E7EF" transform="translate(458,424)"/>
<path d="M0 0 C2 1.5625 2 1.5625 3 4 C3.44710553 12.19693471 -1.50078983 18.50420782 -6 25 C-8 27 -8 27 -11.875 27.4375 C-15.18476475 27.34104055 -15.85291415 27.11838617 -18.5625 24.9375 C-20.45568821 21.06881106 -19.92548913 19.17779761 -19 15 C-17.29296875 11.578125 -17.29296875 11.578125 -15.1875 8.25 C-14.50042969 7.14140625 -13.81335938 6.0328125 -13.10546875 4.890625 C-9.11790333 -0.58395461 -6.71578327 -1.83157725 0 0 Z " fill="#E5E7EF" transform="translate(446,332)"/>
<path d="M0 0 C6.61338563 2.33230684 14.92441668 6.68555761 18.4921875 12.87890625 C18.41780039 16.44948745 17.87552317 18.33939679 15.8046875 21.25390625 C12.70512766 23.43197533 11.25284472 23.30115548 7.4921875 22.87890625 C4.74427585 21.67067629 2.26648999 20.12065008 -0.2578125 18.50390625 C-0.92941406 18.09140625 -1.60101563 17.67890625 -2.29296875 17.25390625 C-4.9224192 15.62037992 -7.31227865 14.0744401 -9.5078125 11.87890625 C-10.17217236 5.01385435 -10.17217236 5.01385435 -8.0078125 1.31640625 C-5.15267015 -0.3253006 -3.24295234 -0.58128391 0 0 Z " fill="#E6E8EF" transform="translate(343.5078125,358.12109375)"/>
<path d="M0 0 C4.51904592 1.97708259 6.42728377 5.21546665 9 9.3125 C9.49113281 10.07820313 9.98226563 10.84390625 10.48828125 11.6328125 C13.02914919 15.85566345 15.05845297 19.25544693 14 24.3125 C12.5 26.6875 12.5 26.6875 10 28.3125 C7.19423123 28.9276993 4.80278474 28.95795458 2 28.3125 C-0.125 26.4375 -0.125 26.4375 -2 23.3125 C-2.75990234 22.18521484 -2.75990234 22.18521484 -3.53515625 21.03515625 C-6.93568812 15.81779175 -9.42875797 11.63668 -9 5.3125 C-6.16242293 1.92124936 -4.43558899 0.46204052 0 0 Z " fill="#E6E8EF" transform="translate(435,444.6875)"/>
<path d="M0 0 C6.7402064 2.02206192 10.1684621 10.29761638 13.3984375 16.00390625 C14.6609292 19.15118165 14.80867539 21.38730899 14.5 24.75 C13 27.125 13 27.125 10.5 28.75 C5.50699066 29.79692131 5.50699066 29.79692131 2.5 28.75 C-0.11663274 26.09067162 -1.74401694 23.019591 -3.5 19.75 C-3.98855469 18.94949219 -4.47710937 18.14898437 -4.98046875 17.32421875 C-9.08972496 10.47545841 -9.08972496 10.47545841 -8.5 5.75 C-5.82765544 2.95336034 -3.73169312 1.11950794 0 0 Z " fill="#E6E8EF" transform="translate(368.5,330.25)"/>
<path d="M0 0 C2.65625 1.34375 2.65625 1.34375 5 4 C5.73492605 7.67578763 5.65179362 11.26414786 5.5625 15 C5.57345703 15.99773437 5.58441406 16.99546875 5.59570312 18.0234375 C5.52320195 25.23488747 5.52320195 25.23488747 3.18359375 28.65625 C-0.05365398 30.64840245 -2.28160413 30.53119941 -6 30 C-8.1875 28.65625 -8.1875 28.65625 -10 26 C-10.60150271 22.32620653 -10.55759383 18.71480191 -10.5 15 C-10.51546875 14.00226563 -10.5309375 13.00453125 -10.546875 11.9765625 C-10.5080213 4.73034775 -10.5080213 4.73034775 -8.15234375 1.34375 C-5.16842497 -0.51916844 -3.45962674 -0.56483702 0 0 Z " fill="#E7E9EF" transform="translate(407,453)"/>
<path d="M0 0 C0.99773437 -0.01546875 1.99546875 -0.0309375 3.0234375 -0.046875 C10.27073462 -0.0080155 10.27073462 -0.0080155 13.65234375 2.34765625 C15.53770117 5.35876331 15.6410111 7.01005067 15 10.5 C12.92336133 13.44190478 11.30145813 15.2385004 7.68530273 15.96508789 C4.91953009 16.13757915 2.20753756 16.13265153 -0.5625 16.0625 C-1.98079102 16.07893555 -1.98079102 16.07893555 -3.42773438 16.09570312 C-10.24467223 16.02343877 -10.24467223 16.02343877 -13.62109375 13.68359375 C-15.66148116 10.45249868 -15.53369207 8.2358445 -15 4.5 C-11.56249576 -1.09593713 -5.85788417 -0.09081991 0 0 Z " fill="#E7E9EF" transform="translate(339,394.5)"/>
<path d="M0 0 C0.99773437 -0.00257813 1.99546875 -0.00515625 3.0234375 -0.0078125 C11.6111642 0.10730448 11.6111642 0.10730448 15 3.5 C15.84286142 10.13753367 15.84286142 10.13753367 13.625 13.72265625 C9.48305853 16.52709579 5.38419987 16.07952564 0.5 16 C-0.45003906 16.01546875 -1.40007812 16.0309375 -2.37890625 16.046875 C-9.28685032 16.00801174 -9.28685032 16.00801174 -12.59375 13.65234375 C-14.4580267 10.79896469 -15 8.91837388 -15 5.5 C-11.73933688 -1.10866543 -6.51101982 -0.18506775 0 0 Z " fill="#E7E9EF" transform="translate(470,394.5)"/>
<path d="M0 0 C3.74957734 1.1804225 4.44310452 1.77447277 6.375 5.0625 C6.76318359 7.38085938 6.76318359 7.38085938 6.7734375 9.90625 C6.77730469 10.82277344 6.78117187 11.73929687 6.78515625 12.68359375 C6.77355469 13.63363281 6.76195312 14.58367187 6.75 15.5625 C6.76160156 16.51253906 6.77320313 17.46257812 6.78515625 18.44140625 C6.78128906 19.35792969 6.77742188 20.27445312 6.7734375 21.21875 C6.76836182 22.46881836 6.76836182 22.46881836 6.76318359 23.74414062 C6.28026464 26.62829058 5.43219552 27.99655046 3.375 30.0625 C-3.26772113 30.90602014 -3.26772113 30.90602014 -6.84375 28.68359375 C-9.64722217 24.55830905 -9.24396248 20.49737969 -9.1875 15.625 C-9.21134766 14.68333984 -9.23519531 13.74167969 -9.25976562 12.77148438 C-9.24985527 8.09049405 -9.14263722 5.7702003 -6.31640625 1.90625 C-3.625 0.0625 -3.625 0.0625 0 0 Z " fill="#E7E9EF" transform="translate(405.625,320.9375)"/>
<path d="M0 0 C5.61 0 11.22 0 17 0 C17 7.26 17 14.52 17 22 C11.39 22 5.78 22 0 22 C0 14.74 0 7.48 0 0 Z " fill="#0956C6" transform="translate(396,273)"/>
</svg>
