<?xml version="1.0" encoding="UTF-8"?>
<svg version="1.1" xmlns="http://www.w3.org/2000/svg" width="512" height="512">
<path d="M0 0 C1.45108658 0.00273422 1.45108658 0.00273422 2.93148804 0.00552368 C17.26440977 0.05095174 31.21023917 0.55983928 45.3125 3.3125 C46.65803955 3.55395752 46.65803955 3.55395752 48.03076172 3.80029297 C107.84088904 14.62287989 165.35495829 48.68064457 202.3125 97.3125 C202.72918945 97.85277832 203.14587891 98.39305664 203.57519531 98.94970703 C211.2584873 108.9447116 218.00092968 119.40459036 224.3125 130.3125 C224.70679199 130.98974121 225.10108398 131.66698242 225.50732422 132.36474609 C238.68961173 155.2833756 247.29510918 180.85822563 252.625 206.6875 C252.77243652 207.39817627 252.91987305 208.10885254 253.07177734 208.84106445 C256.05713763 224.48358239 256.68731582 240.11919645 256.625 256 C256.62226578 257.45058807 256.62226578 257.45058807 256.61947632 258.93048096 C256.57409245 273.243695 256.15176942 287.23971879 253.3125 301.3125 C253.13557617 302.21436035 252.95865234 303.1162207 252.77636719 304.04541016 C251.47748713 310.51849895 249.96592874 316.92138488 248.3125 323.3125 C248.10286621 324.13250488 247.89323242 324.95250977 247.67724609 325.79736328 C234.36866072 376.68554152 201.66569607 426.79528246 159.3125 458.3125 C158.19245576 459.17284837 157.07268278 460.03354995 155.953125 460.89453125 C146.49919388 468.07657762 136.58391573 474.36921986 126.3125 480.3125 C125.63525879 480.70679199 124.95801758 481.10108398 124.26025391 481.50732422 C98.34126191 496.41535371 68.84898362 505.97401819 39.3125 510.3125 C38.10787109 510.48982666 36.90324219 510.66715332 35.66210938 510.84985352 C24.00482646 512.448825 12.44063902 512.6709053 0.6875 512.625 C-0.76733292 512.62226578 -0.76733292 512.62226578 -2.2515564 512.61947632 C-16.60306055 512.57408309 -30.56692918 512.0687347 -44.6875 509.3125 C-45.58452637 509.15152832 -46.48155273 508.99055664 -47.40576172 508.82470703 C-115.45469653 496.51131556 -173.92393533 455.77364877 -213.16992188 399.53759766 C-216.97175413 393.96328955 -220.38093278 388.19033217 -223.6875 382.3125 C-224.04763184 381.68649902 -224.40776367 381.06049805 -224.77880859 380.41552734 C-243.85434817 347.09848753 -255.68867562 307.01112995 -255.890625 268.51953125 C-255.89763931 267.61899017 -255.90465363 266.7184491 -255.91188049 265.7906189 C-255.92927902 262.90202774 -255.9357324 260.01364163 -255.9375 257.125 C-255.93817474 256.13762848 -255.93884949 255.15025696 -255.93954468 254.13296509 C-255.92379657 239.64161736 -255.47091075 225.57229749 -252.6875 211.3125 C-252.44604248 209.96696045 -252.44604248 209.96696045 -252.19970703 208.59423828 C-241.37712011 148.78411096 -207.31935543 91.27004171 -158.6875 54.3125 C-158.14722168 53.89581055 -157.60694336 53.47912109 -157.05029297 53.04980469 C-147.0552884 45.3665127 -136.59540964 38.62407032 -125.6875 32.3125 C-125.01025879 31.91820801 -124.33301758 31.52391602 -123.63525391 31.11767578 C-100.7166244 17.93538827 -75.14177437 9.32989082 -49.3125 4 C-48.60182373 3.85256348 -47.89114746 3.70512695 -47.15893555 3.55322266 C-31.51641634 0.56786213 -15.88080394 -0.0623098 0 0 Z " fill="#F0F1F2" transform="translate(255.6875,-0.3125)"/>
<path d="M0 0 C1.45108658 0.00273422 1.45108658 0.00273422 2.93148804 0.00552368 C17.26440977 0.05095174 31.21023917 0.55983928 45.3125 3.3125 C46.65803955 3.55395752 46.65803955 3.55395752 48.03076172 3.80029297 C107.84088904 14.62287989 165.35495829 48.68064457 202.3125 97.3125 C202.72918945 97.85277832 203.14587891 98.39305664 203.57519531 98.94970703 C211.2584873 108.9447116 218.00092968 119.40459036 224.3125 130.3125 C224.70679199 130.98974121 225.10108398 131.66698242 225.50732422 132.36474609 C238.68961173 155.2833756 247.29510918 180.85822563 252.625 206.6875 C252.77243652 207.39817627 252.91987305 208.10885254 253.07177734 208.84106445 C256.05713763 224.48358239 256.68731582 240.11919645 256.625 256 C256.62226578 257.45058807 256.62226578 257.45058807 256.61947632 258.93048096 C256.57409245 273.243695 256.15176942 287.23971879 253.3125 301.3125 C253.13557617 302.21436035 252.95865234 303.1162207 252.77636719 304.04541016 C251.47748713 310.51849895 249.96592874 316.92138488 248.3125 323.3125 C248.10286621 324.13250488 247.89323242 324.95250977 247.67724609 325.79736328 C234.29277497 376.97570666 201.58486551 426.36333248 159.3125 458.3125 C158.43464844 459.0446875 157.55679687 459.776875 156.65234375 460.53125 C154.3125 462.3125 154.3125 462.3125 152.3125 462.3125 C152.52253662 461.17458008 152.52253662 461.17458008 152.73681641 460.01367188 C154.23376063 451.25171717 154.70869148 442.69029148 154.6875 433.8125 C154.68828552 433.1063858 154.68907104 432.40027161 154.68988037 431.67276001 C154.67009715 416.64319814 152.831003 402.12976852 150.3125 387.3125 C149.93460616 385.03780852 149.55698918 382.76307102 149.1796875 380.48828125 C148.89099266 378.76295927 148.6020752 377.03767444 148.3125 375.3125 C149.04662109 375.04622803 149.78074219 374.77995605 150.53710938 374.50561523 C174.56278717 365.76678268 197.97492345 357.22619283 218.3125 341.3125 C219.71628906 340.24902344 219.71628906 340.24902344 221.1484375 339.1640625 C233.99729881 329.13138997 244.32699868 315.6243452 247.3125 299.3125 C249.27153951 280.61721713 244.27060578 266.39854933 232.5625 251.6875 C228.33403985 246.98796472 223.2907571 243.17702303 218.3125 239.3125 C217.47976563 238.6525 216.64703125 237.9925 215.7890625 237.3125 C195.72726143 222.00380256 171.851656 213.63499824 148.3125 205.3125 C149.2327384 197.39461548 150.54746207 189.54990258 151.8515625 181.6875 C156.70129547 151.93764553 157.75914686 117.80987549 141.3125 91.3125 C132.61363931 79.43600478 122.01131352 72.37600185 107.41015625 69.62597656 C95.185355 67.79908587 83.96289156 69.35991999 72.3125 73.3125 C70.68248047 73.85583984 70.68248047 73.85583984 69.01953125 74.41015625 C48.16855559 81.90228514 29.0887808 95.05422852 12.53125 109.609375 C11.90033447 110.16254395 11.26941895 110.71571289 10.61938477 111.28564453 C9.39754794 112.3653034 8.18405246 113.45449608 6.98022461 114.55419922 C2.74920102 118.3125 2.74920102 118.3125 -1.6875 118.3125 C-3.78125 116.65234375 -3.78125 116.65234375 -6.1875 114.25 C-24.38259776 96.91558849 -46.12887104 82.99752886 -69.6875 74.3125 C-70.38246582 74.04671143 -71.07743164 73.78092285 -71.79345703 73.50708008 C-85.81357622 68.1523767 -102.48596543 66.70005354 -116.6875 72.3125 C-117.52410156 72.64121094 -118.36070312 72.96992187 -119.22265625 73.30859375 C-133.31740575 79.60439376 -142.22905093 91.49374749 -147.68920898 105.56176758 C-157.90536023 133.32829438 -156.06911322 168.47154451 -148.5546875 196.859375 C-147.78904642 199.90814397 -147.61393046 202.21197463 -147.6875 205.3125 C-148.34008789 205.53800537 -148.99267578 205.76351074 -149.66503906 205.99584961 C-173.85634061 214.40349198 -197.31090701 223.44452098 -217.6875 239.3125 C-218.6878125 240.07304687 -219.688125 240.83359375 -220.71875 241.6171875 C-232.91296089 251.25554106 -242.63815676 264.08623651 -246.6875 279.3125 C-248.72805844 299.19602833 -243.38168796 313.97583925 -231.22265625 329.44921875 C-227.18639623 334.00789147 -222.47685073 337.57821318 -217.6875 341.3125 C-216.87667969 341.9621875 -216.06585938 342.611875 -215.23046875 343.28125 C-195.26719821 358.623102 -171.2949063 367.35215225 -147.6875 375.3125 C-147.79707031 375.94671875 -147.90664062 376.5809375 -148.01953125 377.234375 C-148.58987473 380.59151876 -149.14118888 383.95135413 -149.6875 387.3125 C-149.81060547 388.06805176 -149.93371094 388.82360352 -150.06054688 389.60205078 C-152.56176931 405.10403015 -153.76080003 420.23447098 -153.875 435.9375 C-153.88813232 437.05777588 -153.90126465 438.17805176 -153.91479492 439.33227539 C-153.92225123 447.15968135 -153.08515521 454.6139142 -151.6875 462.3125 C-181.99250233 447.6478935 -207.67423537 410.77805826 -223.6875 382.3125 C-224.04763184 381.68649902 -224.40776367 381.06049805 -224.77880859 380.41552734 C-243.85434817 347.09848753 -255.68867562 307.01112995 -255.890625 268.51953125 C-255.89763931 267.61899017 -255.90465363 266.7184491 -255.91188049 265.7906189 C-255.92927902 262.90202774 -255.9357324 260.01364163 -255.9375 257.125 C-255.93817474 256.13762848 -255.93884949 255.15025696 -255.93954468 254.13296509 C-255.92379657 239.64161736 -255.47091075 225.57229749 -252.6875 211.3125 C-252.44604248 209.96696045 -252.44604248 209.96696045 -252.19970703 208.59423828 C-241.37712011 148.78411096 -207.31935543 91.27004171 -158.6875 54.3125 C-158.14722168 53.89581055 -157.60694336 53.47912109 -157.05029297 53.04980469 C-147.0552884 45.3665127 -136.59540964 38.62407032 -125.6875 32.3125 C-125.01025879 31.91820801 -124.33301758 31.52391602 -123.63525391 31.11767578 C-100.7166244 17.93538827 -75.14177437 9.32989082 -49.3125 4 C-48.60182373 3.85256348 -47.89114746 3.70512695 -47.15893555 3.55322266 C-31.51641634 0.56786213 -15.88080394 -0.0623098 0 0 Z " fill="#5ADAFC" transform="translate(255.6875,-0.3125)"/>
<path d="M0 0 C0.68239746 -0.00175232 1.36479492 -0.00350464 2.06787109 -0.00531006 C4.30487681 -0.00967989 6.54180218 -0.00680585 8.77880859 -0.00341797 C10.35191869 -0.00409287 11.92502869 -0.00506445 13.49813843 -0.00631714 C16.79141231 -0.00778793 20.08465898 -0.0056612 23.37792969 -0.00097656 C27.5634156 0.00469208 31.74883696 0.00145603 35.93432045 -0.00454903 C39.18432077 -0.00819558 42.43430629 -0.00699695 45.6843071 -0.00442123 C47.22540673 -0.00376176 48.76650777 -0.00454544 50.30760574 -0.00690079 C57.57396396 -0.01556375 64.84088102 0.03966601 72.10058594 0.37207031 C73.10938812 0.41437775 74.11819031 0.45668518 75.15756226 0.50027466 C78.54731726 1.30663276 79.69152693 2.66119777 81.80224609 5.37939453 C82.77129518 6.95486758 83.73564602 8.53399037 84.65039062 10.14160156 C85.99308756 12.45873561 87.42159695 14.71082157 88.86083984 16.96923828 C95.53584834 27.49119298 101.82365328 38.19963055 107.80224609 49.12939453 C108.29144531 50.01900879 108.78064453 50.90862305 109.28466797 51.82519531 C110.89758428 54.75835371 112.50705578 57.69336867 114.11474609 60.62939453 C114.6188501 61.54970459 115.1229541 62.47001465 115.64233398 63.41821289 C116.59721027 65.1701228 117.54612372 66.92529942 118.48828125 68.68408203 C119.33562184 70.2609983 120.19880931 71.82955043 121.08105469 73.38720703 C123.34627871 77.53510118 124.11185589 79.61341148 122.80224609 84.12939453 C122.00775634 85.99074115 121.15003263 87.82575297 120.24755859 89.63720703 C119.72097656 90.69657471 119.19439453 91.75594238 118.65185547 92.84741211 C118.08273437 93.97171631 117.51361328 95.09602051 116.92724609 96.25439453 C116.34007812 97.4193042 115.75291016 98.58421387 115.14794922 99.78442383 C110.05755213 109.79255725 104.62331514 119.53080239 98.80224609 129.12939453 C98.27066895 130.01030762 97.7390918 130.8912207 97.19140625 131.79882812 C93.93069153 137.18728934 90.62315443 142.54247573 87.24462891 147.85791016 C86.34876297 149.2687322 85.45892347 150.68342354 84.57861328 152.10400391 C83.5759453 153.71291549 82.53470057 155.2976203 81.48974609 156.87939453 C80.95736328 157.69923828 80.42498047 158.51908203 79.87646484 159.36376953 C73.83989159 164.5022462 61.56764875 162.27396139 53.94677734 162.26220703 C52.39751673 162.26288216 50.84825622 162.26385392 49.29899597 162.2651062 C46.05877672 162.26657555 42.81858515 162.26445468 39.57836914 162.25976562 C35.4612928 162.25409277 31.34428203 162.25733667 27.22720814 162.26333809 C24.0278221 162.26698487 20.8284511 162.26578599 17.62906456 162.2632103 C16.11308471 162.26255111 14.59710342 162.26333345 13.08112526 162.26568985 C8.31956679 162.27146434 3.56292067 162.22531853 -1.19775391 162.12939453 C-2.43983109 162.108694 -3.68190826 162.08799347 -4.96162415 162.06666565 C-6.11591415 162.01864304 -7.27020416 161.97062042 -8.45947266 161.92114258 C-9.46671387 161.88522507 -10.47395508 161.84930756 -11.51171875 161.81230164 C-16.14029167 160.63551684 -17.99186659 157.20215024 -20.39550781 153.29882812 C-20.99024902 152.25291504 -21.58499023 151.20700195 -22.19775391 150.12939453 C-23.46807208 148.15388816 -24.74284382 146.18123875 -26.02197266 144.21142578 C-27.3164275 142.12572196 -28.60397185 140.03571642 -29.88525391 137.94189453 C-30.57369385 136.81912109 -31.26213379 135.69634766 -31.97143555 134.53955078 C-38.27455793 124.19550387 -44.13445497 113.62896925 -49.74902344 102.89648438 C-50.70654487 101.06760875 -51.67095538 99.24232167 -52.64257812 97.42089844 C-53.96803219 94.93561407 -55.27382628 92.4411232 -56.57275391 89.94189453 C-56.96068115 89.21744141 -57.3486084 88.49298828 -57.74829102 87.74658203 C-59.83231513 83.65027809 -60.45525245 81.51685016 -59.19775391 77.12939453 C-58.41769538 75.36219437 -57.5717057 73.6232962 -56.67822266 71.91064453 C-56.15687744 70.90686768 -55.63553223 69.90309082 -55.09838867 68.86889648 C-54.5330542 67.79986084 -53.96771973 66.7308252 -53.38525391 65.62939453 C-52.50728149 63.95913208 -52.50728149 63.95913208 -51.61157227 62.25512695 C-43.86803168 47.61406645 -35.68758269 33.30899299 -26.82275391 19.31689453 C-26.25177979 18.41559814 -25.68080566 17.51430176 -25.0925293 16.58569336 C-23.486726 14.08216307 -21.847548 11.60408567 -20.19775391 9.12939453 C-19.70243164 8.34516113 -19.20710938 7.56092773 -18.69677734 6.75292969 C-18.20983398 6.0276709 -17.72289062 5.30241211 -17.22119141 4.55517578 C-16.80530762 3.91620361 -16.38942383 3.27723145 -15.9609375 2.61889648 C-11.89596175 -0.81511307 -5.08432265 0.00330393 0 0 Z " fill="#5ADAFC" transform="translate(224.19775390625,208.87060546875)"/>
<path d="M0 0 C0.30683716 0.97549805 0.30683716 0.97549805 0.61987305 1.97070312 C5.65631792 17.84246698 11.35188848 33.26952761 17.74487305 48.63671875 C18.01970016 49.29869766 18.29452728 49.96067657 18.5776825 50.64271545 C19.32662576 52.44235503 20.08109242 54.23969314 20.8359375 56.03686523 C23.24947485 62.18055292 23.24947485 62.18055292 22.35424805 65.12109375 C21.99371338 65.88550781 21.63317871 66.64992188 21.26171875 67.4375 C20.85832275 68.31897705 20.45492676 69.2004541 20.03930664 70.10864258 C19.59321045 71.06279053 19.14711426 72.01693848 18.6875 73 C14.55947638 82.13656436 10.90837165 91.36149483 7.5625 100.8125 C7.1502417 101.97330078 6.7379834 103.13410156 6.31323242 104.33007812 C4.03075591 110.83826512 1.90652484 117.37175189 0 124 C-5.50690634 123.40583379 -10.31922701 122.06001403 -15.5 120.125 C-16.31170654 119.82182861 -17.12341309 119.51865723 -17.9597168 119.20629883 C-40.73906459 110.46355888 -70.04329543 97.65203707 -81.31640625 74.26953125 C-84.92144758 65.16271954 -84.91025938 58.84417646 -81.32421875 49.734375 C-79.15873895 45.26288279 -76.297446 41.68820363 -73 38 C-72.47277344 37.36835938 -71.94554687 36.73671875 -71.40234375 36.0859375 C-56.46966053 19.55453876 -22.63786831 0 0 0 Z " fill="#5ADAFC" transform="translate(115,228)"/>
<path d="M0 0 C1.17151611 -0.02235718 1.17151611 -0.02235718 2.36669922 -0.04516602 C9.79662094 0.08895669 16.06943559 3.0058609 21.625 7.97265625 C30.75887963 18.07452855 34.20895803 31.9869301 34.23046875 45.27734375 C34.23546135 46.37653893 34.23546135 46.37653893 34.24055481 47.49794006 C34.24559841 49.04687885 34.24796393 50.59582841 34.24780273 52.14477539 C34.2499645 54.46194531 34.26807839 56.7786188 34.28710938 59.09570312 C34.32410427 68.77096794 33.6162003 77.99431315 32.0625 87.5625 C31.91546631 88.50456299 31.76843262 89.44662598 31.61694336 90.41723633 C31.24018593 92.78131557 30.84416866 95.14090679 30.4375 97.5 C30.3034375 98.29083984 30.169375 99.08167969 30.03125 99.89648438 C29.71068027 101.78555602 29.38696837 103.67409408 29.0625 105.5625 C25.04675767 106.61805864 22.07956744 106.42422442 18.01953125 105.63671875 C16.86259766 105.41693359 15.70566406 105.19714844 14.51367188 104.97070312 C13.31291016 104.73287109 12.11214844 104.49503906 10.875 104.25 C9.10286133 103.9106543 9.10286133 103.9106543 7.29492188 103.56445312 C-1.83088846 101.81007297 -1.83088846 101.81007297 -5.59692383 100.9675293 C-10.08683373 99.97552533 -14.32378477 99.44599398 -18.92578125 99.30859375 C-36.57802847 98.61935499 -36.57802847 98.61935499 -41.99609375 93.1484375 C-44.85366588 89.61539357 -47.19894045 85.78973468 -49.50146484 81.87890625 C-51.83879363 78.1086622 -54.65735415 74.77088165 -57.5 71.375 C-58.57307528 70.06393189 -59.64599322 68.75273498 -60.71875 67.44140625 C-63.94669059 63.53736956 -67.21014295 59.66447382 -70.5 55.8125 C-71.23295288 54.95362183 -71.23295288 54.95362183 -71.98071289 54.07739258 C-74.52661036 51.11984834 -77.13535615 48.27893121 -79.9375 45.5625 C-78.67171912 41.76515737 -77.00277709 40.77341952 -73.875 38.3125 C-70.52662133 35.66385264 -67.27324992 32.9825894 -64.09375 30.1328125 C-60.10938645 26.62849844 -55.92646095 23.60586743 -51.5 20.6875 C-50.72358154 20.17501709 -49.94716309 19.66253418 -49.1472168 19.13452148 C-34.05145386 9.32372665 -18.41060093 0.25912805 0 0 Z " fill="#5ADAFC" transform="translate(352.9375,91.4375)"/>
<path d="M0 0 C5.21149194 16.11496797 6.30510504 32.37637365 6.4375 49.1875 C6.44953461 49.94151093 6.46156921 50.69552185 6.47396851 51.47238159 C6.69371311 67.56533927 4.58672255 84.14713891 -5.375 97.375 C-8.44275134 100.44275134 -11.13963729 102.03472444 -15 104 C-15.56589844 104.35964844 -16.13179688 104.71929687 -16.71484375 105.08984375 C-27.46776341 109.37263055 -42.38198592 105.431757 -52.43359375 101.1484375 C-63.02219004 96.4417984 -72.62288482 90.77824486 -82 84 C-83.05832031 83.2471875 -84.11664063 82.494375 -85.20703125 81.71875 C-91.41798971 77.19009223 -97.12623048 72.31767801 -102.72265625 67.06640625 C-105.01858674 64.88048651 -105.01858674 64.88048651 -108 63 C-106.40198456 59.1373684 -103.77809555 56.41835993 -100.9375 53.4375 C-95.69482338 47.82309953 -90.79778253 42.00116077 -86 36 C-85.01873288 34.78735264 -84.03693191 33.57513714 -83.0546875 32.36328125 C-82.0153093 31.07577563 -80.97624445 29.78801698 -79.9375 28.5 C-79.23185913 27.62927856 -79.23185913 27.62927856 -78.51196289 26.7409668 C-78.04266357 26.15613525 -77.57336426 25.57130371 -77.08984375 24.96875 C-76.58533691 24.35974854 -76.08083008 23.75074707 -75.56103516 23.12329102 C-73.89045458 20.96807088 -73.89045458 20.96807088 -72.56005859 18.20288086 C-70.35658076 14.29107786 -68.35109782 10.92650584 -64.01022339 9.21588135 C-58.03102771 7.65041041 -51.88729695 7.14081398 -45.75 6.5625 C-43.02401382 6.2621259 -40.29994186 5.94762214 -37.57580566 5.63095093 C-35.76846741 5.42167313 -33.96042596 5.21837943 -32.1517334 5.02114868 C-24.79275823 4.19020838 -17.59250151 2.85649248 -10.35638428 1.29188538 C-9.57909973 1.1245842 -8.80181519 0.95728302 -8.00097656 0.78491211 C-7.32246643 0.63364365 -6.6439563 0.48237518 -5.94488525 0.32652283 C-4 0 -4 0 0 0 Z " fill="#5ADAFC" transform="translate(381,382)"/>
<path d="M0 0 C28.53671435 5.70398758 60.87027473 20.69484023 78.52734375 44.61328125 C82.45969663 50.98640488 85.36765106 58.45676991 84 66 C81.98819152 73.98771296 78.45784262 79.90074425 73 86 C72.49984375 86.58136719 71.9996875 87.16273438 71.484375 87.76171875 C56.02438511 104.51004113 33.01138617 113.65758782 12 121 C11.17145508 121.29277832 10.34291016 121.58555664 9.48925781 121.88720703 C8.69100586 122.16290527 7.89275391 122.43860352 7.0703125 122.72265625 C6.35891113 122.96894775 5.64750977 123.21523926 4.91455078 123.46899414 C3 124 3 124 0 124 C-0.27561768 123.13648926 -0.55123535 122.27297852 -0.83520508 121.38330078 C-6.75594925 102.94612051 -13.10774356 84.99837188 -21.05126953 67.31713867 C-23.27421662 61.8879079 -23.27421662 61.8879079 -22.29418945 58.71459961 C-21.90448975 57.86905518 -21.51479004 57.02351074 -21.11328125 56.15234375 C-20.6747583 55.17056152 -20.23623535 54.1887793 -19.78442383 53.17724609 C-19.29868896 52.10812988 -18.8129541 51.03901367 -18.3125 49.9375 C-13.39024187 38.76312469 -9.21696457 27.44060368 -5.3125 15.875 C-4.91135483 14.68787918 -4.91135483 14.68787918 -4.50210571 13.47677612 C-2.98852126 8.98875236 -1.4884799 4.49640887 0 0 Z " fill="#5ADAFC" transform="translate(397,228)"/>
<path d="M0 0 C6.59808582 0.54340241 12.96748504 1.48870848 19.4375 2.875 C26.16836929 4.26480279 32.90025349 5.54239747 39.6875 6.625 C40.46746338 6.75745117 41.24742676 6.88990234 42.05102539 7.02636719 C45.91021234 7.65194224 49.5990075 8.05853411 53.51171875 8.03125 C63.7496946 8.12208266 63.7496946 8.12208266 67.78808594 11.4921875 C71.49874416 15.52393993 74.45008328 20.06182366 77.421875 24.64990234 C79.96459016 28.43643949 82.84493964 31.92591643 85.75 35.4375 C86.29253418 36.10217285 86.83506836 36.7668457 87.39404297 37.45166016 C92.42506027 43.59248329 97.70384468 49.49332381 103.140625 55.27734375 C104.12289062 56.34662109 104.12289062 56.34662109 105.125 57.4375 C105.70507812 58.05496094 106.28515625 58.67242187 106.8828125 59.30859375 C107.25148438 59.86675781 107.62015625 60.42492187 108 61 C106.73421912 64.79734263 105.06527709 65.78908048 101.9375 68.25 C98.59111105 70.89707344 95.34058474 73.57650148 92.1640625 76.42578125 C88.14266171 79.96339375 83.90860493 82.99721179 79.4375 85.9375 C78.65592529 86.45256104 77.87435059 86.96762207 77.0690918 87.49829102 C59.28539986 99.06464106 40.7706736 108.0428683 19 106 C15.84290574 105.15443181 13.58852034 103.96571846 11 102 C9.453125 100.948125 9.453125 100.948125 7.875 99.875 C-1.26105409 91.65751656 -4.33783222 78.71806475 -6 67 C-6.1139757 64.40515332 -6.18670389 61.83711829 -6.203125 59.2421875 C-6.21004868 58.50517105 -6.21697235 57.7681546 -6.22410583 57.00880432 C-6.2413622 54.63081531 -6.24769775 52.25304876 -6.25 49.875 C-6.25133942 49.06620392 -6.25267883 48.25740784 -6.25405884 47.42410278 C-6.24818709 31.10934316 -4.90475773 15.65049209 0 0 Z " fill="#5ADAFC" transform="translate(131,382)"/>
<path d="M0 0 C0.721875 -0.01224609 1.44375 -0.02449219 2.1875 -0.03710938 C10.98311737 -0.06058522 18.54243723 2.12408231 26.5 5.75 C27.27778809 6.10223633 28.05557617 6.45447266 28.85693359 6.81738281 C46.25468865 14.87551462 61.83346274 26.06702522 75.73828125 39.2265625 C77.91556146 41.32569793 77.91556146 41.32569793 80.875 43.1875 C79.24749777 47.21291973 76.39881347 49.98864918 73.4375 53.0625 C67.64923924 59.20119462 62.44610298 65.6595729 57.30761719 72.34326172 C54.2679229 76.2563242 51.13979983 80.10016131 48.02148438 83.95068359 C47.55291016 84.53285645 47.08433594 85.1150293 46.6015625 85.71484375 C46.19502441 86.21749756 45.78848633 86.72015137 45.36962891 87.23803711 C43.87943307 89.09696089 43.87943307 89.09696089 42.87295532 90.90637207 C40.56959235 94.64674343 39.51980291 95.98234707 35.18408203 97.36181641 C33.75382581 97.53590547 32.31922441 97.67654273 30.8828125 97.7890625 C30.10782913 97.87669357 29.33284576 97.96432465 28.53437805 98.05461121 C26.88014724 98.2390382 25.22432724 98.40965278 23.56735229 98.5675354 C19.26049727 98.97847511 14.96516213 99.48764206 10.66796875 99.98828125 C9.39775627 100.13244728 9.39775627 100.13244728 8.10188293 100.27952576 C0.11966303 101.211827 -7.62214993 102.77484602 -15.43505859 104.66455078 C-19.41804724 105.62596183 -22.98789268 106.48361198 -27.125 106.1875 C-32.13402874 89.60355349 -33.53686161 72.92741193 -33.625 55.6875 C-33.63517151 54.88883514 -33.64534302 54.09017029 -33.65582275 53.26730347 C-33.83080435 36.18861776 -31.60654625 18.95931477 -19.125 6.1875 C-12.76165768 1.57438936 -7.88987716 0.00682515 0 0 Z " fill="#5ADAFC" transform="translate(158.125,91.8125)"/>
<path d="M0 0 C3.90365315 2.17824992 7.32430079 4.51095173 10.66015625 7.484375 C11.25183594 7.96132812 11.84351563 8.43828125 12.453125 8.9296875 C18.68355723 14.40366549 25.06299791 25.10007205 25.85302734 33.54638672 C26.38028645 49.04141329 25.45587363 61.40599813 14.66015625 73.484375 C14.16 74.08765625 13.65984375 74.6909375 13.14453125 75.3125 C6.94602071 82.23316711 -3.28227839 87.74603329 -12.5871582 88.71948242 C-27.76366633 89.54154943 -39.58802948 87.78314499 -51.33984375 77.484375 C-52.24669922 76.73414063 -52.24669922 76.73414063 -53.171875 75.96875 C-60.86271605 69.06542426 -66.15227491 58.04025625 -66.7109375 47.7265625 C-67.03982669 33.33431803 -65.05762996 22.60422986 -55.33984375 11.484375 C-54.86289063 10.89140625 -54.3859375 10.2984375 -53.89453125 9.6875 C-41.00781699 -4.94766293 -17.20928075 -7.90516638 0 0 Z " fill="#F1F1F2" transform="translate(276.33984375,247.515625)"/>
<path d="M0 0 C3.2686755 1.43734168 5.43909364 3.21603706 8 5.6875 C24.78499074 21.05509152 43.888829 32.5951786 64 43 C61.19141934 44.87238711 59.89690217 45.39146784 56.7109375 46 C55.84984375 46.165 54.98875 46.33 54.1015625 46.5 C52.75191406 46.7475 52.75191406 46.7475 51.375 47 C50.1065625 47.2475 50.1065625 47.2475 48.8125 47.5 C32.97575956 50.47229146 17.45910486 51.37379574 1.375 51.3125 C-0.0778389 51.31026428 -0.0778389 51.31026428 -1.56002808 51.3079834 C-15.89323199 51.26834356 -29.89957899 50.78690012 -44 48 C-44.91104492 47.82355957 -45.82208984 47.64711914 -46.76074219 47.46533203 C-52.19507594 46.39743755 -57.60262103 45.24070438 -63 44 C-59.54464818 41.13949356 -55.71108051 39.34282206 -51.6875 37.4375 C-32.37571871 28.01248467 -16.01503686 14.13221786 0 0 Z " fill="#5ADAFC" transform="translate(255,461)"/>
<path d="M0 0 C2.43961827 3.08403708 4.34334501 6.28295028 6.22265625 9.734375 C6.83939209 10.85924316 7.45612793 11.98411133 8.09155273 13.14306641 C8.41372772 13.73291321 8.73590271 14.32276001 9.06784058 14.93048096 C14.53411945 24.92988203 20.15999934 34.77127433 26.33984375 44.3515625 C28 47 28 47 28 48 C20.91608546 48.3262894 14.47825244 47.08786861 7.5625 45.625 C5.94118164 45.29242188 5.94118164 45.29242188 4.28710938 44.953125 C-1.82185894 43.6935439 -7.91476802 42.36933716 -14 41 C-11.98651885 31.99819044 -9.14635898 23.49177841 -5.875 14.875 C-5.41996094 13.658125 -4.96492187 12.44125 -4.49609375 11.1875 C-1.1933245 2.386649 -1.1933245 2.386649 0 0 Z " fill="#5DDAFC" transform="translate(151,318)"/>
<path d="M0 0 C3.86521372 3.86521372 5.08075325 9.81650381 6.9375 14.875 C7.60168945 16.64230469 7.60168945 16.64230469 8.27929688 18.4453125 C11.02384716 25.87318631 13.26380175 33.27351894 15 41 C5.99050466 43.27256156 -3.0073723 45.29065048 -12.1875 46.75 C-12.97616455 46.87737549 -13.7648291 47.00475098 -14.57739258 47.13598633 C-18.76057237 47.77572457 -22.75350158 48.13545449 -27 48 C-23.795123 41.95472222 -20.44009719 36.02724085 -16.875 30.1875 C-10.87598617 20.3362942 -5.4645125 10.15394644 0 0 Z " fill="#5DDAFC" transform="translate(360,318)"/>
<path d="M0 0 C-3.204877 6.04527778 -6.55990281 11.97275915 -10.125 17.8125 C-16.12401383 27.6637058 -21.5354875 37.84605356 -27 48 C-28.83508368 45.24737447 -29.87496221 42.95407497 -31.0234375 39.87890625 C-31.405 38.85990234 -31.7865625 37.84089844 -32.1796875 36.79101562 C-32.57414063 35.72560547 -32.96859375 34.66019531 -33.375 33.5625 C-33.76171875 32.53189453 -34.1484375 31.50128906 -34.546875 30.43945312 C-42 10.44356911 -42 10.44356911 -42 7 C-32.96899609 4.9191722 -23.93289688 2.9031548 -14.8125 1.25 C-14.13131104 1.12262451 -13.45012207 0.99524902 -12.74829102 0.86401367 C-8.45406403 0.10795421 -4.35538372 -0.11298012 0 0 Z " fill="#5CDAFC" transform="translate(179,214)"/>
<path d="M0 0 C8.49403064 3.60524412 14.71382623 13.98215667 20.5 20.9375 C21.12374512 21.68330322 21.74749023 22.42910645 22.39013672 23.19750977 C22.9729541 23.90447998 23.55577148 24.6114502 24.15625 25.33984375 C24.68025391 25.97269287 25.20425781 26.60554199 25.74414062 27.25756836 C27 29 27 29 28 32 C10.18 32 -7.64 32 -26 32 C-24.02513638 28.05027276 -21.6697178 25.05139706 -18.8125 21.75 C-18.31854736 21.1729834 -17.82459473 20.5959668 -17.31567383 20.00146484 C-14.09197938 16.24250554 -10.84350296 12.50500336 -7.5703125 8.7890625 C-5.01941479 5.88281586 -2.51150825 2.94030235 0 0 Z " fill="#5CDAFC" transform="translate(255,153)"/>
<path d="M0 0 C17.82 0 35.64 0 54 0 C52.02513638 3.94972724 49.6697178 6.94860294 46.8125 10.25 C46.31854736 10.8270166 45.82459473 11.4040332 45.31567383 11.99853516 C42.09197938 15.75749446 38.84350296 19.49499664 35.5703125 23.2109375 C33.01941479 26.11718414 30.51150825 29.05969765 28 32 C19.50596936 28.39475588 13.28617377 18.01784333 7.5 11.0625 C6.87625488 10.31669678 6.25250977 9.57089355 5.60986328 8.80249023 C5.0270459 8.09552002 4.44422852 7.3885498 3.84375 6.66015625 C3.05774414 5.71088257 3.05774414 5.71088257 2.25585938 4.74243164 C1 3 1 3 0 0 Z " fill="#5CDAFC" transform="translate(229,395)"/>
<path d="M0 0 C14.20138333 0.88950349 28.14157178 3.90326723 42 7 C39.93382003 15.14060667 37.32736321 22.99269774 34.4375 30.875 C33.83905273 32.52628906 33.83905273 32.52628906 33.22851562 34.2109375 C31.5478907 38.83476032 29.84664938 43.43951594 28 48 C25.56038173 44.91596292 23.65665499 41.71704972 21.77734375 38.265625 C20.85223999 36.57832275 20.85223999 36.57832275 19.90844727 34.85693359 C19.58627228 34.26708679 19.26409729 33.67723999 18.93215942 33.06951904 C13.46588055 23.07011797 7.84000066 13.22872567 1.66015625 3.6484375 C0 1 0 1 0 0 Z " fill="#5CDAFC" transform="translate(333,214)"/>
<path d="M0 0 C1.32 0.66 2.64 1.32 4 2 C1.54379149 3.17133058 -0.91474917 4.33721722 -3.375 5.5 C-4.07367188 5.83386719 -4.77234375 6.16773438 -5.4921875 6.51171875 C-10.7734375 9 -10.7734375 9 -13 9 C-12 6 -12 6 -9.53125 4.6484375 C-8.5309375 4.22820312 -7.530625 3.80796875 -6.5 3.375 C-2.99743998 2.08477616 -2.99743998 2.08477616 0 0 Z " fill="#CEECF4" transform="translate(371,482)"/>
<path d="M0 0 C1.65161581 0.75836443 3.29617138 1.53212076 4.9375 2.3125 C5.85402344 2.74175781 6.77054688 3.17101562 7.71484375 3.61328125 C10 5 10 5 11 8 C6.0276578 6.50829734 1.58154261 4.39542583 -3 2 C-2.01 1.34 -1.02 0.68 0 0 Z " fill="#CAEBF4" transform="translate(138,481)"/>
</svg>
