<?xml version="1.0" encoding="UTF-8"?>
<svg version="1.1" xmlns="http://www.w3.org/2000/svg" width="512" height="512">
<path d="M0 0 C0.7321875 -0.02191406 1.464375 -0.04382812 2.21875 -0.06640625 C8.34194013 1.621665 11.20229283 8.09741906 14.15722656 13.21777344 C14.7240918 14.2184082 15.29095703 15.21904297 15.875 16.25 C16.47280273 17.2905957 17.07060547 18.33119141 17.68652344 19.40332031 C18.96239702 21.62502035 20.23509046 23.84854917 21.50488281 26.07373047 C23.54837238 29.65280263 25.61238824 33.21979791 27.6796875 36.78515625 C33.05968995 46.07136914 33.05968995 46.07136914 35.515625 50.328125 C36.30888184 51.70145996 36.30888184 51.70145996 37.11816406 53.10253906 C39.8423094 57.95209532 41.64547436 61.84646955 40.5 67.5625 C38.32425584 70.25355198 36.58934144 72.01782928 33.5 73.5625 C27.89 73.5625 22.28 73.5625 16.5 73.5625 C16.5 199.6225 16.5 325.6825 16.5 455.5625 C142.56 455.5625 268.62 455.5625 398.5 455.5625 C398.5 449.9525 398.5 444.3425 398.5 438.5625 C401.5 433.5625 401.5 433.5625 404.5 431.5625 C411.49046224 430.76402048 415.55876801 432.6664348 421.5 436.1875 C422.35086182 436.67387939 423.20172363 437.16025879 424.07836914 437.66137695 C426.89565774 439.27826226 429.69752555 440.92009123 432.5 442.5625 C434.5605147 443.75248589 436.62172756 444.9412636 438.68359375 446.12890625 C444.64313452 449.57195921 450.57696009 453.05709447 456.5 456.5625 C457.25651855 457.00851562 458.01303711 457.45453125 458.79248047 457.9140625 C460.65847813 459.01772914 462.51834145 460.13071478 464.375 461.25 C465.82519531 462.12205078 465.82519531 462.12205078 467.3046875 463.01171875 C469.5 464.5625 469.5 464.5625 471.5 467.5625 C471.8359375 469.6484375 471.8359375 469.6484375 471.875 471.9375 C471.90335938 472.68773437 471.93171875 473.43796875 471.9609375 474.2109375 C471.13099387 478.44505669 468.35658537 480.97270678 464.88818359 483.36083984 C463.90156738 483.90949707 462.91495117 484.4581543 461.8984375 485.0234375 C460.78057861 485.65314453 459.66271973 486.28285156 458.51098633 486.93164062 C457.29925736 487.60074321 456.08725533 488.26935151 454.875 488.9375 C452.98767606 489.98917399 451.1019646 491.04369109 449.21656799 492.09881592 C447.92249667 492.82301412 446.62776049 493.54602548 445.3323822 494.2678833 C440.89917877 496.74721679 436.53028855 499.3177464 432.18359375 501.9453125 C431.01604559 502.6444737 429.84824388 503.34321169 428.68017578 504.04150391 C426.48345051 505.35979387 424.29511914 506.69220357 422.11669922 508.04052734 C415.88540891 511.74320717 411.77538025 513.52679372 404.5 512.5625 C401.62970131 510.76856332 400.00868362 509.57986724 398.5 506.5625 C398.41691362 505.18701844 398.39263984 503.80764204 398.40234375 502.4296875 C398.40556641 501.62402344 398.40878906 500.81835938 398.41210938 499.98828125 C398.42048828 499.14652344 398.42886719 498.30476563 398.4375 497.4375 C398.44201172 496.58800781 398.44652344 495.73851562 398.45117188 494.86328125 C398.46297126 492.76299091 398.48090694 490.6627367 398.5 488.5625 C397.22431382 488.56420874 397.22431382 488.56420874 395.92285621 488.565952 C345.54422682 488.63305186 295.16560216 488.68454229 244.78693705 488.71569599 C238.74109598 488.71944821 232.695255 488.72333117 226.64941406 488.72729492 C225.44577017 488.72808185 224.24212628 488.72886878 223.00200833 488.72967956 C203.49977061 488.74274188 183.99755936 488.76640027 164.49533735 488.79395839 C144.49183052 488.82198961 124.48833757 488.83867142 104.4848119 488.84476548 C92.13652071 488.84888666 79.78830431 488.86191412 67.44003613 488.8862494 C58.97820987 488.90207841 50.51642241 488.9069068 42.0545824 488.90300413 C37.16884487 488.90107817 32.28323827 488.90407943 27.39752388 488.92011642 C22.9265184 488.93468533 18.45573224 488.93547197 13.98471679 488.92519668 C12.36550463 488.9239262 10.74627895 488.92775723 9.12709354 488.93714955 C6.92848896 488.94916342 4.73067937 488.94271592 2.53208733 488.93164349 C1.3101473 488.93278265 0.08820728 488.93392181 -1.17076123 488.93509549 C-5.52544111 488.44773661 -8.89344346 487.02786274 -12.14453125 484.0625 C-15.98692896 479.12778187 -16.62496237 476.06628447 -16.62304783 469.89955616 C-16.62420167 469.21568003 -16.62535552 468.5318039 -16.62654433 467.82720426 C-16.62920657 465.51887808 -16.62469203 463.21062064 -16.62025452 460.90229797 C-16.6206903 459.23741409 -16.62156533 457.57253028 -16.62284368 455.90764683 C-16.62508728 451.31958193 -16.62106919 446.73154022 -16.61606562 442.14347827 C-16.61175938 437.20074454 -16.61320767 432.25801218 -16.6139679 427.3152771 C-16.61449302 418.7472992 -16.61134742 410.17932891 -16.60573006 401.61135292 C-16.5976135 389.22339726 -16.59499968 376.83544529 -16.59374207 364.44748726 C-16.59155179 344.35032471 -16.58489237 324.25316621 -16.57543945 304.15600586 C-16.5662647 284.6299644 -16.55918418 265.10392404 -16.55493164 245.57788086 C-16.55453756 243.77342429 -16.55453756 243.77342429 -16.55413551 241.93251405 C-16.5528305 235.89774524 -16.55156679 229.86297643 -16.55032361 223.82820761 C-16.53995176 173.73963561 -16.5223341 123.651068 -16.5 73.5625 C-17.74136719 73.60890625 -18.98273437 73.6553125 -20.26171875 73.703125 C-21.90362171 73.74065421 -23.54555077 73.77705314 -25.1875 73.8125 C-26.00412109 73.84601563 -26.82074219 73.87953125 -27.66210938 73.9140625 C-31.80292007 73.98112016 -33.9274885 73.92096774 -37.51953125 71.671875 C-40.59103182 68.40045427 -41.03301673 65.80309792 -40.96923828 61.29638672 C-39.97040519 55.47696271 -36.46694855 50.60012375 -33.4375 45.625 C-32.71194099 44.40343761 -31.98825411 43.18076149 -31.26635742 41.95703125 C-29.77158266 39.4264423 -28.26761021 36.9016289 -26.75878906 34.37939453 C-24.53785346 30.64879945 -22.39715504 26.87640781 -20.2734375 23.08984375 C-19.60054441 21.89628875 -18.92745224 20.70284595 -18.25415039 19.50952148 C-16.98462159 17.25572076 -15.72055057 14.99883476 -14.46264648 12.73852539 C-13.88329346 11.72137451 -13.30394043 10.70422363 -12.70703125 9.65625 C-12.2066333 8.76615234 -11.70623535 7.87605469 -11.19067383 6.95898438 C-8.28581509 2.84142577 -5.17603009 -0.00911273 0 0 Z " fill="#8C9BA7" transform="translate(40.5,-0.5625)"/>
<path d="M0 0 C3.81036859 7.17245852 -0.56718052 17.14701436 -2.55078125 24.3515625 C-2.92543285 25.73804297 -3.29937806 27.12471448 -3.6726532 28.51156616 C-4.45409155 31.4062774 -5.24235086 34.2990125 -6.03588867 37.19042969 C-7.04914194 40.88366147 -8.0477203 44.58066428 -9.04153156 48.27916908 C-9.81127726 51.13907226 -10.58749466 53.99718683 -11.36577415 56.85477829 C-11.73621711 58.21698841 -12.10497961 59.57965675 -12.47197914 60.94279861 C-12.98708114 62.85112746 -13.51155578 64.75691883 -14.03637695 66.66259766 C-14.33171829 67.74433258 -14.62705963 68.8260675 -14.93135071 69.94058228 C-17.68725698 78.3205201 -17.68725698 78.3205201 -21.8125 80.5625 C-25.81945107 81.12347315 -26.66769903 80.31867218 -29.9375 78 C-32.13209974 76.02282299 -34.19452073 73.93291543 -36.25 71.8125 C-36.79978516 71.25369141 -37.34957031 70.69488281 -37.91601562 70.11914062 C-39.26113696 68.75062588 -40.59996643 67.37593167 -41.9375 66 C-48.80900391 71.62897941 -54.98936965 77.92449278 -61.24868774 84.21112061 C-62.50076079 85.46490719 -63.75306002 86.71846793 -65.00556505 87.97182298 C-68.43701486 91.40685064 -71.86534559 94.84497652 -75.29319 98.28360152 C-78.99412696 101.99504247 -82.6980106 105.70354054 -86.40159607 109.41233826 C-92.8155522 115.83599576 -99.22783665 122.26131801 -105.63914871 128.68761444 C-115.76922781 138.84107709 -125.90450263 148.9893445 -136.0406189 159.13677979 C-139.50904587 162.60920787 -142.97743903 166.08166973 -146.44582176 169.554142 C-147.31250381 170.42184327 -148.17918585 171.28954454 -149.07213099 172.18353979 C-158.93112238 182.05426748 -168.78904028 191.92606695 -178.64648438 201.79833984 C-179.99781369 203.15169781 -179.99781369 203.15169781 -181.3764426 204.53239635 C-195.99308108 219.17124148 -210.605881 233.81391376 -225.21772321 248.45754609 C-240.21793607 263.49011501 -255.2238789 278.51694797 -270.23476446 293.53885961 C-279.49547637 302.80680459 -288.75140997 312.07947123 -298.00131069 321.3582066 C-304.33450705 327.71035916 -310.67310512 334.05708731 -317.01603223 340.39952317 C-320.67817953 344.06173366 -324.33779435 347.72638756 -327.99093056 351.39758873 C-331.33254401 354.75563028 -334.68094699 358.10673996 -338.03497307 361.45238248 C-339.24945697 362.66629051 -340.46138213 363.8827648 -341.6705236 365.10199437 C-343.3101111 366.75452836 -344.95862477 368.39760743 -346.60975075 370.03860092 C-347.52449972 370.95503113 -348.43924869 371.87146133 -349.38171732 372.81566215 C-353.64881924 376.46260456 -357.32707557 377.42587353 -362.953125 377.24609375 C-367.64643937 376.66404886 -370.72890995 374.46993772 -373.75 371 C-376.96310205 366.59346004 -377.7271156 362.36750603 -376.9375 357 C-374.93615127 352.33003735 -372.34132082 348.97660383 -368.75820637 345.45156288 C-367.97298543 344.66114964 -367.97298543 344.66114964 -367.17190143 343.85476846 C-365.41626527 342.0911927 -363.65013679 340.33852115 -361.88386536 338.58560181 C-360.61019676 337.3106249 -359.33718766 336.0349889 -358.06478232 334.75875127 C-354.56659472 331.25385191 -351.0591154 327.75838177 -347.5500623 324.26436543 C-343.7675595 320.49480866 -339.9937207 316.71659575 -336.21882629 312.93942261 C-329.67743578 306.39645845 -323.1305715 299.8590129 -316.57996559 293.32527542 C-307.10888007 283.87856299 -297.64608172 274.4235851 -288.18529054 264.96656434 C-272.83585021 249.62369114 -257.47972125 234.28753047 -242.11938477 218.95556641 C-227.19757812 204.06129354 -212.27892315 189.16387549 -197.36450195 174.26220703 C-196.44529549 173.34378873 -195.52608902 172.42537044 -194.57902781 171.47912128 C-189.96769419 166.87170276 -185.35642253 162.26422223 -180.74518168 157.65671086 C-142.48555597 119.4281892 -104.21507378 81.21054997 -65.9375 43 C-66.88823334 41.87923834 -67.84062142 40.75988026 -68.79370117 39.64111328 C-69.32388351 39.01761993 -69.85406586 38.39412659 -70.40031433 37.7517395 C-72.84642097 34.96421572 -75.57195256 32.49751213 -78.30078125 29.9921875 C-80.30121512 27.55729185 -80.83697079 26.14991511 -80.9375 23 C-79.46391649 19.59853312 -78.49126337 18.25820722 -75.09594727 16.67504883 C-73.88994873 16.33497803 -72.6839502 15.99490723 -71.44140625 15.64453125 C-70.75438126 15.44624222 -70.06735626 15.24795319 -69.35951233 15.0436554 C-66.89121302 14.34022669 -64.41513914 13.66977047 -61.9375 13 C-59.88256605 12.43178042 -57.827721 11.86323932 -55.77294922 11.29443359 C-50.01385939 9.71178336 -44.24479495 8.16920513 -38.47094727 6.64135742 C-34.84866371 5.68051406 -31.23004322 4.70660683 -27.61132812 3.73242188 C-25.29187917 3.11638684 -22.97222488 2.50112429 -20.65234375 1.88671875 C-19.57935532 1.59617111 -18.50636688 1.30562347 -17.40086365 1.00627136 C-4.56270643 -2.35494525 -4.56270643 -2.35494525 0 0 Z " fill="#82ADE3" transform="translate(462.9375,49)"/>
<path d="M0 0 C0.75539062 0.00128906 1.51078125 0.00257812 2.2890625 0.00390625 C4.82478435 0.5309945 5.74230848 1.47723025 7.375 3.4375 C6.91327393 4.15268799 6.45154785 4.86787598 5.97583008 5.60473633 C4.41806234 8.36129864 3.56662983 10.7130266 2.76171875 13.76171875 C2.48610107 14.78217285 2.2104834 15.80262695 1.92651367 16.85400391 C1.64138916 17.93343262 1.35626465 19.01286133 1.0625 20.125 C-1.46146824 29.42837798 -4.21842699 38.58466417 -7.36328125 47.6953125 C-10.66122203 57.36143821 -10.66122203 57.36143821 -10.625 67.4375 C-8.30211098 70.75591288 -6.46608792 71.59827071 -2.625 72.4375 C-2.62353479 73.70944264 -2.62353479 73.70944264 -2.62203997 75.00708109 C-2.56379103 125.24385812 -2.49001176 175.48059183 -2.39601372 225.71731535 C-2.38474531 231.74684609 -2.3736069 237.77637707 -2.36254883 243.8059082 C-2.36034514 245.00629917 -2.35814146 246.20669013 -2.355871 247.44345658 C-2.32048103 266.89003246 -2.29562649 286.33660829 -2.27465298 305.78320444 C-2.25290448 325.73137296 -2.21986309 345.67949963 -2.17629844 365.62763256 C-2.14976537 377.94058069 -2.13208218 390.25347665 -2.12565396 402.56645196 C-2.12040515 411.00541708 -2.10420523 419.4443165 -2.07933434 427.88324643 C-2.06530201 432.7549117 -2.05615502 437.62645931 -2.05999184 442.49814606 C-2.06339749 446.95751574 -2.05306362 451.41663395 -2.03176448 455.87595212 C-2.02648826 457.48978549 -2.02627041 459.10364492 -2.03160437 460.7174781 C-2.03811703 462.91127921 -2.02621028 465.10425018 -2.00976086 467.29798222 C-2.00786225 468.51650476 -2.00596365 469.7350273 -2.00400752 470.99047476 C-1.46073491 475.93147017 0.08687105 479.79402513 3.1875 483.75 C5.78744973 485.7556755 8.22440848 486.57824777 11.375 487.4375 C11.375 487.7675 11.375 488.0975 11.375 488.4375 C8.83267658 488.51902344 6.29300798 488.57823716 3.75 488.625 C2.68072266 488.66270508 2.68072266 488.66270508 1.58984375 488.70117188 C-3.93978141 488.77726763 -8.03944427 487.79582162 -12.26953125 483.9375 C-16.11192896 479.00278187 -16.74996237 475.94128447 -16.74804783 469.77455616 C-16.74920167 469.09068003 -16.75035552 468.4068039 -16.75154433 467.70220426 C-16.75420657 465.39387808 -16.74969203 463.08562064 -16.74525452 460.77729797 C-16.7456903 459.11241409 -16.74656533 457.44753028 -16.74784368 455.78264683 C-16.75008728 451.19458193 -16.74606919 446.60654022 -16.74106562 442.01847827 C-16.73675938 437.07574454 -16.73820767 432.13301218 -16.7389679 427.1902771 C-16.73949302 418.6222992 -16.73634742 410.05432891 -16.73073006 401.48635292 C-16.7226135 389.09839726 -16.71999968 376.71044529 -16.71874207 364.32248726 C-16.71655179 344.22532471 -16.70989237 324.12816621 -16.70043945 304.03100586 C-16.6912647 284.5049644 -16.68418418 264.97892404 -16.67993164 245.45288086 C-16.67953756 243.64842429 -16.67953756 243.64842429 -16.67913551 241.80751405 C-16.6778305 235.77274524 -16.67656679 229.73797643 -16.67532361 223.70320761 C-16.66495176 173.61463561 -16.6473341 123.526068 -16.625 73.4375 C-17.86636719 73.48390625 -19.10773437 73.5303125 -20.38671875 73.578125 C-22.02862171 73.61565421 -23.67055077 73.65205314 -25.3125 73.6875 C-26.12912109 73.72101563 -26.94574219 73.75453125 -27.78710938 73.7890625 C-31.92792007 73.85612016 -34.0524885 73.79596774 -37.64453125 71.546875 C-40.71603182 68.27545427 -41.15801673 65.67809792 -41.09423828 61.17138672 C-40.09540519 55.35196271 -36.59194855 50.47512375 -33.5625 45.5 C-32.83694099 44.27843761 -32.11325411 43.05576149 -31.39135742 41.83203125 C-29.89658266 39.3014423 -28.39261021 36.7766289 -26.88378906 34.25439453 C-24.66285346 30.52379945 -22.52215504 26.75140781 -20.3984375 22.96484375 C-19.72554441 21.77128875 -19.05245224 20.57784595 -18.37915039 19.38452148 C-17.10962159 17.13072076 -15.84555057 14.87383476 -14.58764648 12.61352539 C-14.00829346 11.59637451 -13.42894043 10.57922363 -12.83203125 9.53125 C-12.3316333 8.64115234 -11.83123535 7.75105469 -11.31567383 6.83398438 C-8.34272536 2.61991042 -5.28589598 -0.13623443 0 0 Z " fill="#7A8C98" transform="translate(40.625,-0.4375)"/>
<path d="M0 0 C4.42623816 3.95723279 7.58471667 8.26244999 8.25 14.25 C8.58561278 21.13006207 7.25062263 26.31845909 2.64453125 31.53515625 C-1.41425602 35.26749951 -5.72420197 37.00572692 -11.234375 36.99609375 C-17.5475897 36.49823957 -22.49495524 34.9607492 -26.75 30.0625 C-31.34998148 23.80141409 -31.9710015 18.72837925 -31 11 C-28.98998662 5.85037893 -25.6715719 1.96246023 -21 -1 C-13.87609789 -4.09734875 -6.7295104 -3.89028491 0 0 Z " fill="#FE636E" transform="translate(437,160)"/>
<path d="M0 0 C4.84593957 3.39124852 8.02700423 8.59515419 9.14453125 14.39453125 C9.42819981 20.32793194 8.14945976 26.08443138 4.203125 30.61328125 C-1.9473628 36.14079146 -6.55682848 36.81621578 -14.75 36.734375 C-20.30498946 36.24805656 -23.11322537 33.47265104 -26.66796875 29.51953125 C-30.51621553 24.28163981 -31.66293716 19.95748144 -30.91796875 13.45703125 C-29.56308456 6.89200149 -26.40088631 3.17758245 -20.91796875 -0.54296875 C-14.37795046 -4.32929513 -6.5438391 -3.24326876 0 0 Z " fill="#FE636E" transform="translate(208.91796875,215.54296875)"/>
<path d="M0 0 C3.48943265 3.00253507 6.60483424 6.14716848 8.6875 10.3125 C9.6735026 24.0406901 9.6735026 24.0406901 5.6875 29.3125 C1.56161252 33.71557888 -2.21906881 36.36696757 -8.3125 37.3125 C-14.97542271 37.50527896 -20.29428171 35.76304653 -25.3125 31.3125 C-29.47928081 25.82102009 -31.01689588 20.14262431 -30.3125 13.3125 C-28.28322472 7.32613793 -25.85427919 2.79520453 -20.3125 -0.4375 C-13.40187688 -3.3169263 -6.77940256 -3.45365791 0 0 Z " fill="#FE636E" transform="translate(182.3125,159.6875)"/>
<path d="M0 0 C4.60680859 3.25186488 7.72072178 6.74958167 9.1875 12.25 C9.97125203 19.11376777 9.27226037 24.57180369 5.1875 30.25 C1.55283859 34.36648972 -2.40596877 36.34891146 -7.8125 37.25 C-14.19953239 37.33123412 -18.83151789 36.51941324 -23.8125 32.25 C-29.08673198 26.38974224 -30.3287727 22.11382955 -30.1953125 14.296875 C-29.46141737 8.45566886 -26.49120385 4.92870385 -22.4375 0.875 C-15.30025725 -3.54329313 -7.42477422 -3.91112304 0 0 Z " fill="#FE636E" transform="translate(332.8125,74.75)"/>
<path d="M0 0 C4.71838234 6.2486685 5.80896127 11.32056485 5 19 C3.21020063 24.91145165 0.04503582 28.56937564 -5 32 C-10.20679917 34.37701701 -15.58721626 35.07130617 -21.078125 33.34765625 C-26.24975581 31.04805705 -29.85472811 27.6906996 -33 23 C-34.83235757 17.5029273 -35.1772627 11.03352755 -33.05859375 5.57421875 C-29.75613295 0.07701912 -26.02684154 -3.63143291 -19.75 -5.375 C-12.30415614 -6.76257822 -5.80300095 -4.85832638 0 0 Z " fill="#FE636E" transform="translate(260,86)"/>
<path d="M0 0 C4.89872999 2.85759249 7.79346527 7.1303958 9.5625 12.4375 C10.303915 19.28039581 9.65303621 24.7862669 5.5625 30.4375 C1.15652604 35.18146648 -3.38659812 37.48904967 -9.8125 37.75 C-15.24272857 37.57918155 -19.36986743 36.42242727 -23.390625 32.5625 C-28.74604389 26.64106123 -29.8697904 22.49364492 -29.7734375 14.515625 C-29.16337954 8.92579159 -26.75252331 5.62420793 -22.74609375 1.83984375 C-16.14456356 -3.10785842 -7.46146902 -3.24411696 0 0 Z " fill="#FE636E" transform="translate(304.4375,325.5625)"/>
<path d="M0 0 C4.68699678 3.68550174 7.40390452 7.73880509 8.3359375 13.66796875 C8.56904457 20.4203036 8.03322497 25.09588653 3.828125 30.4375 C-2.04216296 35.86751636 -6.39631188 36.85158997 -14.265625 36.6796875 C-19.81581969 36.21717128 -22.7859457 34.05506352 -26.421875 30.0625 C-30.34293796 25.1355099 -31.65177049 21.06513683 -31.484375 14.77734375 C-30.76550493 9.39480411 -28.27987753 5.13759526 -24.234375 1.5625 C-16.84001828 -3.56827813 -8.03304376 -4.70226952 0 0 Z " fill="#FE636E" transform="translate(111.171875,310.5625)"/>
<path d="M0 0 C5.0099469 2.84916828 8.69585139 6.68682061 10.609375 12.1640625 C11.55249977 18.34848724 11.67185409 24.18986993 8.484375 29.7265625 C5.34151574 33.9587082 1.60501853 36.49884799 -3.390625 38.1640625 C-10.23352081 38.9054775 -15.7393919 38.25459871 -21.390625 34.1640625 C-26.10096774 29.7893167 -28.42705973 25.22969541 -28.765625 18.8515625 C-28.60083272 13.01597689 -26.70998741 8.58885047 -22.671875 4.3671875 C-16.26057765 -1.33778048 -8.30890237 -2.9054005 0 0 Z " fill="#FE636E" transform="translate(390.390625,289.8359375)"/>
<path d="M0 0 C4.0285497 2.86748298 6.89109083 6.71164593 8.7890625 11.2734375 C9.73227519 18.33656505 9.04472617 24.44772315 4.7890625 30.2734375 C-1.12090134 35.88790314 -5.93186024 36.78718459 -13.94140625 36.65234375 C-18.67869543 36.10333891 -21.76660854 34.53112795 -25.2109375 31.2734375 C-30.28452778 24.76883457 -30.82182704 19.29568503 -30.2109375 11.2734375 C-28.19050465 4.97444096 -23.42474452 1.13406262 -17.8359375 -2.1015625 C-11.3441613 -3.6472235 -5.86317251 -3.29365468 0 0 Z " fill="#FE636E" transform="translate(333.2109375,261.7265625)"/>
<path d="M0 0 C5.76646546 3.13131203 8.524149 8.13118382 10.54296875 14.234375 C11.59879235 19.80790537 10.40203114 25.37898484 7.54296875 30.234375 C2.95947763 35.34977743 -1.80376444 38.22718722 -8.70703125 38.609375 C-14.86690541 38.41463688 -19.85608207 36.71758574 -24.35546875 32.421875 C-28.59591831 27.00684083 -29.25757523 22.0324826 -28.91015625 15.2578125 C-28.05920285 9.57989933 -25.68976845 6.1511804 -21.39453125 2.359375 C-15.36713507 -2.00086905 -7.03273908 -2.19144175 0 0 Z " fill="#FE636E" transform="translate(147.45703125,231.765625)"/>
<path d="M0 0 C3.85403452 3.63125796 7.81087545 7.36680427 8.203125 12.828125 C8.37033338 25.03433707 8.37033338 25.03433707 3.62890625 30.61328125 C-1.1100807 35.37499715 -6.35358295 36.87864688 -13 37 C-18.42068885 36.10491712 -23.24409394 34.07784087 -27 30 C-30.39319281 24.35211987 -31.73866487 19.5424603 -31 13 C-28.68334728 6.16587448 -25.53993806 1.26996903 -19 -2 C-12.69528505 -4.31172882 -5.69728218 -3.40053046 0 0 Z " fill="#FE636E" transform="translate(393,220)"/>
<path d="M0 0 C4.62770997 3.28146707 6.89271113 6.76277229 8.1875 12.265625 C9.03351912 18.01150482 8.81517771 22.90449731 5.625 27.875 C1.7265496 32.22855585 -2.47845477 35.93155276 -8.375 36.875 C-14.7622197 36.93782511 -19.40220823 36.15391385 -24.375 31.875 C-28.59838762 27.45964021 -31.26303279 23.78726603 -31.44140625 17.5546875 C-31.12754717 11.33457118 -29.58866609 6.54128495 -25.375 1.875 C-17.77956912 -3.98724531 -8.3875897 -4.77495743 0 0 Z " fill="#FE636E" transform="translate(267.375,160.125)"/>
<path d="M0 0 C4.691603 2.78594158 7.67391403 6.51022974 9.6875 11.5625 C10.74019366 17.75748859 10.74352018 23.57116673 7.5625 29.125 C4.41964074 33.3571457 0.68314353 35.89728549 -4.3125 37.5625 C-10.52924229 38.06998917 -16.08039413 38.3344833 -21.3125 34.5625 C-26.29945155 29.69571596 -29.30037931 25.32705005 -29.6875 18.25 C-29.52270772 12.41441439 -27.63186241 7.98728797 -23.59375 3.765625 C-16.93024552 -2.16376458 -8.41206092 -3.57268996 0 0 Z " fill="#FE636E" transform="translate(241.3125,344.4375)"/>
</svg>
