<?xml version="1.0" encoding="UTF-8"?>
<svg version="1.1" xmlns="http://www.w3.org/2000/svg" width="512" height="512">
<path d="M0 0 C1.0916748 0.00942627 2.18334961 0.01885254 3.30810547 0.02856445 C30.93263218 0.53892484 55.3777687 9.99244433 74.7890625 30.05078125 C94.27837555 51.7664016 98.95155896 78.68621237 98.06591797 106.92382812 C96.7136137 131.3690623 84.20599481 153.38128822 66.3671875 169.6640625 C44.99758557 187.46061202 19.86888835 191.53845314 -7.10412598 191.50871277 C-8.71842708 191.51058332 -10.33272774 191.51288499 -11.94702768 191.51557809 C-16.36314862 191.52167206 -20.77925055 191.52156535 -25.19537473 191.52038372 C-29.96571724 191.52017911 -34.73605374 191.52570409 -39.50639343 191.53044128 C-48.84366813 191.53873447 -58.18093651 191.54149549 -67.51821458 191.54205366 C-75.10799459 191.54252932 -82.69777253 191.54458653 -90.28755188 191.54775429 C-111.81478842 191.5565561 -133.34201999 191.56117423 -154.86925834 191.56042381 C-156.02889235 191.56038386 -157.18852635 191.5603439 -158.38330078 191.56030273 C-159.54435304 191.56026185 -160.70540529 191.56022097 -161.90164095 191.56017885 C-180.72801644 191.55977219 -199.55437195 191.56934799 -218.38074166 191.5834411 C-237.72014017 191.59780389 -257.05952895 191.60471138 -276.39893293 191.60384732 C-287.25321262 191.60351539 -298.10747134 191.60626106 -308.96174622 191.61702538 C-318.20034231 191.62612893 -327.43890793 191.62830669 -336.67750657 191.62151595 C-341.38960629 191.61825045 -346.10164752 191.6181953 -350.81374168 191.6268692 C-355.13032161 191.63473332 -359.44679666 191.63330366 -363.76337403 191.62458507 C-365.32178963 191.62304993 -366.88021306 191.62486676 -368.43861943 191.63044515 C-382.11674965 191.67614978 -395.01792945 190.82458371 -406.078125 181.77734375 C-413.09352837 174.28361742 -414.72640147 165.56223714 -414.59545898 155.63549805 C-414.21950731 146.62569077 -411.40383083 139.73037208 -405.17578125 133.12890625 C-394.80435725 124.25886935 -382.38558117 124.07979898 -369.46231079 124.10998535 C-367.85798381 124.1064121 -366.25365858 124.10196043 -364.64933622 124.09670877 C-360.25148419 124.08480943 -355.85370676 124.08522402 -351.45584249 124.08764386 C-346.70863203 124.08806383 -341.96144711 124.07696053 -337.21424866 124.06718445 C-328.9906972 124.05173753 -320.76716287 124.04332158 -312.54359818 124.03947449 C-300.64285264 124.0337229 -288.74215315 124.01512946 -276.84142797 123.99303395 C-257.51831628 123.95732169 -238.19520198 123.92900561 -218.87207031 123.90673828 C-217.71586828 123.90540329 -216.55966625 123.9040683 -215.3684278 123.90269285 C-207.16228542 123.89326603 -198.95614275 123.8841031 -190.75 123.875 C-181.37955708 123.86460417 -172.00911431 123.85408683 -162.63867188 123.84326172 C-161.48448641 123.84193098 -160.33030095 123.84060023 -159.14114018 123.83922917 C-139.89219411 123.81679439 -120.6432677 123.7865971 -101.39434183 123.75086927 C-89.52462732 123.72921527 -77.65494341 123.71458671 -65.78521024 123.70903051 C-57.65141152 123.70478109 -49.51764196 123.69353739 -41.38385941 123.67680657 C-36.69203276 123.66740894 -32.00026062 123.66128462 -27.308424 123.66386986 C-23.01025846 123.6661874 -18.71220727 123.659326 -14.41406493 123.64529103 C-12.86232328 123.64183986 -11.3105697 123.64172769 -9.75882848 123.64536363 C2.59627904 123.67147832 13.90461159 123.49202877 23.875 115.375 C30.87411258 107.18334085 31.55845393 99.93056622 30.875 89.375 C29.70471192 83.32520566 26.54557564 78.36586609 21.875 74.375 C14.46667339 69.84573871 7.58168607 67.40910201 -1.125 68.375 C-8.45287784 70.32984546 -15.14109707 73.86129602 -19.41455078 80.32568359 C-20.55353777 82.43980679 -21.6008627 84.57806052 -22.625 86.75 C-28.27980252 97.976957 -34.70665028 106.23555009 -47.125 110.375 C-59.18087368 111.07233641 -67.34213428 110.81332621 -76.8125 102.8125 C-83.13718867 96.82992347 -87.77511354 89.64624035 -88.36328125 80.78515625 C-88.90348007 59.86274721 -79.7686592 44.9950269 -65.74755859 30.04052734 C-55.9662593 20.00019876 -43.71702258 12.16314847 -30.9375 6.5 C-30.32108643 6.22591309 -29.70467285 5.95182617 -29.06958008 5.66943359 C-19.46956142 1.61500181 -10.41536126 -0.14044096 0 0 Z " fill="#48ABF5" transform="translate(414.125,98.625)"/>
<path d="M0 0 C1.22734863 0.06828003 1.22734863 0.06828003 2.47949219 0.13793945 C21.90377549 1.46265927 40.43426667 6.67501934 57.125 16.8125 C57.8675 17.24949219 58.61 17.68648438 59.375 18.13671875 C79.67860632 30.79021626 93.85886296 51.72697064 99.66845703 74.77001953 C105.27834632 99.86752423 101.28956169 125.71029586 88.125 147.8125 C72.46876559 171.14437689 50.01135797 184.26938636 23 190.625 C-2.12739646 195.19361754 -27.12568249 189.93263652 -48.29296875 175.68359375 C-66.05991507 162.80860541 -81.58539477 145.06748159 -85.875 122.8125 C-86.72751932 111.84155467 -85.8032469 102.25402352 -78.6875 93.5 C-70.9805644 85.46300292 -63.12408329 81.8190334 -52 81.4375 C-42.80499299 81.58391731 -36.45572704 84.36164137 -29.875 90.8125 C-28.27133002 93.01042332 -26.83517848 95.12212472 -25.4375 97.4375 C-25.05553467 98.04779053 -24.67356934 98.65808105 -24.2800293 99.28686523 C-22.47626494 102.17326438 -20.71217775 105.08221572 -18.953125 107.99609375 C-14.7816368 114.79783447 -10.88364386 120.32013218 -3.11328125 123.30078125 C5.20792712 125.20318665 13.51943748 124.75705131 20.9375 120.42578125 C27.0016527 115.95346864 31.66980055 110.32236859 33.125 102.8125 C34.00278084 94.89052791 33.4150398 87.6742572 29.125 80.8125 C22.42915936 72.95158309 15.09025586 70.20795555 5.125 68.8125 C2.14779616 68.67132093 -0.82522885 68.67486707 -3.80535889 68.68119812 C-4.69364419 68.67908241 -5.5819295 68.67696669 -6.49713254 68.67478687 C-9.46782739 68.66880479 -12.43847955 68.66978574 -15.40917969 68.6706543 C-17.54159619 68.66762161 -19.67401205 68.66409985 -21.806427 68.66012573 C-26.3964317 68.65224476 -30.98642865 68.64709484 -35.5764389 68.64383507 C-42.83835724 68.63791794 -50.10022676 68.6213709 -57.36212158 68.60249329 C-59.84975812 68.59615613 -62.33739469 68.5898305 -64.82503128 68.58351612 C-66.07074481 68.58035031 -67.31645833 68.5771845 -68.59992075 68.57392275 C-85.50345417 68.53186907 -102.40696461 68.49887042 -119.31054688 68.48657227 C-130.7167428 68.47818852 -142.12281754 68.4556872 -153.52895284 68.4172166 C-159.56214407 68.39746901 -165.5951542 68.3850472 -171.62837982 68.39005089 C-177.30511362 68.39470174 -182.98150417 68.38086757 -188.65816879 68.35303879 C-190.73738605 68.34613484 -192.81663886 68.34599184 -194.89585495 68.35323906 C-207.85153483 68.39382399 -218.51675724 68.08803468 -229.0546875 59.640625 C-235.69515505 52.97165759 -238.83559765 44.668031 -239.125 35.375 C-238.81293065 24.6912141 -235.46600547 17.09779166 -227.875 9.5625 C-217.46236799 1.01403988 -204.75009571 1.22791831 -191.9777832 1.2824707 C-190.21198266 1.27535767 -188.44618846 1.26648763 -186.68040466 1.25601196 C-181.91970983 1.23255759 -177.1592907 1.23311568 -172.39855218 1.23792672 C-167.38879302 1.23852418 -162.37914034 1.21576363 -157.36943054 1.19535828 C-147.87857223 1.16003015 -138.38779024 1.14394842 -128.89687365 1.1355831 C-115.01296617 1.1226389 -101.12912502 1.08409472 -87.24528027 1.04148388 C-86.22071061 1.03834519 -85.19614095 1.03520651 -84.14052373 1.03197271 C-82.09497443 1.02568882 -80.04942531 1.01934513 -78.00387639 1.01294011 C-72.06536452 0.99503743 -66.12688947 0.98381067 -60.18835318 0.97864306 C-56.47162427 0.97476753 -52.75490841 0.96713305 -49.03818703 0.9588356 C-47.33481552 0.95591541 -45.63144015 0.95463099 -43.92806625 0.95524788 C-33.81959365 0.95818643 -23.77978149 0.66936994 -13.69079876 0.02817059 C-9.10201306 -0.23118955 -4.58642863 -0.25927279 0 0 Z " fill="#68D3FB" transform="translate(287.875,320.1875)"/>
<path d="M0 0 C20.82087309 14.64941669 33.66165191 37.16516489 38.25 62 C41.726963 87.93626455 37.53835983 114.81318541 22.23046875 136.5078125 C6.18085274 157.36250703 -14.5506292 169.39985339 -40.34439087 173.53633118 C-46.6188998 174.29263986 -52.93371882 174.14790503 -59.24365234 174.14526367 C-60.67686551 174.14826007 -62.11007787 174.15166371 -63.54328918 174.15544128 C-67.41733463 174.16423561 -71.29135796 174.16661744 -75.16541243 174.16725707 C-77.5904065 174.16797006 -80.01539503 174.17010907 -82.44038773 174.17275429 C-90.91338709 174.18199195 -99.38637077 174.18609108 -107.859375 174.18530273 C-115.73691189 174.18470207 -123.61438028 174.19525572 -131.49189985 174.2110464 C-138.27348093 174.22415216 -145.05503969 174.22948537 -151.83663332 174.22884732 C-155.8789204 174.22859327 -159.9211465 174.23139327 -163.96342087 174.24202538 C-167.76707135 174.25175786 -171.5706032 174.25175051 -175.37425804 174.24450874 C-176.76331571 174.24346934 -178.15238097 174.24578713 -179.5414257 174.2518692 C-193.30045223 174.30817231 -203.72791842 172.56774722 -215.25 164.8125 C-222.17716482 157.72789962 -225.50960018 149.98287776 -226.3125 140.1875 C-225.97372643 130.58891548 -222.80345916 122.78977011 -216 116 C-206.69559159 108.13157851 -194.90844322 107.55820836 -183.24536133 107.63110352 C-181.90025528 107.62862917 -180.55515117 107.62478438 -179.21005249 107.61968994 C-176.33456256 107.61141186 -173.45927111 107.61210825 -170.58378029 107.61987495 C-166.02074344 107.63156672 -161.45795585 107.61920396 -156.89494324 107.60325623 C-145.56083651 107.56724019 -134.22673698 107.5608218 -122.89257812 107.56335449 C-114.07950492 107.56507356 -105.26663888 107.5577185 -96.453623 107.52337593 C-92.66820179 107.50944973 -88.88312811 107.5033352 -85.0976963 107.51642036 C-57.19936626 108.72400697 -57.19936626 108.72400697 -33 97 C-27.37481858 89.71570608 -27.43680431 81.85173606 -28 73 C-29.19657423 66.4023751 -33.07100955 61.41066407 -38 57 C-45.57067897 52.09883283 -53.50192008 50.83312898 -62.37109375 52.42578125 C-70.32559993 54.67289478 -75.38676108 58.99067313 -79.44140625 66.14453125 C-80.73996854 68.51833302 -82.01520142 70.90355674 -83.28662109 73.29199219 C-88.03500714 82.13255739 -93.90612439 90.95418039 -104 94 C-115.25961291 95.2744397 -125.08639229 94.21026162 -134.25 87.375 C-141.52785518 81.11398801 -146.58496275 73.62225329 -148 64 C-148.65334214 47.32987619 -141.5202949 33.20320428 -130.6875 20.9375 C-129.13466771 19.28254215 -127.57200863 17.63675364 -126 16 C-125.22785156 15.1646875 -124.45570312 14.329375 -123.66015625 13.46875 C-91.23169175 -20.58902146 -39.08979334 -26.2460041 0 0 Z " fill="#3391F1" transform="translate(250,16)"/>
</svg>
